<svg width="194" height="293" viewBox="0 0 194 293" fill="none" xmlns="http://www.w3.org/2000/svg">
<path d="M0 5.7735L10 11.547V0L0 5.7735ZM193.5 291.773V290.773H142.5V291.773V292.773H193.5V291.773ZM102.5 251.773H103.5V45.7735H102.5H101.5V251.773H102.5ZM62.5 5.7735V4.7735H9V5.7735V6.7735H62.5V5.7735ZM102.5 45.7735H103.5C103.5 23.1298 85.1437 4.7735 62.5 4.7735V5.7735V6.7735C84.0391 6.7735 101.5 24.2344 101.5 45.7735H102.5ZM142.5 291.773V290.773C120.961 290.773 103.5 273.313 103.5 251.773H102.5H101.5C101.5 274.417 119.856 292.773 142.5 292.773V291.773Z" fill="white"/>
</svg>
