<svg width="1919" height="1124" viewBox="0 0 1919 1124" fill="none" xmlns="http://www.w3.org/2000/svg">
<path opacity="0.2" d="M1327.71 649.209C1323.87 653.173 1321.48 661.102 1318.97 665.833C1318.7 666.345 1318.44 666.856 1318.57 667.368C1318.7 667.879 1318.97 668.135 1319.37 668.519C1321.09 669.797 1323.47 670.053 1325.59 669.414C1335.12 666.856 1338.83 656.882 1332.61 649.081C1329.96 645.884 1330.75 645.884 1327.71 649.209ZM1677.5 843.453C1669.56 835.013 1665.06 823.504 1665.19 811.995C1665.32 806.753 1666.25 801.51 1665.72 796.395C1665.19 791.28 1663.07 785.781 1658.31 783.223C1656.72 782.328 1654.86 781.817 1653.27 782.328C1651.55 782.712 1650.23 784.118 1649.17 785.397C1647.05 788.211 1645.73 791.407 1645.33 794.86C1644.8 799.464 1645.86 804.067 1644.93 808.671C1643.61 814.809 1637.52 820.052 1631.03 819.54C1624.54 819.029 1619.25 811.612 1622.16 805.985C1623.88 802.533 1627.59 800.487 1629.58 797.29C1632.36 792.43 1630.24 786.037 1625.87 782.456C1621.5 778.876 1615.67 777.597 1609.98 777.341C1603.76 777.085 1596.61 777.98 1591.71 782.073C1587.21 785.909 1585.88 792.047 1581.91 796.267C1573.97 804.834 1558.87 801.893 1550.8 810.717C1543.38 818.901 1545.9 833.607 1536.63 839.745C1534.38 841.151 1531.73 841.919 1529.22 842.43C1523.79 843.453 1518.23 843.453 1512.8 844.604C1507.37 845.627 1501.81 848.057 1498.9 852.532C1494.93 858.414 1496.25 866.215 1497.44 873.12C1501.41 895.243 1503.27 917.749 1502.61 940.255C1502.47 942.941 1502.47 945.882 1503.8 948.184C1506.05 952.276 1511.61 953.682 1516.24 952.659C1520.88 951.636 1524.85 948.951 1528.82 946.393C1538.88 939.872 1549.87 934.373 1561.65 931.56C1568.94 929.769 1576.48 929.13 1583.9 928.363C1589.33 927.851 1594.75 927.34 1600.05 928.618C1605.35 929.897 1610.38 933.094 1612.1 938.081C1614.08 943.708 1612.23 951.636 1617.66 954.577C1619.91 955.728 1622.56 955.6 1624.94 956.368C1633.28 958.925 1634.08 970.05 1639.9 976.444C1646.26 983.605 1657.64 983.605 1667.31 982.454C1679.89 980.92 1694.19 977.084 1698.95 965.83C1700.81 961.355 1700.94 956.368 1701.2 951.636C1701.73 943.708 1703.19 935.396 1708.09 929.13C1710.6 925.933 1714.05 923.248 1716.03 919.795C1717.88 916.598 1718.68 913.018 1719.21 909.437C1720.93 897.672 1720.4 884.885 1713.91 874.783C1705.44 861.228 1688.49 855.218 1677.5 843.453ZM1683.2 998.567C1678.69 995.114 1662.54 992.301 1659.23 997.927C1658.17 999.718 1659.5 1001.76 1660.16 1003.68C1660.95 1005.98 1660.95 1008.67 1660.03 1010.97C1659.23 1012.89 1657.78 1014.81 1658.04 1016.98C1658.17 1019.03 1660.03 1020.69 1661.88 1021.46C1663.87 1022.22 1665.98 1022.22 1668.1 1022.35C1670.75 1022.35 1673.4 1022.48 1676.05 1022.48C1676.84 1022.48 1677.77 1022.48 1678.43 1022.22C1679.49 1021.84 1680.15 1020.82 1680.81 1019.92C1685.31 1014.17 1690.61 1004.32 1683.2 998.567ZM1821.42 1004.58C1817.18 1001.25 1809.64 994.858 1803.94 998.95C1798.25 1003.04 1800.37 1013.14 1797.32 1018.77C1793.09 1026.7 1781.97 1029.26 1777.33 1037.06C1775.88 1039.49 1775.21 1042.3 1774.82 1045.11C1774.42 1048.31 1774.82 1051.76 1777.33 1053.94C1780.11 1056.24 1784.61 1055.6 1787.53 1053.43C1790.44 1051.25 1792.29 1048.05 1794.01 1044.99C1800.9 1033.6 1809.77 1023.25 1820.1 1014.68C1822.35 1012.89 1824.86 1010.33 1823.94 1007.65C1823.54 1006.37 1822.48 1005.47 1821.42 1004.58ZM1835.85 963.145C1829.76 960.843 1826.19 955.472 1822.08 950.741C1820.23 948.695 1817.98 946.521 1815.2 946.777C1813.48 946.905 1812.02 948.056 1810.7 949.079C1809.77 949.846 1808.71 950.741 1808.84 951.892C1808.97 953.043 1810.17 953.682 1811.09 954.322C1814.27 956.496 1816.39 959.948 1818.38 963.273C1819.96 965.958 1821.68 968.772 1822.48 971.841C1823.27 974.91 1823.14 978.362 1821.42 980.92C1820.1 982.838 1817.85 984.5 1817.98 986.93C1817.98 988.72 1819.43 990.255 1820.89 991.406C1824.86 994.73 1829.89 998.183 1830.29 1003.3C1830.42 1004.32 1830.42 1005.6 1831.35 1005.98C1831.75 1006.24 1832.28 1006.11 1832.67 1006.11C1835.72 1005.47 1837.57 1002.4 1838.5 999.462C1839.43 996.521 1839.82 993.324 1841.94 991.022C1844.85 987.697 1850.55 986.93 1852.53 982.838C1853.99 979.769 1852.67 976.188 1850.68 973.375C1846.97 968.132 1841.81 965.447 1835.85 963.145ZM1780.77 865.448C1781.83 865.448 1782.76 864.936 1783.69 864.425C1784.61 863.913 1785.54 863.146 1785.94 862.123C1788.32 855.729 1779.45 848.44 1773.36 849.207C1771.11 849.463 1768.86 850.103 1769.39 852.66C1769.65 854.067 1772.3 855.346 1773.23 856.496C1774.82 858.415 1775.48 860.461 1776.67 862.507C1777.6 864.041 1779.05 865.448 1780.77 865.448ZM1857.56 821.586C1854.52 818.901 1848.03 818.901 1844.33 820.052C1841.28 821.075 1828.04 830.793 1834.79 832.456C1840.75 833.862 1845.91 828.492 1851.74 828.108C1854.39 827.98 1858.36 829.003 1859.15 825.295C1859.55 823.632 1858.76 822.609 1857.56 821.586ZM1787.79 822.226C1788.45 822.609 1789.11 823.121 1789.64 823.504C1790.17 823.888 1790.7 824.144 1791.23 824.144C1791.76 824.144 1792.16 823.888 1792.56 823.632C1800.24 818.261 1792.03 809.95 1785.81 808.543C1778.92 807.008 1772.83 812.251 1780.38 817.366C1782.89 819.029 1785.41 820.691 1787.79 822.226ZM1759.59 774.144C1755.35 771.459 1750.59 768.646 1749.53 763.914C1749 761.484 1749.53 758.671 1748.2 756.497C1746.88 754.195 1743.97 753.172 1741.19 752.917C1737.21 752.533 1733.24 753.172 1729.54 751.51C1727.15 750.359 1723.84 746.906 1720.8 747.418C1718.02 747.93 1716.96 751.638 1717.75 754.195C1718.81 757.392 1722.52 757.648 1725.56 758.16C1735.89 759.95 1742.78 769.157 1748.2 777.853C1749.53 779.899 1750.85 782.073 1752.57 783.735C1755.62 786.42 1759.72 787.699 1763.56 788.85C1764.22 789.106 1764.89 789.234 1765.68 789.106C1767.4 788.85 1768.33 786.932 1768.33 785.141C1768.33 780.282 1763.83 776.702 1759.59 774.144ZM1590.12 716.088C1591.44 717.879 1594.89 717.623 1596.87 718.007C1601.9 719.285 1604.15 724.912 1608.52 727.597C1611.57 729.515 1615.28 729.771 1618.59 731.178C1626 734.503 1629.18 743.582 1627.59 751.254C1627.06 753.94 1626 756.625 1626.27 759.311C1626.66 763.147 1629.71 766.344 1633.28 768.006C1636.86 769.669 1640.96 770.18 1644.93 770.691C1645.99 770.819 1647.05 770.947 1647.98 770.691C1650.63 770.052 1651.82 767.239 1653.67 765.321C1657.51 761.101 1664.53 760.845 1669.82 763.147C1675.12 765.449 1679.09 769.924 1682.53 774.528C1684.79 777.341 1688.1 780.666 1691.41 779.131C1693.66 778.108 1694.45 775.295 1693.79 772.993C1693.13 770.691 1691.41 768.773 1689.82 767.111C1686.11 763.147 1682.53 759.183 1678.83 755.219C1678.17 754.451 1677.37 753.684 1677.24 752.661C1676.97 751.254 1677.9 749.848 1679.09 749.081C1683.73 745.884 1690.08 749.848 1695.91 749.976C1700.28 750.103 1704.38 747.802 1707.03 744.477C1709.68 741.152 1711 737.06 1711.26 732.84C1711.53 730.027 1711.26 726.958 1709.41 724.656C1708.35 723.377 1706.9 722.354 1705.31 721.715C1703.59 721.076 1701.73 720.692 1700.01 721.203C1698.29 721.715 1696.83 723.377 1697.1 725.168C1697.5 727.853 1701.2 729.388 1701.07 732.073C1701.07 734.247 1698.42 735.526 1696.17 735.398C1693.92 735.398 1691.8 734.375 1689.68 734.247C1687.43 734.119 1684.79 735.142 1684.52 737.188C1684.39 737.699 1684.52 738.339 1684.39 738.85C1684.12 740.129 1682.67 741.024 1681.21 741.28C1678.03 741.792 1674.86 740.385 1672.47 738.339C1670.09 736.293 1668.24 733.735 1665.98 731.434C1658.84 724.145 1647.58 720.82 1637.39 723.122C1633.68 724.017 1630.1 725.423 1626.4 725.935C1613.03 727.469 1616.86 713.147 1607.07 709.567C1603.23 708.16 1597.53 708.799 1593.7 710.206C1591.31 711.229 1588.13 713.275 1590.12 716.088ZM1606.94 754.579C1607.07 755.346 1607.07 756.114 1607.33 756.753C1607.99 757.904 1609.72 758.287 1611.04 757.648C1614.61 756.114 1617.66 747.418 1612.76 745.628C1606.41 743.326 1606.27 751.254 1606.94 754.579ZM1584.56 724.784C1583.1 724.528 1581.78 723.761 1580.46 723.122C1575.95 721.331 1567.88 721.331 1564.7 725.807C1561.13 730.922 1568.8 732.073 1572.64 730.794C1574.63 730.155 1576.62 728.876 1578.73 729.004C1580.46 729.132 1582.04 730.027 1583.5 730.794C1586.94 732.584 1590.65 733.863 1594.49 733.607C1594.89 733.607 1595.28 733.48 1595.55 733.224C1595.68 733.096 1595.68 732.84 1595.68 732.584C1595.68 728.876 1592.5 725.423 1588.8 725.04C1587.34 724.784 1585.88 725.04 1584.56 724.784ZM1570.53 693.838C1569.86 694.733 1569.33 695.628 1569.2 696.651C1568.67 699.081 1570.13 701.766 1569.33 704.196C1569.07 704.835 1568.8 705.475 1568.67 706.114C1568.41 707.904 1570.26 709.695 1572.11 709.823C1574.1 709.95 1575.82 708.927 1577.15 707.521C1578.73 705.858 1579.79 703.557 1580.06 701.255C1580.32 698.442 1581.12 697.546 1582.18 695.245C1583.1 693.454 1584.16 693.71 1582.71 691.536C1579.66 686.549 1572.91 690.641 1570.53 693.838ZM1559.01 740.129C1558.08 737.444 1555.7 735.398 1553.84 733.224C1551.06 730.027 1549.21 726.191 1548.42 722.227C1547.89 719.541 1548.15 716.344 1550.53 714.938C1551.59 714.298 1552.92 714.17 1554.11 713.787C1555.3 713.403 1556.49 712.38 1556.36 711.229C1556.23 710.078 1555.03 709.183 1553.84 708.799C1551.72 708.032 1549.47 707.776 1547.22 708.16C1546.69 705.347 1549.47 702.917 1552.25 702.022C1555.3 700.999 1568.41 698.058 1562.32 692.687C1558.08 688.979 1547.09 695.372 1542.72 696.907C1539.41 698.058 1535.97 699.337 1533.72 702.022C1529.08 707.649 1532.26 715.833 1531.07 722.866C1530.01 729.132 1525.11 734.886 1525.91 741.152C1526.04 741.919 1526.17 742.687 1526.7 743.326C1527.1 743.838 1527.76 744.093 1528.29 744.349C1531.73 745.5 1535.97 743.71 1537.29 740.513C1537.69 739.745 1537.96 738.722 1538.88 738.467C1539.41 738.339 1539.94 738.467 1540.47 738.722C1544.05 740.001 1547.49 741.919 1550.4 744.349C1551.86 745.5 1553.45 746.907 1555.3 746.907C1558.34 746.651 1559.93 742.942 1559.01 740.129ZM1499.69 676.831C1496.25 680.283 1491.88 682.841 1487.78 685.526C1482.88 688.595 1469.11 691.536 1468.58 697.802C1468.31 701.383 1472.29 703.812 1475.2 706.114C1479.17 709.439 1481.69 714.298 1483.67 719.03C1484.47 721.076 1485.39 723.122 1486.98 724.528C1491.09 728.109 1497.57 726.191 1502.87 727.725C1505.25 728.492 1507.5 729.899 1509.89 730.794C1512.27 731.689 1515.18 731.945 1517.17 730.411C1518.89 729.004 1519.42 726.702 1519.55 724.528C1519.82 716.344 1515.18 707.649 1518.76 700.232C1520.61 696.396 1524.58 693.326 1525.11 689.107C1525.64 685.142 1522.86 680.922 1524.45 677.214C1525.11 675.552 1526.57 674.401 1527.5 672.994C1530.28 668.646 1527.89 662.253 1522.99 660.59C1518.36 658.928 1513.06 661.357 1509.62 664.81C1506.05 668.518 1503.53 673.122 1499.69 676.831ZM1564.04 773.505C1568.14 771.715 1571.06 769.413 1575.82 768.901C1576.62 768.773 1577.54 768.773 1578.2 768.518C1578.87 768.262 1579.66 767.495 1579.66 766.727C1579.66 765.96 1579 765.193 1578.34 764.809C1576.88 763.786 1574.89 763.53 1573.17 763.914C1571.19 764.426 1569.73 765.832 1567.88 766.599C1565.49 767.622 1564.44 767.111 1562.05 767.367C1559.67 767.622 1554.9 769.413 1556.49 772.61C1557.68 775.167 1562.05 774.4 1564.04 773.505ZM1551.2 757.137C1548.42 755.602 1544.71 755.858 1542.06 757.648C1540.34 758.799 1539.01 760.589 1537.16 761.74C1532.39 764.809 1529.22 761.484 1524.58 761.229C1520.35 760.973 1516.24 765.576 1521.27 768.262C1525.11 770.308 1529.75 770.947 1533.32 773.505C1535.18 774.911 1537.29 776.83 1539.54 776.19C1541.8 775.551 1542.32 772.865 1543.25 770.819C1544.18 768.646 1545.9 766.727 1548.02 765.449C1549.21 764.681 1550.67 764.298 1551.86 763.403C1553.05 762.507 1553.84 761.101 1553.58 759.694C1553.18 758.415 1552.25 757.648 1551.2 757.137ZM1505.25 763.658C1507.11 763.53 1509.09 762.124 1508.83 760.334C1508.83 759.95 1508.56 759.566 1508.43 759.183C1506.18 754.323 1501.41 750.871 1496.12 749.081C1490.95 747.29 1485.26 747.034 1479.83 746.907C1477.58 746.907 1475.33 746.779 1473.21 746.139C1465.93 743.965 1462.62 735.526 1463.02 728.237C1463.15 726.318 1463.42 724.272 1462.75 722.354C1461.56 718.774 1457.59 716.984 1454.15 715.193C1449.25 712.636 1444.61 709.439 1441.3 704.963C1438.39 701.127 1436.67 696.523 1433.36 692.943C1430.45 689.746 1426.61 687.572 1423.3 684.887C1418.93 681.434 1416.02 675.424 1410.32 673.761C1402.64 671.46 1408.6 677.47 1411.25 679.899C1421.31 688.979 1430.85 699.976 1432.96 713.659C1434.02 720.308 1433.36 727.725 1437.47 733.096C1441.3 737.955 1448.06 739.873 1452.56 744.093C1455.47 746.907 1457.46 750.615 1460.64 753.045C1466.59 757.648 1475.07 757.009 1482.61 757.776C1488.57 758.288 1494.4 759.822 1499.82 762.124C1501.68 762.891 1503.4 763.786 1505.25 763.658ZM1519.55 641.281C1518.63 643.327 1516.64 644.606 1515.18 646.396C1514.79 646.907 1514.39 647.419 1514.39 648.058C1514.26 649.465 1515.71 650.616 1517.04 650.872C1519.16 651.383 1521.54 650.872 1523.39 649.849C1529.75 646.396 1536.1 638.979 1530.94 631.946C1524.19 622.867 1521.41 637.189 1519.55 641.281ZM1568.14 626.575C1569.73 621.844 1565.49 617.112 1561.39 614.299C1558.21 612.125 1554.9 610.207 1551.46 608.545C1548.15 607.01 1544.18 605.348 1543.12 602.023C1542.06 598.698 1544.31 595.245 1546.3 592.304C1555.04 579.517 1536.23 572.1 1533.32 586.806C1532.92 588.724 1533.06 590.77 1533.32 592.688C1533.98 598.954 1534.51 605.22 1535.18 611.486C1535.31 612.125 1535.31 612.892 1535.7 613.532C1536.9 615.578 1540.07 614.811 1542.59 614.427C1545.9 613.788 1549.34 614.427 1552.25 615.961C1555.3 617.624 1557.95 621.076 1556.89 624.273C1555.7 627.598 1551.59 628.749 1548.55 630.539C1545.9 632.074 1543.78 634.376 1543.12 637.189C1542.46 640.002 1543.65 643.327 1546.43 644.606C1548.15 645.501 1550.8 646.012 1550.67 647.93C1550.53 649.976 1547.75 650.232 1545.9 651.255C1544.18 652.278 1543.38 654.452 1544.05 656.115C1544.71 657.905 1546.69 659.056 1548.68 658.8C1550.93 658.544 1552.65 656.626 1554.9 656.626C1558.21 656.626 1559.8 660.207 1560.99 663.148C1562.05 666.089 1564.7 669.542 1567.75 668.391C1568.67 668.135 1569.33 667.368 1570 666.6C1573.57 662.253 1573.44 656.242 1573.31 650.744C1573.17 648.698 1573.17 646.524 1572.38 644.606C1571.58 642.688 1569.86 641.025 1567.75 640.769C1565.63 640.514 1563.51 641.792 1561.52 642.304C1559.4 642.943 1556.62 642.56 1555.96 640.514C1555.7 639.491 1556.09 638.34 1556.89 637.445C1559.8 632.969 1566.55 631.562 1568.14 626.575ZM1543.91 537.062C1538.88 536.167 1532.66 536.934 1531.47 542.433C1530.94 545.118 1531.47 547.931 1532.13 550.617C1532.26 550.872 1532.26 551.256 1532.53 551.512C1532.79 551.768 1533.32 551.768 1533.72 551.768C1534.65 551.768 1535.57 551.64 1536.5 551.384C1539.15 550.745 1541.53 549.082 1542.99 546.908C1543.91 545.502 1544.58 543.967 1546.03 543.072C1550.8 540.131 1549.74 538.213 1543.91 537.062ZM1657.64 397.677C1662.54 396.654 1675.52 400.49 1673.4 390.644C1671.94 383.866 1660.16 379.774 1654.07 380.286C1649.7 380.669 1645.46 383.099 1642.95 386.68C1641.36 389.109 1640.43 391.923 1639.64 394.608C1637.92 400.49 1636.2 406.245 1634.47 412.127C1631.56 421.845 1627.85 432.587 1618.45 437.191C1616.07 438.342 1613.29 439.109 1611.17 440.643C1608.26 442.689 1606.67 445.758 1605.08 448.827C1602.17 454.326 1599.39 459.825 1596.48 465.323C1592.24 473.635 1587.87 483.098 1591.18 491.794C1592.5 494.991 1595.81 498.188 1599.26 497.292C1601.51 496.653 1602.96 494.479 1603.49 492.177C1604.02 489.876 1603.76 487.574 1603.76 485.272C1603.89 480.413 1605.88 475.298 1610.24 472.996C1616.34 469.671 1624.41 473.124 1630.9 470.438C1637.39 467.753 1639.9 460.08 1640.96 453.303C1642.15 446.526 1643.34 438.981 1648.91 434.761C1650.23 433.866 1651.69 433.099 1652.61 431.948C1654.2 430.03 1654.2 427.344 1653.8 425.042C1653.01 419.927 1650.63 415.196 1650.23 410.081C1649.96 404.838 1652.48 398.828 1657.64 397.677ZM1915.03 218.011C1911.45 216.732 1906.95 217.499 1903.51 218.778C1898.87 220.441 1895.7 225.172 1901.79 227.474C1905.1 228.753 1908.8 229.52 1911.58 231.694C1918.47 237.192 1924.69 221.592 1915.03 218.011ZM1844.99 148.83C1846.71 149.086 1848.43 148.319 1850.15 147.679C1854.39 145.889 1871.73 140.262 1858.62 138.472C1855.18 137.961 1851.47 138.216 1848.3 139.751C1845.65 141.03 1837.84 147.679 1844.99 148.83ZM1637.52 116.605C1636.46 117.117 1635.27 118.012 1635.67 119.035C1635.93 119.546 1636.46 119.802 1636.99 120.058C1638.84 120.825 1640.7 121.209 1642.68 121.209C1645.99 121.209 1666.12 120.186 1658.31 113.28C1653.54 108.805 1642.02 114.431 1637.52 116.605ZM1676.31 100.749C1678.3 102.283 1680.68 102.923 1683.2 103.306C1686.64 103.818 1690.35 103.946 1693.52 105.48C1695.38 106.375 1697.1 107.654 1699.22 107.398C1707.29 106.631 1700.54 99.7256 1697.36 97.6796C1691.01 93.7154 1683.06 91.9252 1676.44 96.1451C1675.91 96.5287 1675.25 96.9123 1674.99 97.5517C1674.46 98.8305 1675.25 99.9814 1676.31 100.749ZM1624.28 104.201C1629.71 105.224 1635.27 105.224 1640.83 105.096C1646.12 105.096 1651.42 104.969 1656.58 104.969C1657.78 104.969 1659.1 104.969 1660.16 104.457C1661.88 103.69 1662.81 101.772 1662.94 99.9814C1662.94 98.1911 1662.15 96.4008 1661.09 94.8663C1652.88 83.2296 1634.08 87.3216 1623.62 92.9482C1622.03 93.8433 1620.57 94.7384 1619.51 96.1451C1618.45 97.5517 1618.06 99.342 1618.72 101.004C1619.65 102.923 1622.16 103.818 1624.28 104.201ZM1427.93 69.2911C1433.63 69.2911 1439.45 66.3499 1445.01 68.0123C1448.72 69.0353 1451.5 69.9305 1454.15 66.4778C1455.34 64.9433 1456.27 62.6415 1455.6 60.7234C1454.41 57.2707 1450.31 57.015 1447.13 57.015C1442.36 57.1429 1437.6 58.5495 1433.23 60.3398C1430.45 61.3628 1418.14 69.2911 1427.93 69.2911ZM1385.57 49.5982C1392.85 52.4114 1400.53 54.5853 1408.34 55.992C1410.85 56.3756 1413.5 56.7592 1415.75 58.038C1416.81 58.6774 1417.74 59.4446 1419.06 59.4446C1420.65 59.5725 1421.84 58.2937 1422.9 57.2707C1428.59 50.7491 1430.58 40.0075 1423.43 33.6137C1417.21 28.115 1404.5 25.046 1396.55 26.9641C1394.17 27.4756 1391.79 28.4986 1389.8 30.0331C1386.36 32.7185 1384.51 36.6827 1382.78 40.6468C1381.86 42.8207 1380.8 45.634 1382.26 47.5521C1383.05 48.5752 1384.37 49.2145 1385.57 49.5982ZM873.184 295.632C877.156 301.642 874.111 309.315 872.655 316.22C871.86 319.8 871.595 323.765 873.846 326.706C875.303 328.624 877.421 329.775 879.539 330.798C882.584 332.332 885.894 333.867 889.204 332.972C892.779 331.949 894.765 328.368 896.089 325.043C897.545 321.591 898.737 318.01 898.34 314.43C897.413 305.606 887.351 299.724 885.894 290.9C884.57 283.1 890.528 275.172 888.145 267.627C887.086 264.046 884.041 261.105 880.466 259.954C870.801 256.885 864.843 265.837 861.798 273.381C860.342 277.218 860.077 281.693 862.195 285.274C864.843 289.494 870.404 291.54 873.184 295.632ZM839.423 331.437C841.806 333.099 845.116 331.565 847.234 329.647C848.029 328.88 848.823 327.984 849.353 326.961C850.412 324.532 849.353 321.719 850.412 319.417C851.868 316.22 854.251 316.859 857.164 315.58C860.209 314.302 861.004 312.895 859.68 309.826C858.223 306.245 850.544 298.829 846.572 302.665C844.983 304.327 844.983 308.931 844.321 311.105C843.262 314.557 841.806 317.882 840.085 320.951C839.158 322.614 838.099 324.276 837.834 326.066C837.304 328.24 837.834 330.414 839.423 331.437ZM1159.03 786.932C1153.6 784.246 1150.16 798.057 1146.32 801.382C1140.89 806.113 1132.55 808.031 1129.24 814.809C1125.4 822.481 1130.7 831.305 1131.89 839.745C1133.88 853.939 1123.68 867.749 1125.27 881.944C1125.54 883.734 1125.93 885.652 1127.39 886.931C1129.64 888.849 1133.61 888.338 1135.2 890.895C1136.39 892.685 1135.47 895.243 1136.52 897.161C1137.58 899.335 1140.89 899.974 1143.14 898.951C1145.39 897.928 1146.85 895.626 1147.65 893.325C1149.5 888.082 1149.1 882.455 1148.97 876.957C1148.84 863.53 1151.49 849.975 1156.78 837.571C1160.89 827.98 1165.52 819.284 1164.2 808.543C1163.67 804.195 1163.93 789.361 1159.03 786.932ZM1025.57 451.641C1020.41 451.385 1014.32 452.919 1010.08 455.861C1005.85 458.802 1007.83 462.382 1013.13 461.871C1015.12 461.743 1016.97 461.103 1018.82 460.848C1022.26 460.464 1025.71 461.615 1029.28 461.871C1032.86 462.126 1036.56 461.359 1039.74 459.569C1040.01 459.441 1040.4 459.185 1040.4 458.802C1040.4 458.674 1040.27 458.418 1040.14 458.29C1036.56 454.454 1031.14 451.896 1025.57 451.641ZM941.634 423.124C939.119 419.927 938.721 415.324 940.707 411.743C947.195 400.234 927.732 401.513 930.513 411.999C931.175 414.301 933.293 415.963 934.087 418.265C935.147 421.206 933.823 424.531 935.014 427.472C935.809 429.518 937.795 430.925 939.913 431.692C941.369 432.331 943.355 432.587 944.547 431.436C945.738 430.285 945.606 428.367 944.812 426.961C944.017 425.554 942.693 424.403 941.634 423.124ZM1174.52 402.792C1174.52 401.897 1174.65 401.13 1174.39 400.234C1173.46 397.421 1169.49 397.421 1166.84 396.142C1163.93 394.864 1162.21 391.539 1162.74 388.47C1163.27 385.401 1165.78 383.099 1168.17 381.053C1171.87 378.24 1180.88 370.439 1173.99 365.836C1168.83 362.511 1159.83 371.462 1155.32 373.253C1152.41 374.403 1149.1 375.171 1147.12 377.472C1144.34 380.669 1145.39 385.784 1147.91 389.237C1150.43 392.69 1154 395.375 1156.65 398.7C1163.4 407.523 1162.08 420.055 1156.78 429.774C1155.46 432.203 1153.74 435.017 1154.53 437.702C1155.06 439.365 1156.38 440.643 1157.84 441.666C1161.15 444.096 1165.12 445.886 1169.09 446.781C1171.21 447.293 1173.73 447.421 1175.58 446.398C1177.83 445.119 1178.89 442.434 1179.29 439.876C1181.14 427.472 1173.86 415.324 1174.52 402.792ZM1110.71 391.027C1106.6 385.145 1098.66 381.948 1091.38 383.227C1088.33 383.738 1085.55 384.889 1082.64 385.529C1079.73 386.168 1076.42 386.168 1073.9 384.378C1071.38 382.715 1070.19 379.518 1067.81 377.472C1065.16 375.299 1061.19 374.787 1058.14 376.449C1054.3 378.368 1053.64 382.588 1052.19 386.04C1050.33 390.644 1047.82 394.608 1047.16 399.595C1051.66 403.048 1056.82 406.628 1062.51 406.117C1066.22 405.733 1069.53 403.431 1073.11 402.536C1079.99 400.746 1087.01 403.559 1093.49 406.245C1098.26 408.291 1102.9 410.209 1107.66 412.255C1108.32 412.511 1108.99 412.766 1109.65 412.638C1110.31 412.511 1110.71 411.871 1111.1 411.36C1115.08 405.222 1114.81 396.91 1110.71 391.027ZM1080.12 467.497C1077.61 465.835 1074.3 466.346 1071.38 466.091C1068.34 465.835 1064.9 463.917 1065.29 461.103C1065.56 459.185 1067.41 457.907 1067.94 456.116C1068.47 453.687 1066.49 451.385 1063.97 450.49C1061.59 449.722 1058.94 449.978 1056.42 450.106C1052.58 450.234 1048.61 449.722 1044.9 448.572C1043.05 448.06 1041.33 447.293 1040.01 446.014C1035.77 441.538 1040.54 434.505 1040.27 428.367C1040.01 423.124 1035.11 418.521 1029.68 418.265C1024.25 418.009 1018.95 422.357 1018.29 427.472C1017.9 430.413 1018.69 433.866 1016.57 436.168C1015.64 437.063 1014.45 437.702 1013.13 438.086C1009.95 439.109 1006.11 439.237 1003.46 437.319C999.095 434.249 999.492 428.111 999.36 422.868C998.963 408.93 991.548 396.015 983.472 384.378C982.016 382.332 980.427 380.158 978.308 378.623C975.396 376.577 971.556 376.066 968.114 377.089C966.26 377.6 964.407 378.751 963.745 380.542C962.023 384.378 965.995 388.214 969.438 390.899C978.97 398.444 987.311 408.546 988.768 420.439C990.224 432.331 982.413 445.63 970.232 447.421C966.525 447.932 961.626 446.526 961.361 442.945C961.229 441.027 962.553 439.237 963.877 437.702C965.731 435.528 967.584 433.227 969.57 431.053C970.497 429.902 971.556 428.623 971.689 427.088C971.821 425.426 970.762 423.892 969.703 422.613C963.48 414.557 957.125 406.5 950.24 398.956C946.665 395.119 942.561 391.155 937.265 389.749C928.13 387.319 918.464 393.585 914.625 401.897C913.433 404.454 912.639 407.268 911.05 409.569C908.535 413.15 903.901 415.452 902.577 419.672C901.65 422.357 902.312 425.17 901.915 427.984C901.253 432.203 898.075 435.656 894.5 437.958C890.926 440.132 874.508 442.306 877.951 448.827C881.525 455.605 897.545 447.804 902.312 446.014C914.492 441.283 928.129 438.342 940.84 441.283C947.062 442.817 953.815 447.293 952.888 453.303C952.623 455.093 951.696 456.756 951.432 458.546C950.902 462.766 954.477 466.602 958.581 468.264C962.685 469.927 967.187 470.055 971.556 470.822C979.765 472.357 987.444 476.704 992.872 482.842C995.123 485.4 997.109 488.213 1000.29 489.62C1003.46 490.899 1008.1 489.62 1008.36 486.295C1008.76 482.97 1004.79 480.413 1005.32 477.088C1005.85 473.507 1011.14 472.74 1014.59 474.147C1018.03 475.553 1021.34 478.239 1025.04 477.983C1027.56 477.855 1029.68 476.449 1032.06 475.681C1036.56 474.147 1041.73 474.786 1045.7 477.344C1049.01 479.518 1051.39 482.842 1055.1 484.377C1059.6 486.295 1064.9 485.016 1069.66 483.61C1073.64 482.459 1077.87 481.18 1080.65 478.111C1083.04 475.17 1083.56 469.799 1080.12 467.497ZM1892.25 200.876C1891.86 202.154 1892.52 203.433 1892.92 204.584C1894.37 208.292 1892.92 213.28 1889.08 214.686C1886.03 215.837 1882.46 214.43 1880.07 212.257C1877.69 210.083 1876.1 207.269 1874.11 204.712C1872 201.899 1869.22 199.341 1865.64 198.446C1862.2 197.551 1857.96 198.574 1856.11 201.643C1855.31 203.049 1855.05 204.712 1854.52 206.246C1853.33 209.315 1851.74 211.745 1848.96 213.28C1846.31 214.686 1844.46 217.244 1843.8 220.057C1842.07 227.218 1852.14 224.661 1852.67 229.392C1852.93 231.566 1851.08 233.356 1848.83 233.612C1841.41 234.379 1834.26 236.681 1827.91 240.517C1819.04 245.888 1810.56 254.328 1800.1 253.433C1797.59 253.177 1795.21 252.41 1792.82 252.026C1784.35 250.364 1774.29 253.305 1770.18 260.594C1766.08 267.755 1768.33 276.706 1766.47 284.634C1762.11 303.304 1736.69 313.151 1735.23 332.204C1734.96 335.657 1735.49 339.365 1733.9 342.562C1731.92 346.526 1724.64 348.445 1724.11 341.795C1724.11 341.028 1724.24 340.133 1724.37 339.365C1726.23 330.414 1717.49 323.125 1716.96 314.302C1716.56 307.652 1720.8 301.642 1722.52 295.12C1723.58 291.028 1723.58 286.808 1724.77 282.716C1726.76 275.172 1732.32 269.034 1738.67 264.174C1745.03 259.315 1752.18 255.607 1758.8 251.259C1762.37 248.957 1766.08 244.353 1763.3 241.284C1762.24 240.134 1760.52 239.622 1758.93 239.75C1754.56 240.261 1751.78 244.098 1747.81 245.249C1743.83 246.399 1739.73 244.609 1735.76 243.33C1731.79 242.18 1726.76 241.924 1724.24 245.121C1721.59 248.446 1723.45 253.049 1723.31 257.269C1723.18 262.384 1719.74 267.243 1714.84 269.161C1714.05 269.417 1713.25 269.673 1712.46 269.545C1708.35 269.161 1708.09 263.791 1706.63 260.21C1705.17 256.885 1701.86 254.584 1698.16 254.328C1693.39 253.944 1689.02 257.013 1684.39 258.548C1678.96 260.338 1673.13 259.954 1667.31 260.466C1650.49 261.872 1633.28 271.207 1623.75 284.634C1621.23 288.215 1622.29 293.074 1626.13 295.248C1629.71 297.294 1634.21 296.911 1638.18 295.632C1642.82 294.097 1647.05 291.54 1651.82 290.645C1653.54 290.261 1655.26 290.261 1656.98 290.772C1663.47 292.691 1663.87 299.98 1663.6 305.862C1663.07 317.499 1662.41 329.007 1661.75 340.644C1661.62 342.69 1661.48 344.736 1660.82 346.654C1660.03 348.956 1658.44 351.002 1657.51 353.304C1656.58 355.606 1656.32 358.419 1658.04 360.209C1659.63 361.872 1662.67 362.255 1663.2 365.069C1663.47 366.859 1662.54 368.649 1660.95 369.416C1657.64 371.207 1653.94 369.928 1650.76 368.649C1649.57 368.138 1648.11 367.626 1647.32 366.603C1646.65 365.708 1646.39 364.685 1646.39 363.662C1645.99 359.314 1647.71 355.222 1648.38 350.874C1649.04 346.654 1648.11 341.539 1644.27 339.365C1643.34 338.854 1642.02 338.47 1641.23 339.11C1640.83 339.365 1640.56 339.877 1640.3 340.261C1637.65 345.12 1639.37 351.386 1636.72 356.117C1635.53 358.419 1633.41 360.081 1631.96 362.127C1630.63 364.045 1629.84 366.219 1628.91 368.393C1625.6 376.066 1620.57 383.099 1614.48 389.109C1611.83 391.667 1606.8 394.608 1603.36 395.887C1595.15 398.956 1588 404.326 1582.97 411.36C1579.93 415.707 1577.54 421.078 1579 426.065C1580.06 429.774 1583.1 432.587 1584.56 436.168C1585.88 439.237 1586.15 442.817 1586.28 446.142C1586.55 452.28 1586.68 459.057 1582.44 463.661C1579.93 466.474 1575.56 468.265 1572.11 464.684C1571.45 464.045 1570.92 463.149 1570.53 462.254C1569.2 458.802 1570 455.221 1570.79 451.768C1571.85 446.27 1572.64 440.388 1570.66 435.017C1568.67 429.646 1563.38 425.17 1557.55 425.682C1554.9 425.938 1552.65 427.088 1550.14 427.856C1547.62 428.623 1544.71 428.751 1542.72 427.344C1540.6 425.81 1539.94 423.124 1538.09 421.462C1530.67 414.812 1514.79 421.462 1525.91 430.541C1529.61 433.482 1533.59 436.04 1537.96 438.086C1539.68 438.853 1541.4 439.62 1542.72 440.899C1544.05 442.178 1544.71 444.352 1543.78 445.886C1543.25 446.653 1542.46 447.293 1541.8 447.804C1535.7 452.792 1533.85 461.359 1534.91 469.16C1535.97 476.832 1539.54 483.993 1542.32 491.282C1543.78 495.118 1545.11 499.211 1544.31 503.175C1543.12 509.057 1537.56 513.021 1532.79 516.985C1523.26 524.914 1515.18 534.504 1509.49 545.374C1507.11 549.849 1504.72 554.837 1500.22 557.266C1494.26 560.335 1478.64 560.591 1487.64 570.31C1488.84 571.716 1490.16 573.251 1490.16 575.041C1490.29 577.982 1487.11 580.156 1484.73 581.435C1483.94 581.818 1483.01 582.202 1482.08 582.074C1476.66 581.691 1478.64 571.461 1471.23 571.844C1468.84 571.972 1466.59 573.251 1465.53 575.169C1463.68 578.366 1464.61 582.458 1466.59 585.527C1468.71 588.596 1471.76 590.77 1474.67 593.072C1477.58 595.373 1480.63 597.803 1482.35 601.128C1484.6 605.476 1484.2 610.846 1482.48 615.45C1480.76 620.053 1477.71 624.018 1474.67 627.982C1471.36 632.33 1468.05 636.677 1464.74 641.153C1463.42 642.815 1462.09 644.606 1460.11 645.373C1459.31 645.629 1458.52 645.757 1457.59 645.629C1454.68 645.245 1454.68 642.943 1453.62 641.281C1451.9 638.468 1447.53 637.956 1445.67 635.143C1444.35 633.097 1444.88 630.411 1444.88 627.982C1444.88 624.401 1443.69 620.693 1440.64 618.647C1438.92 617.496 1436.8 617.24 1434.82 617.752C1431.77 618.519 1430.85 620.949 1430.32 623.378C1427.8 634.248 1431.24 646.268 1439.05 654.452C1440.25 655.731 1441.7 657.01 1442.1 658.672C1442.5 660.079 1442.1 661.485 1441.97 662.892C1441.3 668.391 1443.03 674.145 1446.73 678.493C1449.25 681.434 1452.82 684.759 1451.37 688.339C1450.18 691.153 1446.73 692.303 1443.82 691.025C1438.66 688.723 1437.47 683.48 1436.01 678.749C1432.96 669.03 1427.54 660.079 1420.25 652.662C1416.55 648.953 1412.31 645.501 1411.12 640.514C1410.19 636.422 1411.65 632.202 1412.84 628.11C1414.83 621.716 1416.15 615.066 1416.81 608.417C1416.94 606.626 1416.81 604.708 1416.02 603.046C1413.1 596.396 1405.95 597.931 1400.13 596.652C1394.3 595.373 1389.4 590.642 1388.08 584.888C1387.02 580.028 1388.35 574.913 1388.08 569.926C1387.82 563.021 1384.37 556.243 1378.95 551.896C1378.15 551.256 1376.3 549.338 1375.9 550.233C1370.34 551 1366.63 556.243 1364.51 561.23C1362.4 566.218 1360.94 571.844 1356.97 575.68C1351.94 580.54 1344.12 581.307 1338.03 584.76C1333.53 587.445 1330.09 591.537 1327.18 596.013C1319.63 607.777 1316.32 621.972 1317.91 635.782C1318.17 638.595 1318.7 641.537 1318.04 644.35C1317.25 647.035 1315.39 649.337 1313.54 651.383C1312.22 652.79 1310.89 654.196 1309.04 654.708C1307.98 654.964 1306.79 654.964 1305.73 654.324C1304.01 653.429 1304.01 652.022 1304.01 650.616C1303.08 631.051 1283.62 615.706 1282.69 596.141C1282.29 588.98 1287.72 583.097 1287.06 576.064C1286.27 566.857 1271.7 563.532 1270.78 554.453C1270.64 553.174 1270.78 551.896 1270.25 550.872C1269.72 549.594 1268.53 548.699 1267.2 547.931C1262.57 545.502 1256.61 545.502 1252.77 541.921C1248.93 538.213 1248.53 531.691 1243.77 529.006C1241.65 527.855 1239 527.727 1236.62 527.727C1231.32 527.727 1226.16 528.238 1220.99 529.006C1217.29 529.645 1213.58 530.412 1209.87 530.157C1206.17 529.901 1202.33 528.494 1200.21 525.553C1198.75 523.507 1198.22 520.822 1196.24 519.159C1192.4 515.962 1186.44 518.52 1181.41 517.753C1175.58 516.73 1171.61 510.975 1168.96 506.372C1167.64 504.07 1166.05 502.024 1164.06 500.234C1160.22 496.781 1155.99 495.246 1152.28 498.699C1148.44 499.338 1147.12 504.709 1149.1 508.034C1151.09 511.359 1154.8 513.149 1158.24 515.195C1161.68 517.241 1165.12 519.799 1165.65 523.635C1166.05 526.32 1164.86 529.006 1164.46 531.691C1163.8 535.016 1164.59 539.108 1168.83 539.492C1170.55 539.619 1172.27 538.98 1173.6 537.829C1176.51 535.272 1179.02 531.691 1182.73 530.029C1185.38 528.75 1188.95 528.75 1191.07 530.668C1192.13 531.563 1192.66 532.842 1193.46 533.993C1196.1 538.085 1200.34 540.898 1204.18 544.223C1207.89 547.42 1211.46 551.64 1211.59 556.371C1211.73 559.44 1210.27 562.381 1208.68 565.067C1202.72 574.657 1192.66 581.179 1182.47 586.422C1172.27 591.665 1161.55 596.141 1152.28 602.918C1146.32 607.266 1140.89 612.637 1132.95 613.02C1129.64 613.148 1126.2 611.869 1124.21 609.312C1119.58 603.685 1124.61 597.292 1123.81 591.153C1122.89 583.865 1114.55 580.028 1109.12 574.913C1100.78 566.857 1099.06 554.453 1099.45 543.2C1099.85 535.911 1100.64 527.855 1096.14 521.972C1093.76 518.776 1090.05 516.73 1086.35 515.067C1082.9 513.533 1078.53 512.51 1076.02 515.962C1074.96 517.497 1074.69 519.287 1075.09 521.077C1076.55 527.599 1080.78 532.842 1084.09 538.469C1088.33 545.757 1091.24 553.814 1094.02 561.742C1098.39 574.274 1104.09 587.573 1108.85 599.977C1110.04 603.302 1111.37 606.499 1113.22 609.44C1115.21 612.381 1117.86 614.938 1121.17 616.089C1123.15 616.857 1125.4 616.984 1127.39 617.752C1129.37 618.391 1131.49 619.798 1132.02 621.716C1132.42 622.867 1132.16 624.018 1132.29 625.169C1132.42 626.447 1133.48 627.854 1134.67 628.493C1138.64 630.539 1143.28 630.284 1147.65 629.261C1151.88 628.365 1155.85 626.703 1160.22 625.936C1163 625.424 1166.31 625.424 1167.64 629.133C1168.17 630.539 1168.17 631.946 1167.9 633.48C1163.67 653.173 1159.43 673.889 1146.98 690.13C1142.88 695.5 1137.98 700.232 1133.74 705.475C1130.17 710.078 1127.12 714.938 1124.08 719.925C1120.24 726.063 1115.47 730.794 1113.22 737.699C1106.34 758.415 1105.94 781.177 1112.3 802.149C1113.22 805.218 1113.35 808.543 1112.56 811.612C1111.24 816.727 1108.32 819.284 1103.95 822.609C1093.76 830.41 1089.66 843.453 1088.33 855.857C1088.07 858.287 1087.93 860.844 1086.74 863.018C1085.68 865.064 1083.83 866.727 1082.11 868.389C1073.11 877.596 1069.66 890.639 1065.82 902.787C1061.98 914.936 1056.82 927.723 1045.83 934.757C1040.14 938.337 1033.12 940.255 1028.22 944.859C1023.46 949.334 1021.34 955.984 1015.12 959.309C1012.86 960.588 1010.08 960.971 1007.7 960.076C1002.01 958.03 1002.01 951.508 1000.55 946.393C998.565 938.849 992.872 932.711 989.959 925.549C986.252 916.47 987.312 906.24 986.252 896.522C983.472 873.376 968.114 853.555 960.17 831.433C958.581 827.085 957.389 822.609 957.257 818.006C957.125 804.323 968.908 792.686 968.908 779.131C968.908 771.842 967.849 764.426 964.407 758.032C962.288 754.068 959.243 750.487 956.463 747.034C949.181 737.955 942.429 727.597 942.296 716.088C942.164 710.59 943.62 705.219 944.017 699.72C944.547 694.222 945.209 687.444 941.237 683.608C938.324 680.795 934.22 678.876 930.115 678.365C925.879 677.853 920.715 678.621 917.935 675.424C915.154 672.355 915.816 666.6 911.58 665.066C910.388 664.682 909.064 664.81 908.005 665.194C905.489 666.217 903.901 668.263 902.444 670.309C899.531 674.273 895.824 678.749 890.793 678.621C888.145 678.493 885.762 677.086 883.246 676.319C877.686 674.529 871.595 675.935 865.638 675.552C861.136 675.296 856.767 673.889 852.398 672.483C848.558 671.204 844.586 669.797 841.276 667.368C836.775 664.171 833.73 659.567 830.155 655.603C827.904 653.173 825.918 650.488 824.197 647.803C819.431 640.13 811.884 634.887 805.661 628.365C800.233 622.611 795.731 615.194 796.79 607.394C797.32 603.813 798.909 600.361 800.1 596.908C802.484 590.13 803.146 582.969 803.808 575.808C804.337 570.054 804.867 564.172 804.072 558.417C803.013 550.233 799.438 541.665 803.013 534.121C807.382 525.042 819.695 522.868 827.242 515.962C832.538 511.103 835.054 504.07 836.378 497.037C837.702 490.131 837.834 482.97 839.29 476.065C840.085 472.612 841.276 469.032 843.792 466.602C846.307 464.172 850.279 463.533 853.589 462.126C859.018 459.953 859.15 452.536 853.854 449.978C850.412 448.316 846.307 447.549 843.924 444.735C841.541 441.794 841.806 437.574 842.997 433.994C844.189 430.413 846.175 427.088 846.705 423.38C847.499 418.393 845.778 413.534 844.057 408.802C842.071 402.92 840.085 396.654 843.13 390.772C844.586 387.83 847.631 385.657 851.074 385.529C857.429 385.273 860.474 391.539 864.578 395.503C867.359 398.188 871.066 399.979 874.905 400.618C877.951 401.13 881.525 400.618 883.379 398.316C884.703 396.654 884.835 394.352 884.835 392.306L885.63 366.987C885.762 364.046 883.379 360.976 880.334 360.337C876.229 359.314 872.257 357.524 868.947 354.966C868.153 354.455 867.491 353.688 867.226 352.792C866.962 351.386 868.021 350.107 869.212 349.212C875.038 344.608 882.585 342.946 889.734 340.644C896.883 338.342 904.165 334.762 907.343 328.112C909.991 322.358 909.197 314.685 914.228 310.465C917.273 308.036 921.377 307.652 925.217 307.013C929.056 306.373 933.293 304.967 935.014 301.514C936.338 298.829 935.676 295.76 935.411 292.819C934.882 287.576 935.411 281.821 939.648 278.113C942.164 275.939 945.871 275.044 948.916 276.45C953.682 278.624 954.212 284.251 953.682 288.982C953.153 294.353 951.961 300.491 957.257 304.327C958.316 305.095 959.375 305.606 960.699 305.99C965.731 307.396 970.762 305.99 975.263 303.816C978.706 302.153 982.148 299.98 986.12 299.468C992.343 298.701 999.624 301.77 1004.39 297.934C1008.36 294.737 1007.7 288.854 1006.91 283.867C1006.11 278.88 1005.71 272.998 1009.95 270.057C1013.26 267.755 1018.95 267.883 1020.28 264.174C1020.94 262.256 1020.15 260.082 1021.07 258.164C1022.13 255.99 1024.91 255.479 1026.9 254.2C1029.02 252.921 1029.02 250.364 1026.77 249.469C1022.93 251.387 1018.16 251.515 1014.06 250.108C1015.78 248.19 1014.59 245.121 1012.73 243.203C1011.01 241.284 1008.63 239.878 1007.44 237.704C1005.32 233.612 1007.97 228.88 1010.61 225.172C1014.19 219.929 1017.76 214.686 1021.21 209.443C1023.46 206.246 1025.57 201.643 1022.93 198.83C1018.03 198.318 1013.79 202.538 1011.67 206.886C1009.55 211.234 1008.63 216.221 1005.71 220.057C1002.54 224.277 997.506 226.834 993.269 229.903C988.9 233.1 984.928 237.704 985.59 242.947C985.988 246.144 988.106 249.085 988.635 252.282C989.033 254.711 988.503 257.141 987.973 259.571C985.193 271.847 981.221 285.657 969.57 291.284C968.114 292.051 966.393 292.563 964.671 291.028C963.215 289.622 962.685 287.448 963.347 285.402C965.201 279.136 965.731 271.719 961.626 266.092C960.435 264.43 958.713 263.023 956.727 262C949.843 258.676 945.341 262.768 940.31 265.325C937 266.988 932.631 267.627 929.851 265.197C928.659 264.174 927.997 262.768 927.467 261.361C926.011 258.164 924.687 254.967 923.231 251.77C920.848 246.272 918.332 240.261 919.788 234.507C921.245 228.753 926.408 224.533 931.704 221.592C937 218.65 942.826 216.349 947.46 212.512C953.153 207.781 956.595 200.876 961.494 195.377C965.995 190.262 971.688 186.17 975.396 180.543C978.706 175.684 980.294 169.93 984.531 165.838C990.357 160.083 999.36 159.316 1007.17 156.503C1019.88 152.027 1031.14 142.053 1044.77 142.308C1052.98 142.564 1060.92 146.912 1065.29 153.689C1067.02 156.375 1068.34 159.572 1070.99 161.362C1076.81 165.454 1085.29 160.978 1092.3 162.513C1096.67 163.536 1100.11 166.605 1103.95 168.779C1110.97 172.615 1119.31 172.743 1127.52 171.976C1132.55 171.464 1137.58 172.871 1141.82 175.684C1144.07 177.219 1146.59 178.242 1149.1 178.497C1161.02 179.648 1173.33 177.858 1184.32 173.382C1191.2 170.569 1197.82 166.605 1205.24 165.198C1217.29 163.024 1230.92 167.884 1241.52 161.873C1246.02 159.188 1249.2 154.968 1253.03 151.388C1258.2 146.4 1265.88 142.564 1272.89 148.702C1275.54 151.004 1277.13 154.073 1277.79 157.398C1279.91 167.5 1280.18 177.858 1278.72 188.088C1286 190.006 1293.68 184.763 1296.33 177.986C1298.98 171.208 1297.65 163.536 1294.74 156.758C1292.49 151.388 1289.44 146.273 1289.31 140.39C1289.31 137.961 1289.71 135.659 1291.03 133.613C1297.12 123.766 1312.75 130.927 1319.37 123.127C1321.62 120.569 1322.15 116.989 1324.26 114.431C1327.57 110.467 1333.53 110.084 1338.7 109.188C1358.56 105.48 1374.18 89.4955 1394.17 85.915C1407.81 83.4853 1425.02 92.4367 1436.41 84.6362C1441.97 80.7999 1448.32 76.8358 1455.07 77.3473C1459.97 77.7309 1464.34 80.4163 1469.11 81.6951C1476.26 83.6132 1484.2 82.0787 1491.09 85.7871C1493.73 87.3216 1495.85 89.6234 1496.52 92.5645C1498.5 101.26 1486.06 103.818 1486.06 111.107C1486.06 116.605 1493.6 119.163 1499.16 118.14C1504.72 117.117 1510.28 114.303 1515.98 115.326C1524.58 116.989 1530.94 127.347 1539.54 125.557C1544.31 124.534 1547.22 120.186 1551.06 117.372C1558.61 112.002 1570.39 113.536 1576.09 120.697C1579.53 125.045 1580.72 130.799 1583.63 135.531C1586.55 140.262 1592.9 144.099 1597.8 141.413C1599.26 140.646 1600.45 139.367 1601.9 138.6C1607.73 135.403 1614.88 141.03 1621.63 140.134C1626.27 139.495 1629.84 136.042 1633.94 133.996C1636.99 132.462 1640.56 131.822 1643.87 131.055C1655 128.881 1667.18 126.707 1677.24 131.822C1685.45 135.915 1691.27 144.738 1700.01 147.296C1703.98 146.912 1707.95 146.528 1711.93 146.145C1717.09 145.633 1722.52 145.122 1727.55 146.656C1733.11 148.446 1737.61 152.538 1743.17 154.712C1749.93 157.398 1757.6 156.886 1764.89 155.863C1773.09 154.584 1782.76 153.178 1788.45 159.06C1789.64 160.339 1790.57 161.873 1791.9 163.152C1794.01 165.198 1797.19 166.093 1800.24 165.71C1800.77 165.582 1801.16 165.582 1801.56 165.198C1802.75 164.175 1801.83 162.513 1801.69 160.978C1801.3 157.653 1805.53 155.607 1808.97 155.224C1817.18 154.457 1825.26 157.526 1832.81 160.723C1849.62 168.011 1866.04 176.835 1884.04 180.671C1888.81 181.694 1894.11 182.589 1897.68 185.786C1901.26 188.983 1901.92 195.761 1897.55 198.062C1895.43 198.702 1892.92 198.957 1892.25 200.876ZM598.061 1087.95C593.559 1084.88 585.88 1082.45 580.187 1082.2C577.274 1082.07 574.229 1083.09 571.581 1084.37C567.212 1086.42 566.815 1088.46 571.581 1090.64C573.038 1091.28 574.626 1091.53 576.215 1091.79C580.187 1092.3 584.159 1092.81 588.131 1093.32C589.985 1093.58 591.971 1093.83 593.824 1093.32C595.81 1092.81 597.664 1091.4 598.59 1089.74C598.723 1089.36 598.855 1088.98 598.855 1088.72C598.723 1088.46 598.458 1088.21 598.061 1087.95ZM489.097 582.841C486.846 581.563 484.86 579.517 482.212 579.005C477.976 578.11 469.635 584.12 476.122 586.806C480.226 588.468 484.993 588.724 488.965 590.642C489.892 591.026 490.686 591.665 491.745 591.921C492.672 592.176 493.863 592.176 494.658 591.665C495.32 591.281 495.717 590.642 496.114 590.13C496.644 589.619 497.438 589.235 497.571 588.468C497.835 587.573 497.041 586.806 496.247 586.294C494.128 584.76 491.348 584.12 489.097 582.841ZM538.614 588.468C539.011 589.107 539.806 589.363 540.468 589.491C543.91 590.003 547.485 587.957 548.676 584.76C549.868 581.563 548.544 577.726 545.631 575.936C542.983 574.274 539.541 574.402 536.76 573.251C531.729 571.333 528.817 565.962 523.918 563.532C520.74 561.998 516.901 561.742 513.326 561.486C498.1 560.207 483.139 555.22 470.297 547.292C467.781 545.757 465.265 543.967 462.353 543.2C453.482 540.642 444.744 543.584 442.096 552.535C441.963 553.046 441.831 553.558 441.963 554.197C442.228 555.476 443.685 556.243 445.009 556.115C446.333 556.115 447.656 555.476 448.848 555.092C455.998 552.663 463.677 555.476 470.694 558.289C471.753 558.673 472.945 559.184 473.739 559.952C475.592 561.614 475.99 564.299 477.181 566.473C479.564 570.821 486.184 572.484 490.421 569.67C491.215 569.159 491.878 568.519 492.804 568.136C493.863 567.624 495.055 567.624 496.247 567.624C497.835 567.624 499.557 567.88 501.145 568.264C502.602 568.647 504.323 569.287 504.588 570.821C504.985 573.379 500.748 574.402 499.954 576.959C499.557 578.366 500.219 579.9 501.41 580.795C502.602 581.691 504.058 582.202 505.382 582.586C509.619 583.865 513.723 585.143 517.96 586.55C519.549 587.061 521.005 587.573 522.594 587.317C524.183 587.061 525.771 586.038 526.036 584.504C526.169 583.609 525.904 582.714 526.301 581.946C526.831 581.051 528.155 581.051 529.214 581.051C531.2 581.179 533.186 581.179 535.039 581.946C536.893 582.714 538.349 584.376 538.349 586.294C538.349 586.934 538.217 587.701 538.614 588.468ZM394.432 122.232C397.08 122.743 399.861 122.743 402.376 123.894C404.23 124.789 406.083 126.452 408.202 126.196C410.055 126.068 411.512 124.534 412.439 122.999C412.968 121.976 413.498 120.953 413.498 119.93C413.763 109.956 399.596 112.769 394.168 115.326C393.241 115.71 392.182 116.349 391.52 117.117C390.858 117.884 390.46 119.035 390.725 120.058C391.255 121.337 392.976 121.976 394.432 122.232ZM394.697 96.9123C391.387 95.2499 381.193 98.8305 383.576 103.306C384.238 104.585 386.091 104.841 387.548 104.969C389.137 105.096 390.725 105.224 392.314 105.352C397.875 105.736 399.464 99.342 394.697 96.9123ZM346.504 90.5185C345.842 91.9252 346.637 93.5875 347.563 94.8663C348.49 96.1451 349.549 97.5517 349.549 99.0862C349.549 99.5977 349.417 100.109 349.417 100.621C349.549 101.899 350.741 102.795 352.065 103.178C355.375 104.201 359.082 102.923 362.26 103.946C362.922 104.201 363.584 104.457 364.378 104.585C366.496 104.969 368.482 103.69 369.674 101.899C371.66 98.7026 372.454 95.1221 369.144 93.076C366.496 91.4137 364.246 89.6234 361.73 87.8331C357.891 84.7641 348.755 85.4035 346.504 90.5185ZM376.559 72.1044C379.074 74.534 381.325 77.9867 380.133 81.5672C379.736 82.5902 379.074 83.7411 379.339 84.892C379.736 86.5544 381.855 87.1937 383.576 87.3216C387.018 87.5774 390.593 87.4495 393.903 88.2167C401.052 89.7513 407.01 95.5057 408.731 102.283C409.129 103.69 409.261 105.224 410.188 106.375C411.909 108.805 415.616 108.933 418.794 108.805C427.135 108.421 435.608 107.91 443.949 107.526C448.186 107.27 452.688 107.015 456.527 105.096C457.586 104.585 458.778 103.69 458.91 102.539C459.175 101.132 457.984 99.8535 456.66 98.9583C451.364 95.3778 444.479 95.2499 437.991 96.0172C431.636 96.7844 425.149 98.1911 418.794 97.4238C416.013 97.0402 413.233 96.2729 411.115 94.4827C406.481 90.5185 406.216 83.1017 401.317 79.3933C396.816 76.0685 390.196 77.2194 385.959 73.7667C382.119 70.6977 384.238 65.9663 378.545 64.9433C376.691 64.5597 370.733 64.6875 370.601 67.3729C370.866 69.0353 375.367 70.9535 376.559 72.1044ZM700.272 731.689C689.283 726.191 676.573 724.784 664.657 721.076C652.874 717.495 640.825 710.462 636.986 699.081C635.53 694.733 635.794 688.595 632.749 685.142C629.439 681.178 623.084 680.667 619.774 676.831C616.994 673.506 617.126 668.263 613.949 665.194C609.447 660.846 602.033 663.148 595.678 662.764C590.911 662.508 586.145 660.334 582.835 656.882C581.114 655.091 579.79 652.918 577.672 651.383C575.156 649.593 571.714 648.698 569.992 646.14C566.153 640.386 574.891 631.946 569.728 626.447C568.668 625.424 567.344 624.657 565.888 624.401C559.268 623.122 553.84 628.365 547.485 628.238C539.011 628.11 533.186 618.775 524.845 617.88C520.475 617.496 516.106 619.542 512.532 622.099C508.957 624.657 505.779 627.854 502.072 630.156C494.393 634.759 484.728 635.399 475.593 635.271C470.164 635.271 464.339 635.015 459.44 637.445C456.395 632.202 456.395 625.424 459.572 620.181C462.75 614.938 460.102 606.371 455.203 602.534C447.789 596.652 434.284 600.744 429.386 591.665C428.591 590.13 428.194 588.34 428.194 586.55C428.194 580.923 431.107 576.32 433.622 571.461C434.019 570.693 434.152 569.926 434.019 569.159C433.49 566.857 430.577 567.113 428.724 565.834C425.943 563.916 427.135 559.824 426.87 556.627C426.605 553.302 424.222 550.233 420.912 549.082C417.734 547.931 413.763 548.571 411.247 550.872C407.275 554.325 407.143 560.335 404.362 564.683C400.523 570.438 391.387 572.1 385.694 568.008C377.353 562.126 374.308 551.128 374.44 541.154C374.573 529.261 378.28 517.369 384.9 507.267C388.21 502.024 393.506 496.781 399.728 497.548C404.097 498.06 407.805 501.257 412.174 501.384C417.47 501.384 421.309 496.909 425.943 494.479C431.636 491.538 438.786 491.794 444.876 493.712C447.127 494.479 449.51 495.374 451.099 497.292C453.217 499.85 453.35 503.43 453.085 506.755C452.29 513.277 449.907 519.926 452.29 526.448C453.482 529.645 455.865 532.203 459.175 533.226C466.06 535.272 469.37 528.238 475.46 527.855C476.652 527.727 477.976 528.111 479.035 528.75C483.007 531.691 478.77 537.573 481.683 540.515C483.007 541.793 485.125 541.793 486.846 540.77C488.965 539.492 489.892 537.062 490.553 534.76C492.142 529.006 492.937 522.995 492.539 517.113C492.539 516.218 492.407 515.323 492.01 514.556C490.024 509.696 484.596 510.464 480.359 511.615C476.254 512.765 471.091 513.533 468.973 509.313C468.178 507.65 468.046 505.732 468.575 503.942L473.342 487.574C474.666 482.97 477.181 478.622 480.756 475.298C484.728 471.461 489.23 467.881 491.348 462.894C492.275 460.848 492.672 458.546 493.069 456.372C494.261 449.85 495.452 443.201 496.776 436.679C497.703 431.948 498.497 427.216 500.748 422.868C502.999 418.521 506.706 414.812 511.472 413.534C517.166 411.999 524.712 413.661 526.433 406.372C526.963 404.326 526.698 402.28 526.169 400.234C524.05 392.05 530.008 384.378 537.29 380.542C540.07 379.135 543.38 378.112 546.426 379.391C548.014 380.03 549.206 381.437 549.471 383.099C549.868 385.912 547.352 387.703 545.499 389.493C543.91 391.155 542.718 393.713 544.042 395.375C544.837 396.27 546.028 396.654 547.088 396.782C549.603 397.165 552.251 396.782 554.634 395.759C562.049 392.562 566.02 385.657 571.846 380.925C575.818 377.728 581.114 374.403 580.584 369.544C580.319 366.987 578.201 364.429 579.128 362C580.187 359.314 584.159 358.675 586.542 358.035C588.661 357.524 590.779 357.14 593.03 357.396C597.002 357.78 599.12 359.186 600.444 361.232C603.357 365.708 609.712 366.987 613.684 363.406C614.611 362.639 615.273 361.744 615.802 360.849C617.921 356.757 617.656 351.514 615.14 347.677C613.154 344.608 609.977 342.562 606.799 340.644L598.855 335.529C597.134 334.506 595.413 333.227 594.883 331.309C594.618 330.03 594.883 328.752 595.28 327.473C596.737 322.869 598.723 318.394 601.106 314.174C601.9 312.895 602.695 311.616 602.562 310.21C602.43 308.547 600.974 307.013 600.312 305.606C599.914 304.583 599.252 303.688 598.458 302.921C596.869 301.642 595.545 299.084 593.294 298.189C591.176 297.294 588.793 297.934 586.542 298.445C581.246 299.852 575.553 300.619 570.125 299.852C568.536 299.596 566.947 299.212 565.888 298.189C563.637 296.271 563.902 292.819 565.226 290.261C566.682 287.703 568.933 285.913 571.052 283.739C573.038 281.693 574.891 279.008 574.626 276.195C574.229 270.312 565.888 267.115 565.888 261.233C565.888 259.699 566.55 258.164 566.55 256.502C566.418 252.665 562.711 249.724 558.739 248.957C556.091 248.446 553.178 249.213 551.457 251.259C548.676 254.456 548.411 259.315 545.499 262.384C542.586 265.581 537.025 265.965 533.451 263.407C529.876 260.849 528.949 255.607 531.2 251.898C531.729 251.003 532.524 250.236 532.789 249.341C533.848 246.272 530.67 243.33 527.36 242.563C524.05 241.924 520.74 242.563 517.43 242.052C508.162 240.645 502.734 229.903 493.466 228.113C486.846 226.707 479.962 230.415 474.401 233.484C472.415 234.635 471.223 236.937 471.885 239.111C473.077 243.33 478.902 241.796 481.55 244.481C484.993 247.934 480.226 253.688 476.917 256.118C474.666 257.78 473.474 260.338 473.871 263.023C474.401 266.348 477.181 266.732 479.564 267.627C486.979 270.44 490.289 280.287 486.052 286.808C482.742 291.923 475.328 296.015 476.917 302.026C477.711 305.223 480.888 307.141 482.874 309.698C488.17 316.859 482.345 329.391 472.15 328.112C464.339 327.217 459.308 320.056 461.426 312.767C463.279 306.885 468.443 301.77 467.913 294.992C467.649 292.179 465.927 289.622 463.279 288.599C459.308 287.064 456.792 290.005 453.614 291.028C445.935 293.458 439.977 284.634 432.828 280.926C428.724 278.752 423.825 278.241 419.323 276.706C414.822 275.172 410.453 271.847 410.055 267.371C409.923 266.22 410.188 264.942 409.923 263.791C408.731 258.292 399.728 258.931 395.889 254.711C392.579 250.875 394.697 244.993 397.345 240.773C403.171 231.182 410.453 222.487 418.926 214.942C420.912 213.28 423.03 211.617 425.546 211.106C427.267 210.85 428.988 211.234 430.312 212.384C434.417 215.709 427.797 219.546 436.403 222.615C437.594 222.998 438.918 223.126 440.11 222.615C444.214 220.952 443.023 215.07 446.862 213.663C448.98 212.896 451.364 214.047 452.29 216.093C454.012 219.929 451.893 223.382 449.775 226.579C454.012 227.73 458.248 224.916 461.161 221.719C464.471 218.267 467.384 214.047 467.251 209.06C467.251 206.886 466.457 204.84 465.133 203.177C461.558 198.957 456.13 200.108 451.231 199.853C447.259 199.597 442.493 197.423 442.493 193.587C442.493 190.006 446.465 187.832 450.172 187.065C453.747 186.298 457.851 186.042 460.499 183.484C464.206 179.776 462.75 173.766 463.279 168.651C464.074 160.339 472.15 152.538 481.418 155.224C484.596 156.119 487.376 158.421 488.7 161.362C492.275 169.034 484.728 173.766 484.993 180.799C485.125 182.973 486.317 185.147 488.303 186.042C494.923 188.983 500.748 176.196 508.824 179.904C512.532 181.566 514.12 186.042 512.664 189.75C509.619 197.679 501.145 199.341 493.466 200.62C489.627 201.259 485.39 202.154 483.272 205.607C482.212 207.269 482.212 209.571 483.536 211.106C485.125 213.024 487.244 212.896 489.097 212.512C493.201 211.745 497.306 210.466 501.543 210.211C505.779 210.083 510.413 211.234 512.796 214.686C514.253 216.732 514.65 219.29 515.577 221.592C517.563 226.451 522.726 230.415 528.287 229.903C535.966 229.264 540.07 221.208 542.321 214.047C544.572 206.886 547.088 198.83 554.105 196.016C558.341 194.354 563.637 194.865 566.153 190.518C567.742 187.704 567.212 184.252 565.358 181.694C560.857 175.684 553.443 174.917 547.088 172.231C542.056 170.185 537.025 165.965 537.29 160.723C537.422 159.06 537.952 157.526 537.952 155.863C537.952 151.132 533.186 147.807 528.817 145.889C515.709 139.879 500.748 138.216 487.906 131.695C486.979 131.311 486.184 130.672 485.655 129.904C483.934 127.603 485.522 125.94 486.317 124.15C488.038 119.546 483.139 114.687 478.108 114.048C473.077 113.408 468.046 115.454 463.147 116.861C456.262 118.779 448.848 119.419 441.699 118.651C435.608 118.012 429.253 116.349 423.56 121.209C419.191 124.917 416.94 130.288 417.47 135.787C418.264 143.587 424.09 150.237 431.239 153.817C434.814 155.607 438.918 156.886 440.639 160.339C443.817 166.477 436.8 173.766 432.166 177.346C430.71 178.497 428.724 179.009 426.87 178.625C422.766 177.602 423.163 173.51 421.177 170.697C417.867 165.965 409.129 166.861 406.348 161.745C402.906 155.224 413.63 147.04 404.627 140.39C401.847 138.344 398.537 137.321 395.094 137.321C388.739 137.321 378.412 134.636 378.677 127.73C378.809 124.406 381.722 120.953 379.736 117.884C378.545 115.838 375.897 115.199 373.514 115.838C367.688 117.5 365.702 123.511 360.671 126.068C357.096 127.858 352.065 127.73 350.211 131.439C349.02 133.741 349.814 136.554 351.8 138.344C355.507 141.669 360.538 141.413 365.172 141.03C369.806 140.646 374.705 140.007 378.677 143.203C380.663 144.738 381.722 147.423 380.928 149.853C379.339 154.329 373.249 154.329 369.277 156.758C363.451 160.339 364.113 170.825 371.263 172.871C372.322 173.254 373.381 174.022 373.646 175.045C374.308 177.346 372.454 178.114 370.866 178.497C366.232 179.904 361.465 181.311 356.567 181.183C351.668 181.055 346.637 179.009 344.121 174.917C343.327 173.638 342.797 172.103 341.606 170.953C338.825 168.267 334.059 169.674 330.749 171.72C327.439 173.766 324.129 176.579 320.289 176.323C318.303 176.196 316.45 175.3 314.464 174.789C309.565 173.766 304.534 175.94 299.768 177.346C295.001 178.753 288.911 179.137 285.601 175.428C287.19 170.697 292.618 168.395 297.649 167.628C302.68 166.861 308.109 166.988 312.743 164.942C314.729 164.047 316.582 162.641 318.701 161.745C324.526 159.444 331.014 161.49 337.104 162.257C343.327 163.152 351.006 161.745 353.124 156.119C354.581 152.411 352.859 148.191 349.947 145.505C347.034 142.82 342.268 141.797 338.958 139.623C336.045 137.705 334.721 134.252 334.456 130.927C334.191 127.603 334.986 124.278 335.78 120.953C336.31 118.779 336.707 116.349 334.191 114.559C332.205 113.153 329.557 113.025 327.307 114.048C325.983 114.559 324.526 115.199 323.599 116.349C321.216 119.419 324.129 124.534 320.819 127.219C319.495 128.242 317.641 128.498 316.053 127.986C311.948 126.835 309.698 123.127 305.99 121.592C302.416 120.058 298.444 120.825 294.604 121.081C289.441 121.337 284.41 117.372 283.615 112.385C283.483 111.746 283.35 110.979 283.086 110.339C281.364 105.736 275.406 103.818 270.375 104.201C265.212 104.457 260.313 106.247 255.15 105.736C250.78 105.352 246.676 103.434 242.307 103.818C234.893 104.329 228.67 110.211 225.36 116.477C223.374 120.186 222.182 124.278 221.918 128.498C221.785 130.288 221.918 132.078 222.844 133.613C223.506 134.636 224.566 135.275 225.625 135.915C230.523 138.856 235.555 141.413 240.851 143.587C245.617 145.633 251.972 146.912 255.547 143.331C257.4 141.413 257.93 138.728 259.651 136.682C261.902 133.996 266.403 133.229 269.316 135.403C272.494 137.705 272.626 143.331 268.787 145.122C267.86 145.505 267.065 146.272 266.668 147.168C265.344 150.237 269.846 151.388 271.302 153.945C272.891 156.63 270.111 160.211 266.801 160.723C263.623 161.234 260.445 159.827 257.533 158.549C254.62 157.27 251.31 155.991 248.132 156.886C243.498 158.293 237.541 157.014 233.171 154.584C228.935 152.283 224.963 149.214 220.196 147.935C213.709 146.273 206.824 148.446 200.469 150.62C192.79 153.178 185.111 155.735 177.432 158.293C172.533 159.955 167.502 161.618 162.338 161.618C148.569 161.618 137.05 150.109 123.281 149.469C113.881 148.958 104.613 153.561 95.3449 152.155C85.9446 150.62 78.2655 143.076 68.7329 142.18C53.3747 140.902 42.6504 156.886 27.9542 161.362C23.1879 162.896 17.7596 163.024 13.7876 166.221C11.8017 167.756 10.6101 169.802 10.3453 172.231C9.81569 179.904 20.5399 178.497 21.0695 184.38C21.2019 185.147 20.9371 186.042 20.6723 186.809C16.8328 195.377 0.812608 194.738 0.0182193 203.945C-0.246577 207.781 2.40139 211.234 6.24093 212.384C14.7144 215.198 22.3935 210.338 30.4698 210.211C36.1629 210.083 41.856 212.384 45.828 216.221C42.1208 220.185 36.4277 221.719 30.9994 222.742C24.5119 224.021 17.4948 224.916 12.8608 230.159C10.6101 232.589 9.55089 236.042 10.4777 239.111C12.596 246.655 22.6583 245.504 26.6303 251.003C29.0134 254.2 28.4838 258.803 30.9994 262C36.5601 269.161 50.9915 262.768 56.4198 269.929C58.5382 272.614 58.5382 276.322 56.817 279.264C53.9043 284.634 48.2112 286.936 42.9152 289.622C35.5009 293.202 28.6162 297.806 22.3935 303.049C21.0695 304.199 19.6132 305.734 19.6132 307.396C19.7455 308.419 20.2751 309.442 21.2019 310.082C24.7767 313.023 30.4698 311.361 33.9122 308.292C37.3545 305.223 39.7377 301.13 43.5772 298.445C50.5943 293.458 61.1862 294.353 66.8793 287.959C67.8061 286.936 68.6005 285.785 69.7921 285.018C73.102 283.228 76.8092 286.169 80.3839 287.192C87.2686 288.982 94.1533 280.542 90.9758 274.532C88.8574 270.696 84.2235 268.65 82.5023 264.558C80.3839 259.571 84.8855 253.177 90.4462 253.433C92.9618 253.561 95.6097 255.095 95.8745 257.525C96.1393 259.571 94.5505 261.745 95.6097 263.791C96.8013 265.965 99.7141 266.476 101.832 265.069C105.937 262.512 106.069 257.525 108.717 254.072C113.086 248.19 122.354 248.445 129.239 251.387C142.743 257.141 151.879 269.673 164.854 276.322C171.077 279.519 178.094 281.31 183.787 285.274C189.48 289.238 193.717 296.655 190.936 302.921C189.348 306.501 185.64 309.826 187.362 313.662C188.024 315.197 189.48 316.092 191.069 316.603C195.173 317.754 199.145 316.092 203.117 316.476C208.016 316.859 212.385 320.44 213.577 324.915C214.636 328.368 212.253 331.949 210.399 335.018C210.002 335.529 209.737 336.169 209.737 336.808C209.869 337.319 210.134 337.831 210.531 338.215C216.622 344.992 222.712 351.897 228.802 358.675C231.053 361.232 233.436 363.918 234.76 366.987C236.084 370.184 236.349 373.764 236.481 377.217C236.879 385.784 237.408 394.48 236.481 403.048C236.084 406.884 235.422 410.592 235.29 414.429C235.025 419.16 235.555 424.019 236.084 428.751C236.349 431.18 236.614 433.738 237.541 436.168C238.865 439.492 241.38 442.306 243.631 445.119C249.192 452.024 253.693 459.697 256.738 467.881C259.386 474.786 268.919 475.809 272.361 482.459C274.744 487.062 273.553 492.561 274.744 497.548C276.466 504.326 282.424 509.185 286.396 514.939C294.472 526.576 295.266 542.688 306.123 552.151C307.712 553.558 309.565 554.837 311.948 553.942C313.537 553.43 314.596 551.896 314.993 550.361C315.655 547.292 313.934 544.479 311.948 542.305C310.095 540.387 307.976 538.852 306.255 536.806C303.078 533.098 301.754 528.238 301.754 523.507C301.754 521.333 302.151 518.903 304.004 517.753C305.064 517.241 306.255 517.113 307.447 517.241C309.3 517.369 311.154 518.008 312.743 519.159C317.377 522.356 319.23 527.343 320.951 532.203C323.202 538.213 325.321 544.223 326.115 550.489C326.645 555.348 326.38 560.335 327.439 565.195C329.028 572.228 334.456 578.366 339.62 583.353C345.577 589.235 355.772 588.596 363.319 591.665C368.482 593.711 372.852 597.292 377.75 599.977C382.649 602.662 388.607 604.325 393.77 602.407C395.492 601.767 396.948 600.744 398.669 600.233C403.038 598.954 407.54 601.384 411.512 603.685C414.425 605.476 417.602 607.394 418.926 610.463C419.853 612.509 419.72 614.938 420.78 616.857C422.368 619.798 426.076 621.204 429.386 621.844C432.828 622.483 436.403 622.739 439.315 624.657C443.155 627.215 444.744 631.946 445.538 636.422C446.333 640.897 446.862 645.629 449.378 649.337C452.952 654.452 460.367 656.626 466.192 654.324C469.105 653.173 471.356 651.127 474.136 649.721C476.784 648.314 480.226 647.419 483.007 648.698C486.449 650.36 484.596 656.626 482.874 659.951C481.153 663.276 478.373 666.089 477.446 669.669C476.917 671.588 476.917 673.634 476.784 675.552C475.46 688.339 465.133 698.569 462.617 711.229C462.22 713.275 462.088 715.321 462.617 717.239C463.279 719.413 464.736 721.203 465.663 723.25C469.37 732.201 459.97 741.792 461.558 751.254C462.75 759.055 470.561 763.914 475.857 769.796C479.432 773.76 482.08 778.62 484.596 783.351C487.508 788.85 490.553 794.221 492.275 800.231C494.393 807.648 494.658 815.704 498.762 822.353C502.469 828.108 508.692 831.944 514.65 835.397C522.991 840.256 518.887 854.45 517.166 863.657C515.444 873.376 513.591 883.095 511.87 892.813C510.546 899.846 509.354 906.88 510.016 913.913C510.546 919.284 512.267 924.526 513.194 929.769C515.577 943.068 513.458 956.623 510.281 969.795C505.382 989.743 498.1 1009.18 493.996 1029.26C489.892 1049.33 489.362 1070.82 497.438 1089.74C499.159 1093.71 499.027 1097.67 500.616 1101.63C503.264 1108.03 509.619 1112.12 515.577 1115.83C520.873 1119.03 526.301 1122.35 532.524 1123.5C540.468 1125.04 548.544 1122.73 556.223 1120.56C557.415 1120.18 558.606 1119.79 558.739 1118.26C558.871 1117.11 558.341 1116.08 557.415 1115.45C553.045 1111.99 547.882 1109.82 543.248 1106.88C539.011 1104.19 535.039 1100.61 533.318 1096.01C531.862 1091.92 532.259 1087.31 533.451 1083.09C534.907 1077.85 537.555 1072.86 541.13 1068.64C543.778 1065.32 547.088 1062.5 549.074 1058.8C551.06 1055.09 551.457 1050.1 548.412 1047.03C547.485 1046.01 546.293 1045.37 545.499 1044.22C543.778 1041.66 545.366 1038.21 546.823 1035.52C548.014 1033.35 549.338 1031.05 551.06 1029.13C553.84 1025.93 557.679 1023.63 560.063 1020.05C562.711 1016.21 562.843 1010.2 559.003 1007.52C557.415 1006.5 555.429 1005.86 555.164 1003.81C555.031 1002.79 555.429 1001.76 556.091 1001C558.341 998.439 562.313 998.567 564.829 996.393C567.344 994.219 567.344 990.51 569.198 987.825C570.919 985.268 574.229 983.989 577.407 983.733C579.525 983.605 581.511 983.733 583.497 984.117C587.999 984.884 592.368 981.943 593.03 977.467C593.427 974.015 592.633 970.562 592.235 967.109C591.971 963.657 592.5 959.82 595.28 957.519C596.869 956.24 598.855 955.6 600.841 955.089C607.196 953.171 613.816 950.23 616.994 944.603C618.45 941.918 619.112 938.849 620.039 935.907C622.157 929.514 625.997 923.631 631.293 919.156C634.867 916.215 639.104 913.657 641.62 909.821C647.445 900.741 641.223 887.698 647.048 878.491C648.505 876.061 650.755 874.271 653.138 872.481C659.096 868.261 665.849 865.064 672.998 863.274C674.719 862.89 676.44 862.507 678.029 861.739C683.722 859.182 686.238 852.916 688.356 847.161C691.137 839.489 688.886 831.56 688.224 823.504C687.827 818.006 686.9 812.379 688.356 807.008C689.945 800.998 694.447 795.883 695.241 789.745C695.638 786.42 694.976 782.84 696.3 779.771C697.095 777.853 698.551 776.318 700.14 774.911C706.627 769.157 714.968 765.321 720.529 758.671C721.456 757.648 722.25 756.369 722.383 754.963C722.383 753.684 721.721 752.533 721.059 751.382C716.292 742.687 709.01 736.037 700.272 731.689ZM272.361 98.1911C271.964 98.8305 271.435 99.5977 271.699 100.365C271.964 100.876 272.494 101.26 273.023 101.516C277.26 103.178 282.556 99.342 286.66 101.388C289.176 102.667 290.235 105.608 292.221 107.654C294.207 109.7 297.517 110.723 300.43 110.084C303.607 109.444 305.99 107.142 308.903 105.736C313.537 103.69 318.965 104.073 323.864 102.795C327.439 101.899 331.278 98.7026 330.219 95.2499C329.028 91.4137 323.335 91.1579 320.687 88.0889C319.892 87.0659 319.495 85.915 318.701 84.892C316.582 82.2066 312.081 81.5672 309.433 83.6132C306.52 85.7871 306.52 89.8791 308.374 92.5645C302.151 96.1451 297.649 92.5645 291.824 90.7743C284.674 88.4725 276.598 92.4367 272.361 98.1911ZM245.352 94.7384C248.132 94.2269 250.648 92.9482 253.296 91.6694C257.797 89.4955 262.564 87.7052 267.463 86.4265C271.964 85.1477 275.804 87.3216 278.187 82.2066C279.643 79.0097 278.981 75.6849 276.466 73.2552C269.713 66.4778 259.519 70.1862 253.296 75.4291C248.397 79.5212 243.631 83.7411 238.732 87.8331C237.805 88.6004 236.746 89.7513 236.746 90.9021C236.746 91.5415 237.143 92.053 237.541 92.5645C239.394 94.6105 242.572 95.2499 245.352 94.7384ZM294.207 71.7207C298.973 71.9765 303.872 71.9765 308.638 71.8486C315.523 71.5928 310.095 58.9331 305.99 57.015C300.43 54.4575 291.427 61.2349 288.911 65.7106C288.249 66.9893 287.984 68.6517 288.911 69.8026C290.103 71.3371 292.353 71.5929 294.207 71.7207ZM334.588 60.2119C336.31 60.7234 338.163 60.8513 340.017 61.2349C344.783 62.3858 348.358 65.9663 351.535 69.5468C352.727 70.8256 353.786 72.1044 355.243 72.9995C360.803 76.0685 363.584 69.5468 361.73 65.3269C359.877 61.2349 353.919 58.8052 350.344 56.5035C346.24 53.8181 341.738 51.1327 336.839 51.2606C333.794 51.3884 330.219 53.6902 330.749 56.6314C331.146 58.4216 332.867 59.5725 334.588 60.2119ZM1002.14 68.9075C1001.08 69.6747 1000.02 70.5698 1000.02 71.8486C1000.15 73.7667 1002.8 74.4061 1004.79 74.4061C1008.5 74.534 1012.07 74.534 1015.78 74.6619C1016.97 74.6619 1018.16 74.6619 1019.22 75.0455C1020.28 75.4291 1021.07 76.0685 1022 76.4521C1024.65 77.7309 1027.96 77.8588 1030.61 76.58C1032.19 75.8128 1033.65 74.534 1033.92 72.8716C1034.84 67.5008 1025.44 63.153 1020.94 62.7694C1014.72 62.3858 1007.17 65.5827 1002.14 68.9075ZM991.416 40.0075C996.05 40.9026 1001.48 40.1353 1005.19 43.0765C1007.3 44.7389 1008.36 47.2964 1010.61 48.8309C1013.26 50.749 1016.97 50.749 1020.28 50.4933C1027.83 50.1097 1035.24 49.8539 1042.79 49.4703C1043.45 49.4703 1044.11 49.3424 1044.64 49.0867C1045.83 48.4473 1045.96 46.657 1045.3 45.5061C1042.65 41.0305 1032.72 40.1353 1028.09 38.0893C1024.25 36.4269 1020.94 33.8694 1017.1 32.207C1013.13 30.5446 1009.55 30.2889 1005.32 30.6725C1001.35 31.0561 990.357 31.4398 987.576 34.253C986.65 35.276 986.782 36.9384 987.841 37.9614C988.635 39.2402 989.959 39.7517 991.416 40.0075ZM950.24 52.9229C953.02 54.5853 956.33 55.2247 959.243 56.5035C962.288 57.6544 965.333 59.5725 966.525 62.5136C968.246 66.7336 965.731 72.1044 968.379 75.9406C969.835 78.1145 972.748 79.0097 975.396 79.0097C978.044 78.8818 980.559 77.8588 982.942 76.58C983.737 76.1964 984.664 75.6849 985.326 74.9176C987.709 72.1044 985.326 67.5008 987.311 64.5597C989.165 61.8743 994.064 61.6185 994.858 58.4216C995.123 57.2707 994.726 56.1198 994.329 55.0968C990.092 46.0176 978.308 45.8898 969.438 44.3552C965.598 43.7159 963.083 43.4601 959.375 44.7389C957.125 45.5061 946.136 50.4933 950.24 52.9229ZM818.239 210.722C821.814 209.188 825.388 206.886 826.58 203.305C828.434 198.19 825.256 192.819 822.211 188.344C820.357 185.658 817.445 182.589 814.135 183.484C812.016 183.996 810.692 186.042 809.368 187.704C798.114 200.748 780.506 191.796 766.471 197.167C754.026 201.899 779.314 211.234 780.638 218.778C780.77 219.801 780.77 220.824 781.3 221.719C781.962 222.742 783.154 223.382 784.345 223.638C788.449 224.661 792.686 223.126 796.393 221.08C799.968 219.034 803.278 216.349 807.117 214.558C810.692 212.896 814.532 212.129 818.239 210.722ZM751.113 166.349C743.302 166.988 735.755 170.441 730.327 175.94C726.487 179.776 723.574 184.635 718.94 187.576C714.306 190.518 708.481 191.157 703.053 192.692C687.032 197.423 674.852 212.384 673.925 228.625C673.66 232.717 674.057 236.809 673.395 240.773C672.733 244.737 670.747 248.957 667.04 250.875C659.361 254.839 650.888 247.678 642.547 245.121C638.575 243.97 634.073 243.842 630.631 241.668C622.819 236.809 624.143 225.811 623.481 216.988C622.687 207.269 618.318 197.934 611.301 191.029C608.52 188.344 605.21 185.275 605.475 181.566C605.74 179.265 607.196 177.346 608.785 175.556C613.154 170.313 617.656 164.942 622.025 159.699C618.185 151.26 602.43 157.653 596.604 150.365C589.72 141.669 606.534 128.37 599.914 119.546C598.59 117.884 596.737 116.733 594.883 115.582C586.675 110.467 581.643 101.772 574.891 94.9942C569.463 89.6234 560.327 91.7973 552.648 93.3318C544.44 94.8663 535.966 95.1221 527.625 93.9712C526.301 93.8433 524.845 93.5875 523.653 92.8203C519.151 90.1349 521.27 83.4853 520.873 78.4982C520.475 73.511 516.901 69.0353 512.134 67.2451C510.546 66.6057 508.56 66.2221 507.633 64.6875C506.044 62.0021 509.354 59.1889 512.399 57.9101C521.667 53.946 532.789 51.3884 537.952 43.0765C539.011 41.4141 539.673 39.496 539.144 37.7057C537.82 33.6137 531.2 34.253 528.155 37.1942C524.977 40.1353 523.388 44.4831 519.814 47.0406C516.504 49.3424 512.267 49.726 508.56 51.2606C502.999 53.4344 498.762 57.6544 494.79 61.8743C492.407 64.3039 490.024 66.8614 489.23 70.0583C488.7 72.2322 488.965 74.4061 488.832 76.58C488.303 86.5544 477.843 94.8663 467.649 93.5875C458.513 92.4367 450.702 84.892 441.434 85.4035C436.667 85.6592 432.298 88.0889 427.532 89.2398C422.898 90.3906 416.94 89.6234 414.689 85.5313C418.794 78.4982 423.957 72.2322 430.048 66.7336C433.49 63.5367 437.594 59.5725 436.138 55.2247C434.019 54.3296 431.901 53.4344 429.518 53.4344C427.267 53.4344 424.752 54.7132 424.222 56.8871C423.825 58.4216 424.354 59.9561 424.222 61.4906C424.09 66.7336 417.47 69.5468 412.041 69.5468C408.069 69.5468 403.965 68.9075 400.788 66.6057C397.61 64.4318 395.359 60.5955 396.021 56.7592C396.154 55.7362 396.551 54.5853 396.418 53.5623C395.889 50.4933 391.52 49.9818 388.342 50.749C385.165 51.5163 381.457 52.6672 379.074 50.6212C376.426 48.3194 377.883 43.8437 380.133 41.1583C383.841 36.9384 389.269 34.253 394.962 33.7415C401.847 33.23 408.599 35.9154 414.822 38.8566C421.044 41.7977 427.267 45.1225 434.152 46.1455C441.037 47.1685 448.848 45.2504 452.688 39.7517C450.834 36.4269 446.333 35.5318 442.361 35.6597C438.389 35.7875 434.284 36.6827 430.71 35.276C428.062 34.253 425.943 32.207 423.428 30.9283C421.177 29.9052 418.661 29.3937 416.543 28.115C414.425 26.7083 413.101 23.7672 414.689 21.8491C416.808 19.2915 421.044 21.3375 424.354 20.9539C427.929 20.5703 430.445 17.2455 433.887 15.9667C438.786 14.1765 444.611 17.2455 449.51 15.4552C452.158 14.5601 454.144 12.2583 456.66 10.9796C459.705 9.44507 463.279 9.31719 466.722 9.18931C497.703 8.29418 528.155 8.93356 559.136 9.44507C563.24 8.54993 566.153 14.0486 564.432 17.757C562.711 21.4654 558.474 23.2557 554.502 24.5344C552.648 25.1738 550.53 25.8132 549.868 27.6035C548.544 30.8004 553.31 33.4858 556.62 32.3349C559.93 31.184 561.916 27.9871 564.432 25.6853C572.64 17.757 586.013 17.5013 597.266 20.1867C600.974 21.0818 604.681 22.2327 608.52 21.8491C613.287 21.4654 617.656 19.0358 622.422 18.9079C626.129 18.78 629.836 20.1867 633.411 19.4194C635.927 18.9079 638.045 17.3734 640.163 15.9667C647.843 10.7238 656.581 5.73666 665.981 6.37604C669.688 6.63179 673.263 7.78268 676.838 7.91055C682.134 8.03843 687.297 6.12029 692.461 4.58577C720.794 -4.1098 752.967 -0.273517 778.387 14.688C779.182 15.0716 779.976 15.711 780.108 16.4783C780.241 17.2455 779.844 17.8849 779.579 18.5243C778.387 21.5933 780.77 24.9181 783.948 26.1968C786.993 27.4756 790.568 27.2198 793.878 26.9641C803.543 26.1968 813.34 25.5575 823.005 25.1738C826.448 25.046 830.817 25.6853 831.479 28.8822C832.273 32.7185 826.845 34.6367 822.873 35.0203C817.974 35.4039 813.075 35.9154 808.309 36.299C810.03 36.9384 809.104 41.0305 808.044 42.565C806.985 43.9716 805.396 44.8667 804.072 46.1455C801.954 48.1915 801.027 51.2606 800.365 54.0738C797.982 65.3269 798.644 76.9636 797.585 88.3446C796.526 99.7256 793.481 111.618 785.007 119.802C781.697 123.127 777.063 126.963 778.652 131.311C779.579 133.996 782.624 135.531 783.551 138.216C784.61 141.797 781.3 145.249 777.858 147.168C774.415 148.958 770.443 150.62 768.722 154.073C767.663 156.375 767.928 159.06 766.736 161.362C764.221 166.221 756.939 165.965 751.113 166.349Z" fill="#C5C1BE"/>
</svg>
