<svg width="32" height="32" viewBox="0 0 32 32" fill="none" xmlns="http://www.w3.org/2000/svg">
<path d="M31.3371 14.9613L1.62358 1.24733C1.15045 1.03248 0.585894 1.16047 0.25676 1.56732C0.0957054 1.76439 0.00546218 2.00982 0.00048901 2.26428C-0.00448416 2.51874 0.0761006 2.7675 0.229332 2.97071L10.0005 15.999L0.229332 29.0272C-0.0860891 29.4455 -0.0746608 30.0261 0.254474 30.4306C0.476183 30.7072 0.807603 30.8557 1.14359 30.8557C1.30588 30.8557 1.46816 30.8215 1.6213 30.7506L31.3349 17.0367C31.7417 16.8492 32 16.4447 32 15.999C32 15.5533 31.7417 15.1487 31.3371 14.9613Z" fill="#090909"/>
</svg>
