<svg class="segment-group" width="982" height="485" viewBox="0 0 982 485" fill="none" xmlns="http://www.w3.org/2000/svg">
<g clip-path="url(#clip0_24463_1564)">


<g class=" segment-item segment-5">
<path d="M982.184 485.182H797.813C797.903 425.466 780.482 367.037 747.708 317.132L894.018 210.744C894.41 211.256 894.786 211.829 895.163 212.341C950.814 292.525 981.158 387.564 982.274 485.182H982.184Z" fill="#2156AE"/>
<path class="underline_segment" opacity="0.98" d="M771.402 484.789H724.414C724.48 439.163 711.168 394.521 686.128 356.391C685.616 355.592 685.089 354.884 684.622 354.026L720.966 327.617C721.192 327.903 721.403 328.234 721.614 328.536C753.451 374.467 770.794 428.895 771.402 484.789Z" fill="#E1EAF9"/>

<g class="icon" clip-path="url(#clip1_24463_1564)">
<path d="M870.583 396.87C871.941 395.248 873.909 395.385 875.607 395.495C876.333 395.584 877.067 395.584 877.793 395.495C878.363 395.413 878.567 394.354 878.797 392.855C878.832 391.371 879.369 389.944 880.318 388.813C880.496 388.636 880.709 388.499 880.943 388.411C881.177 388.324 881.427 388.287 881.676 388.305C882.653 388.387 883.359 389.281 884.052 390.147C884.744 391.013 885.41 391.783 885.926 391.618C886.442 391.453 886.55 391.274 886.659 390.876C886.971 389.789 887.541 389.143 889.537 389.294C890.148 389.294 892.009 389.473 897.019 395.481C899.266 393.367 901.015 390.769 902.138 387.878C900.511 387.677 898.955 387.083 897.603 386.146C896 384.771 896.163 382.778 896.245 381.073C896.333 380.338 896.333 379.594 896.245 378.859C896.15 378.268 895.118 378.076 893.638 377.842C892.195 377.769 890.818 377.207 889.727 376.247C889.554 376.066 889.42 375.85 889.333 375.613C889.247 375.376 889.21 375.124 889.225 374.872C889.307 373.896 890.189 373.167 891.045 372.48C891.9 371.792 892.66 371.105 892.497 370.583C892.334 370.06 892.158 369.95 891.764 369.826C890.692 369.524 890.053 368.933 890.203 366.939C890.203 366.169 890.651 364.849 893.258 362.196C891.564 361.195 889.734 360.454 887.827 359.996L887.406 360.189H887.243H887.161L886.835 360.326C886.795 360.319 886.754 360.319 886.713 360.326H886.55H886.442L886.021 360.45L885.749 360.519H885.464H885.165H884.867H884.554H884.364C884.867 363.268 885.505 368.245 884.514 370.253C883.522 372.26 881.676 372.549 880.006 372.851C879.286 372.954 878.58 373.138 877.901 373.401C877.372 373.621 877.453 374.707 877.616 376.151C877.953 377.598 877.8 379.119 877.182 380.468C877.046 380.688 876.867 380.878 876.657 381.026C876.447 381.175 876.21 381.28 875.96 381.334C874.939 381.316 873.965 380.897 873.244 380.165C872.266 379.437 871.52 378.942 871.058 379.23C870.596 379.519 870.542 379.712 870.542 380.124C870.542 381.265 870.135 382.035 868.179 382.406C867.999 382.423 867.817 382.423 867.636 382.406C865.841 382.203 864.126 381.54 862.653 380.482C862.651 383.645 863.364 386.767 864.739 389.608C866.113 392.449 868.112 394.933 870.583 396.87Z" fill="white"/>
<path d="M867.718 381.293C868.546 381.128 868.695 380.963 868.695 380.963C868.704 380.862 868.704 380.761 868.695 380.66C868.667 380.178 868.781 379.699 869.023 379.282C869.265 378.866 869.623 378.532 870.053 378.323C871.506 377.402 873.027 378.529 874.126 379.34C874.52 379.629 875.362 380.248 875.579 380.193C875.796 380.138 875.579 380.193 875.701 380.055C876.056 379.035 876.112 377.932 875.864 376.879C875.661 375.106 875.443 373.085 877.154 372.329C877.935 372.024 878.745 371.803 879.571 371.669C881.024 371.394 882.287 371.146 882.87 369.991C883.454 368.837 883.196 364.492 882.517 361H882.178H881.974H881.336C880.27 360.768 879.226 360.446 878.213 360.037C874.127 361.027 870.44 363.264 867.652 366.447C864.864 369.629 863.109 373.602 862.626 377.828L862.544 378.667C862.544 378.818 862.544 378.969 862.544 379.093C865.993 381.307 867.351 381.375 867.718 381.293Z" fill="white"/>
<path d="M889.415 390.972C888.574 390.903 888.384 390.972 888.384 390.972C888.374 391.063 888.374 391.155 888.384 391.247C888.29 391.716 888.063 392.147 887.73 392.487C887.397 392.826 886.972 393.06 886.51 393.158C884.867 393.666 883.699 392.195 882.844 391.109C882.531 390.724 881.88 389.899 881.649 389.899C881.593 389.921 881.542 389.953 881.5 389.996C880.905 390.893 880.571 391.941 880.536 393.02C880.264 394.794 879.965 396.801 878.119 397.145C877.271 397.248 876.414 397.248 875.566 397.145C874.14 397.021 872.918 396.939 872.063 397.777C874.082 399.077 876.311 400.007 878.648 400.527H878.906L879.449 400.637H879.721H879.992H880.481H880.78L880.929 400.994H881.214H881.92H882.504H883.55H884.297H884.704H885.138H885.573H885.994H886.401H886.469H886.836L887.677 400.802L888.098 400.692L888.506 400.596L889.32 400.335L890.121 400.06L890.502 399.908L890.895 399.757L891.289 399.578L891.493 399.482C891.846 399.331 892.185 399.152 892.525 398.973C893.638 398.372 894.697 397.673 895.688 396.884C891.534 391.522 889.836 391.013 889.415 390.972Z" fill="white"/>
<path d="M898.729 384.854C899.951 385.589 901.31 386.058 902.721 386.228C902.911 385.569 903.088 384.854 903.224 384.18C903.21 384.098 903.21 384.014 903.224 383.932V383.712V383.506C903.292 383.121 903.332 382.723 903.373 382.338C903.373 382.269 903.373 382.186 903.373 382.104C903.373 382.021 903.373 381.911 903.373 381.843C903.38 381.756 903.38 381.668 903.373 381.581C903.38 381.472 903.38 381.361 903.373 381.251V381.141C903.373 381.031 903.373 380.908 903.373 380.784V380.248C903.373 379.945 903.373 379.643 903.373 379.34C903.219 376.133 902.34 373.005 900.803 370.197C899.265 367.389 897.111 364.976 894.507 363.145C892.049 365.606 891.71 366.719 891.683 367.09C891.683 367.943 891.75 368.122 891.75 368.122L892.022 368.204C892.486 368.3 892.913 368.53 893.251 368.867C893.588 369.204 893.822 369.633 893.923 370.101C894.412 371.765 892.959 372.947 891.886 373.813C891.506 374.13 890.691 374.776 890.691 375.023C890.713 375.08 890.745 375.131 890.786 375.175C891.672 375.776 892.707 376.115 893.774 376.151C895.525 376.426 897.507 376.728 897.779 378.584C897.88 379.447 897.88 380.32 897.779 381.183C897.86 382.709 897.765 384.001 898.729 384.854Z" fill="white"/>
<path d="M878.485 358.374H878.594L879.218 358.594L879.517 358.704C879.979 358.855 880.427 358.965 880.875 359.075H881.119H881.337H881.459H881.649H881.73H881.907H882.083H883.21C884.588 359.22 885.979 358.977 887.229 358.374H887.338C887.787 358.084 888.202 357.742 888.574 357.356C889.525 356.311 890.124 354.988 890.284 353.576H887.718L884.201 357.164C884.044 357.321 883.832 357.409 883.611 357.409C883.39 357.409 883.178 357.321 883.02 357.164C882.864 357.002 882.777 356.785 882.777 356.559C882.777 356.333 882.864 356.116 883.02 355.954L885.396 353.548H882.789L879.232 357.164C879.156 357.243 879.065 357.305 878.965 357.347C878.865 357.39 878.757 357.412 878.648 357.411C878.537 357.412 878.428 357.39 878.325 357.348C878.223 357.305 878.129 357.243 878.051 357.164C877.895 357.002 877.808 356.785 877.808 356.559C877.808 356.333 877.895 356.116 878.051 355.954L880.427 353.548H876.734C876.51 353.548 876.296 353.458 876.138 353.298C875.981 353.139 875.892 352.922 875.892 352.696C875.892 352.47 875.981 352.253 876.138 352.093C876.296 351.933 876.51 351.843 876.734 351.843H880.427L878.051 349.437C877.956 349.363 877.879 349.269 877.823 349.163C877.767 349.056 877.735 348.938 877.727 348.817C877.72 348.697 877.738 348.576 877.78 348.463C877.822 348.35 877.888 348.247 877.972 348.161C878.056 348.076 878.158 348.01 878.27 347.967C878.381 347.924 878.501 347.906 878.62 347.913C878.739 347.921 878.855 347.954 878.961 348.011C879.066 348.067 879.159 348.146 879.232 348.241L882.789 351.843H885.396L883.02 349.437C882.865 349.278 882.778 349.063 882.778 348.839C882.778 348.615 882.865 348.401 883.02 348.241C883.18 348.083 883.394 347.995 883.618 347.995C883.841 347.995 884.055 348.083 884.215 348.241L887.718 351.843H890.298C890.141 350.426 889.542 349.097 888.587 348.049C887.487 346.852 885.369 345.56 881.662 346.179C877.956 346.797 873.95 348.929 869.442 352.682C872.15 355.038 875.2 356.958 878.485 358.374Z" fill="white"/>
<path d="M906.497 362.498C906.293 362.223 906.103 361.962 905.886 361.715C905.668 361.467 905.37 361.068 905.112 360.766C904.854 360.464 904.528 360.092 904.216 359.776C903.903 359.46 903.917 359.46 903.754 359.295L904.392 356.999L902.776 354.125C902.721 354.03 902.685 353.924 902.67 353.814C902.655 353.704 902.662 353.593 902.69 353.485C902.717 353.378 902.766 353.277 902.832 353.189C902.898 353.101 902.981 353.026 903.075 352.971C903.266 352.857 903.493 352.826 903.707 352.883C903.813 352.911 903.913 352.96 904 353.027C904.087 353.094 904.16 353.177 904.216 353.273L904.99 354.648L905.94 351.073C906.017 350.881 906.16 350.724 906.342 350.631C906.525 350.538 906.735 350.515 906.933 350.567C907.131 350.62 907.303 350.743 907.418 350.915C907.532 351.086 907.581 351.294 907.556 351.499L906.605 355.074L907.963 354.277C908.059 354.221 908.165 354.185 908.275 354.172C908.385 354.158 908.496 354.167 908.602 354.198C908.708 354.229 908.808 354.281 908.894 354.351C908.98 354.421 909.051 354.508 909.104 354.607C909.161 354.702 909.198 354.809 909.214 354.92C909.229 355.031 909.222 355.144 909.193 355.252C909.163 355.36 909.113 355.461 909.044 355.549C908.975 355.636 908.889 355.709 908.791 355.761L905.994 357.398L905.288 360.024C905.874 360.078 906.464 359.997 907.014 359.787C907.564 359.578 908.06 359.245 908.466 358.814C910.421 356.696 910.203 352.393 907.882 346.935C902.926 350.688 900.631 354.552 901.663 357.384C901.052 356.861 900.4 356.366 899.749 355.913C897.36 354.236 894.738 352.929 891.968 352.036C891.968 352.201 891.968 352.379 891.968 352.558C891.976 352.594 891.976 352.632 891.968 352.668C891.975 352.709 891.975 352.751 891.968 352.792C891.988 353.135 891.988 353.48 891.968 353.823C897.217 355.645 901.801 359.027 905.12 363.529C908.44 368.03 910.342 373.44 910.578 379.053C910.813 384.666 909.371 390.221 906.439 394.99C903.508 399.76 899.224 403.524 894.147 405.79C889.07 408.055 883.436 408.717 877.981 407.69C872.527 406.662 867.505 403.992 863.572 400.029C859.64 396.066 856.98 390.994 855.939 385.475C854.898 379.957 855.525 374.249 857.739 369.098C857.798 368.898 857.783 368.682 857.697 368.493C857.61 368.303 857.457 368.152 857.268 368.069C857.078 367.986 856.865 367.976 856.669 368.042C856.473 368.107 856.308 368.243 856.204 368.424C854.134 373.203 853.346 378.451 853.92 383.637C854.493 388.824 856.409 393.765 859.472 397.962C862.535 402.159 866.637 405.463 871.365 407.541C876.093 409.618 881.279 410.396 886.398 409.795C891.518 409.194 896.39 407.235 900.523 404.117C904.656 400.999 907.903 396.832 909.937 392.037C911.97 387.242 912.718 381.988 912.104 376.806C911.491 371.624 909.538 366.699 906.442 362.526L906.497 362.498Z" fill="white"/>
</g>
</g>

<g class=" segment-item segment-4">
<path d="M885.391 198.849L739.352 305.027C703.772 255.867 654.445 218.346 597.589 197.192L652.692 27.4255L655.703 28.465C747.486 61.1889 827.462 120.5 885.451 198.849H885.391Z" fill="#2156AE"/>
<path class="underline_segment" opacity="0.98" d="M716.178 321.079L679.94 347.427C652.766 309.913 615.107 281.283 571.705 265.143L569.462 264.329L582.907 222.961L584.608 223.548C637.171 242.285 682.973 276.252 716.178 321.124V321.079Z" fill="#E1EAF9"/>
<g class="icon" clip-path="url(#clip2_24463_1564)">
<path d="M717.794 187.684C717.909 187.72 718.03 187.733 718.15 187.721C718.271 187.71 718.387 187.675 718.493 187.619C718.599 187.562 718.693 187.484 718.768 187.391C718.844 187.298 718.899 187.191 718.932 187.076L724.835 166.512C724.869 166.398 724.881 166.278 724.869 166.16C724.857 166.042 724.822 165.927 724.764 165.822C724.707 165.717 724.63 165.625 724.536 165.55C724.443 165.475 724.336 165.419 724.22 165.386L716.509 163.28C716.395 163.242 716.274 163.227 716.154 163.237C716.034 163.247 715.917 163.28 715.811 163.336C715.704 163.392 715.611 163.469 715.535 163.562C715.46 163.655 715.404 163.762 715.372 163.877L709.423 184.452C709.364 184.679 709.393 184.92 709.503 185.127C709.624 185.331 709.819 185.48 710.049 185.544L717.794 187.684ZM718.01 189.317C717.784 189.315 717.558 189.285 717.339 189.226L709.605 187.087C709.286 187 708.988 186.85 708.728 186.647C708.468 186.444 708.252 186.191 708.093 185.904C707.935 185.624 707.835 185.315 707.798 184.997C707.761 184.678 707.788 184.355 707.877 184.046L713.859 163.438C714.044 162.81 714.471 162.28 715.048 161.962C715.625 161.644 716.305 161.563 716.941 161.737L724.698 163.865C725.342 164.046 725.887 164.473 726.213 165.052C726.539 165.63 726.62 166.313 726.438 166.951L720.444 187.515C720.29 188.035 719.969 188.492 719.53 188.817C719.091 189.141 718.558 189.317 718.01 189.317Z" fill="white"/>
<path d="M715.189 181.794C714.953 181.803 714.724 181.884 714.537 182.028C714.349 182.171 714.212 182.369 714.143 182.593C714.067 182.869 714.1 183.163 714.234 183.415C714.384 183.663 714.624 183.845 714.905 183.922C715.056 183.998 715.222 184.04 715.391 184.044C715.56 184.048 715.728 184.015 715.882 183.947C716.037 183.879 716.174 183.778 716.284 183.65C716.394 183.523 716.474 183.373 716.518 183.212C716.562 183.05 716.569 182.88 716.539 182.716C716.508 182.551 716.441 182.395 716.342 182.259C716.243 182.123 716.115 182.011 715.967 181.931C715.819 181.85 715.654 181.803 715.485 181.794C715.387 181.777 715.287 181.777 715.189 181.794ZM715.189 185.566C714.94 185.566 714.691 185.532 714.45 185.465C714.108 185.372 713.789 185.212 713.509 184.996C713.23 184.779 712.997 184.51 712.824 184.204C712.644 183.899 712.529 183.561 712.486 183.21C712.443 182.86 712.473 182.504 712.574 182.165C712.666 181.825 712.826 181.506 713.045 181.227C713.264 180.949 713.537 180.716 713.847 180.544C714.474 180.195 715.214 180.106 715.906 180.296C716.251 180.385 716.575 180.541 716.858 180.756C717.141 180.971 717.378 181.239 717.555 181.546C717.908 182.17 717.998 182.907 717.805 183.596C717.647 184.159 717.306 184.655 716.836 185.009C716.366 185.363 715.791 185.555 715.201 185.555L715.189 185.566Z" fill="white"/>
<path d="M770.442 163.246C770.363 163.235 770.282 163.235 770.203 163.246L762.458 165.375C762.227 165.442 762.031 165.595 761.912 165.802C761.856 165.905 761.821 166.018 761.809 166.134C761.797 166.25 761.809 166.367 761.844 166.478L767.826 187.076C767.86 187.19 767.916 187.296 767.992 187.389C768.068 187.481 768.161 187.558 768.267 187.614C768.373 187.671 768.489 187.706 768.608 187.718C768.728 187.73 768.849 187.718 768.964 187.684L776.709 185.544C776.935 185.48 777.127 185.33 777.243 185.127C777.303 185.026 777.341 184.914 777.355 184.798C777.369 184.681 777.358 184.564 777.323 184.452L771.295 163.877C771.243 163.693 771.131 163.532 770.977 163.418C770.822 163.304 770.635 163.244 770.442 163.246ZM768.691 189.317C768.146 189.316 767.616 189.139 767.181 188.814C766.746 188.489 766.43 188.033 766.279 187.515L760.286 166.951C760.193 166.636 760.164 166.305 760.201 165.978C760.238 165.651 760.34 165.335 760.502 165.048C760.833 164.471 761.38 164.046 762.026 163.865L769.771 161.737C770.407 161.56 771.089 161.639 771.666 161.958C772.244 162.276 772.671 162.808 772.853 163.438L778.847 184.046C778.938 184.363 778.964 184.694 778.925 185.02C778.886 185.347 778.782 185.663 778.62 185.949C778.3 186.505 777.773 186.913 777.153 187.087L769.407 189.226C769.173 189.287 768.932 189.317 768.691 189.317Z" fill="white"/>
<path d="M767.61 167.852C767.512 167.84 767.413 167.84 767.314 167.852C767.04 167.938 766.808 168.125 766.666 168.373C766.525 168.622 766.484 168.915 766.552 169.192C766.633 169.466 766.816 169.7 767.064 169.845C767.189 169.917 767.326 169.962 767.469 169.98C767.612 169.997 767.756 169.986 767.895 169.947C768.169 169.861 768.401 169.674 768.543 169.426C768.684 169.177 768.725 168.884 768.657 168.607C768.576 168.333 768.393 168.099 768.145 167.954C767.977 167.877 767.794 167.843 767.61 167.852ZM767.61 171.625C767.136 171.624 766.671 171.5 766.26 171.267C765.849 171.033 765.507 170.696 765.268 170.291C765.029 169.886 764.901 169.426 764.897 168.956C764.893 168.487 765.012 168.025 765.244 167.616C765.421 167.302 765.66 167.027 765.948 166.808C766.235 166.59 766.565 166.431 766.916 166.343C767.285 166.261 767.668 166.256 768.039 166.328C768.41 166.4 768.762 166.548 769.072 166.763C769.382 166.978 769.643 167.254 769.839 167.574C770.035 167.895 770.162 168.252 770.21 168.624C770.259 168.995 770.228 169.373 770.121 169.732C770.014 170.091 769.832 170.424 769.587 170.71C769.342 170.995 769.04 171.227 768.7 171.391C768.359 171.554 767.988 171.645 767.61 171.659V171.625Z" fill="white"/>
<path d="M759.125 189.418C758.911 189.418 758.706 189.334 758.554 189.184C758.403 189.034 758.318 188.83 758.318 188.618C758.318 188.406 758.403 188.203 758.554 188.053C758.706 187.903 758.911 187.819 759.125 187.819C761.668 187.647 764.127 186.85 766.279 185.499C766.457 185.377 766.677 185.33 766.89 185.368C767.103 185.406 767.293 185.526 767.417 185.702C767.481 185.788 767.526 185.886 767.551 185.99C767.575 186.095 767.578 186.203 767.559 186.308C767.54 186.414 767.499 186.514 767.439 186.603C767.38 186.693 767.302 186.769 767.212 186.828C764.823 188.348 762.084 189.243 759.251 189.429L759.125 189.418Z" fill="white"/>
<path d="M722.64 188.483C722.428 188.482 722.225 188.401 722.071 188.258L719.671 185.882C719.585 185.811 719.515 185.723 719.465 185.623C719.415 185.524 719.387 185.415 719.382 185.304C719.377 185.193 719.395 185.082 719.436 184.979C719.476 184.875 719.538 184.781 719.617 184.702C719.697 184.624 719.792 184.563 719.896 184.522C720.001 184.482 720.113 184.464 720.225 184.469C720.337 184.474 720.447 184.502 720.547 184.551C720.648 184.601 720.737 184.67 720.809 184.756L723.197 187.132C723.347 187.282 723.431 187.484 723.431 187.695C723.431 187.906 723.347 188.108 723.197 188.258C723.047 188.4 722.848 188.481 722.64 188.483Z" fill="white"/>
<path d="M738.482 202.842C737.94 202.843 737.402 202.739 736.9 202.534C736.399 202.329 735.943 202.028 735.559 201.648L734.183 200.285C734.054 200.132 733.987 199.937 733.996 199.737C734.006 199.538 734.09 199.349 734.232 199.208C734.375 199.067 734.565 198.984 734.767 198.975C734.968 198.965 735.166 199.031 735.32 199.159L736.697 200.533C737.169 200.992 737.804 201.249 738.465 201.249C739.127 201.249 739.762 200.992 740.234 200.533C740.468 200.303 740.654 200.03 740.781 199.728C740.908 199.427 740.973 199.103 740.973 198.776C740.976 198.456 740.914 198.138 740.791 197.842C740.666 197.532 740.476 197.251 740.234 197.019C740.105 196.866 740.038 196.671 740.047 196.471C740.056 196.272 740.14 196.083 740.283 195.942C740.425 195.801 740.616 195.718 740.817 195.709C741.019 195.7 741.216 195.766 741.371 195.893L744.442 198.923C744.913 199.388 745.551 199.649 746.216 199.649C746.881 199.649 747.519 199.388 747.99 198.923C748.222 198.694 748.406 198.422 748.531 198.122C748.656 197.822 748.719 197.501 748.718 197.177C748.719 196.52 748.457 195.888 747.99 195.42C747.861 195.267 747.795 195.072 747.804 194.872C747.813 194.673 747.897 194.484 748.04 194.343C748.182 194.202 748.373 194.119 748.574 194.11C748.776 194.101 748.973 194.166 749.128 194.294C749.51 194.673 749.814 195.122 750.021 195.617C750.227 196.112 750.334 196.642 750.334 197.177C750.334 197.713 750.227 198.243 750.021 198.737C749.814 199.232 749.51 199.682 749.128 200.06C748.354 200.822 747.307 201.25 746.216 201.25C745.125 201.25 744.078 200.822 743.305 200.06L742.543 199.317C742.437 200.201 742.036 201.025 741.405 201.659C741.021 202.038 740.565 202.338 740.063 202.541C739.562 202.744 739.024 202.846 738.482 202.842Z" fill="white"/>
<path d="M752.301 197.943C751.21 197.941 750.163 197.512 749.39 196.749L741.894 189.272C741.765 189.118 741.699 188.923 741.708 188.723C741.717 188.524 741.801 188.335 741.944 188.194C742.086 188.053 742.277 187.97 742.478 187.961C742.679 187.952 742.877 188.018 743.032 188.145L750.584 195.612C750.815 195.843 751.091 196.027 751.394 196.152C751.698 196.277 752.024 196.341 752.352 196.341C752.681 196.341 753.007 196.277 753.31 196.152C753.614 196.027 753.889 195.843 754.121 195.612C754.59 195.147 754.853 194.517 754.853 193.861C754.853 193.204 754.59 192.574 754.121 192.11L746.58 184.632C746.451 184.479 746.385 184.283 746.394 184.084C746.403 183.884 746.487 183.696 746.629 183.554C746.772 183.413 746.963 183.33 747.164 183.321C747.365 183.312 747.563 183.378 747.718 183.506L755.27 190.972C755.845 191.544 756.236 192.272 756.393 193.064C756.551 193.857 756.468 194.677 756.156 195.423C755.843 196.168 755.314 196.805 754.637 197.254C753.959 197.702 753.162 197.942 752.347 197.943H752.301Z" fill="white"/>
<path d="M755.861 192.177C755.32 192.181 754.783 192.077 754.283 191.872C753.783 191.667 753.33 191.365 752.95 190.983C752.821 190.83 752.754 190.635 752.763 190.435C752.772 190.236 752.856 190.047 752.999 189.906C753.141 189.765 753.332 189.681 753.533 189.672C753.735 189.663 753.932 189.729 754.087 189.857C754.56 190.319 755.197 190.578 755.861 190.578C756.526 190.578 757.163 190.319 757.636 189.857C757.996 189.502 758.238 189.046 758.329 188.551C758.341 188.42 758.341 188.288 758.329 188.157C758.348 187.816 758.296 187.476 758.176 187.157C758.057 186.837 757.873 186.545 757.636 186.299L745.648 174.485C745.323 174.168 744.937 173.919 744.514 173.752C744.09 173.585 743.637 173.504 743.181 173.513C742.725 173.523 742.276 173.623 741.859 173.807C741.443 173.991 741.068 174.256 740.757 174.587L737.015 178.596C736.234 179.281 735.239 179.68 734.197 179.726C733.154 179.771 732.127 179.46 731.288 178.845C730.45 178.23 729.85 177.348 729.591 176.347C729.331 175.346 729.426 174.287 729.861 173.348C731.33 170.461 733.514 167.989 736.208 166.163C738.64 164.615 741.581 164.054 744.42 164.598C748.442 165.237 752.292 166.677 755.736 168.832L760.923 166.58C761.12 166.496 761.343 166.493 761.543 166.573C761.742 166.652 761.901 166.806 761.986 167.002C762.07 167.198 762.073 167.418 761.993 167.616C761.913 167.813 761.757 167.971 761.559 168.055L755.964 170.442C755.835 170.497 755.695 170.518 755.555 170.504C755.416 170.49 755.283 170.442 755.168 170.363C751.837 168.221 748.091 166.79 744.169 166.163C741.711 165.688 739.163 166.177 737.061 167.526C734.62 169.207 732.645 171.468 731.317 174.102C731.02 174.644 730.91 175.267 731.002 175.876C731.094 176.486 731.385 177.049 731.829 177.481C732.372 178.01 733.103 178.307 733.865 178.307C734.627 178.307 735.358 178.01 735.901 177.481L739.62 173.472C740.079 172.978 740.634 172.581 741.252 172.305C741.871 172.029 742.539 171.879 743.216 171.866C743.894 171.852 744.568 171.974 745.197 172.225C745.826 172.476 746.397 172.85 746.876 173.325L758.773 185.172C759.162 185.556 759.469 186.012 759.676 186.515C759.883 187.018 759.986 187.557 759.979 188.1C759.995 188.318 759.995 188.536 759.979 188.754C759.81 189.701 759.309 190.559 758.564 191.177C757.82 191.795 756.879 192.133 755.907 192.132L755.861 192.177Z" fill="white"/>
<path d="M725.357 168.652C725.175 168.653 724.997 168.593 724.854 168.48C724.711 168.367 724.612 168.209 724.573 168.032C724.525 167.826 724.562 167.61 724.675 167.43C724.788 167.251 724.968 167.123 725.175 167.075C728.935 166.311 732.768 165.96 736.606 166.028C736.82 166.028 737.025 166.112 737.177 166.262C737.328 166.412 737.413 166.615 737.413 166.827C737.413 167.039 737.328 167.243 737.177 167.393C737.025 167.543 736.82 167.627 736.606 167.627C732.906 167.551 729.21 167.884 725.585 168.618L725.357 168.652Z" fill="white"/>
<path d="M750.994 168.044C750.854 168.042 750.716 168.005 750.595 167.936C750.473 167.867 750.372 167.768 750.3 167.649C750.239 167.558 750.198 167.456 750.18 167.348C750.161 167.241 750.166 167.13 750.192 167.025C750.219 166.919 750.268 166.819 750.335 166.733C750.403 166.647 750.487 166.575 750.584 166.523C753.207 164.958 755.243 162.589 756.385 159.776C757.527 156.963 757.712 153.858 756.912 150.931C756.113 148.004 754.372 145.415 751.954 143.554C749.536 141.694 746.572 140.665 743.51 140.622H743.282C740.265 140.645 737.335 141.626 734.924 143.421C732.512 145.216 730.746 147.73 729.885 150.594C729.024 153.457 729.114 156.518 730.142 159.327C731.17 162.136 733.081 164.544 735.594 166.197C735.686 166.254 735.765 166.329 735.827 166.417C735.889 166.506 735.932 166.606 735.953 166.711C735.975 166.817 735.974 166.925 735.951 167.03C735.929 167.136 735.884 167.235 735.821 167.323C735.763 167.413 735.686 167.49 735.597 167.551C735.508 167.611 735.407 167.653 735.301 167.674C735.195 167.695 735.085 167.695 734.979 167.673C734.873 167.651 734.773 167.609 734.684 167.548C732.531 166.126 730.765 164.2 729.543 161.941C728.321 159.682 727.68 157.16 727.678 154.597C727.666 150.492 729.293 146.548 732.206 143.627C735.118 140.705 739.079 139.042 743.225 139H743.498C747.64 139.036 751.601 140.69 754.517 143.603C757.433 146.515 759.069 150.451 759.069 154.552C759.062 157.251 758.349 159.902 757 162.246C755.65 164.591 753.71 166.55 751.369 167.931C751.256 168 751.126 168.039 750.994 168.044Z" fill="white"/>
<path d="M747.581 166.895C747.442 166.893 747.306 166.859 747.183 166.794C747.086 166.742 747 166.672 746.931 166.586C746.863 166.5 746.813 166.401 746.785 166.295C746.757 166.189 746.752 166.079 746.77 165.97C746.787 165.862 746.827 165.759 746.888 165.667C747.575 164.413 748.098 163.077 748.446 161.692C749.038 159.346 749.332 156.936 749.322 154.518C749.333 152.104 749.039 149.698 748.446 147.356C747.377 143.302 745.432 140.599 743.476 140.599H743.316C741.36 140.678 739.404 143.336 738.335 147.356C737.746 149.698 737.455 152.105 737.47 154.518C737.456 156.936 737.746 159.346 738.335 161.692C738.661 162.946 739.122 164.162 739.711 165.318C739.76 165.411 739.791 165.513 739.8 165.618C739.81 165.723 739.798 165.828 739.766 165.929C739.735 166.029 739.683 166.122 739.615 166.203C739.547 166.284 739.464 166.351 739.37 166.399C739.276 166.448 739.173 166.478 739.067 166.488C738.961 166.497 738.855 166.486 738.753 166.454C738.652 166.423 738.558 166.372 738.476 166.305C738.395 166.237 738.327 166.155 738.278 166.062C737.631 164.799 737.127 163.47 736.777 162.097C736.148 159.62 735.835 157.073 735.844 154.518C735.835 151.967 736.149 149.425 736.777 146.951C738.028 142.086 740.45 139.101 743.214 139H743.521C746.262 139.101 748.719 142.086 749.981 146.984C750.605 149.459 750.915 152.002 750.903 154.552C750.916 157.107 750.606 159.653 749.981 162.131C749.599 163.652 749.018 165.117 748.253 166.489C748.185 166.608 748.088 166.708 747.97 166.778C747.853 166.849 747.719 166.889 747.581 166.895Z" fill="white"/>
<path d="M758.261 155.352H728.462C728.248 155.352 728.043 155.268 727.891 155.118C727.74 154.968 727.655 154.764 727.655 154.552C727.655 154.34 727.74 154.137 727.891 153.987C728.043 153.837 728.248 153.753 728.462 153.753H758.261C758.475 153.753 758.681 153.837 758.832 153.987C758.983 154.137 759.069 154.34 759.069 154.552C759.069 154.764 758.983 154.968 758.832 155.118C758.681 155.268 758.475 155.352 758.261 155.352Z" fill="white"/>
<path d="M756.259 162.728H730.453C730.238 162.728 730.033 162.644 729.882 162.494C729.73 162.344 729.645 162.141 729.645 161.928C729.645 161.716 729.73 161.513 729.882 161.363C730.033 161.213 730.238 161.129 730.453 161.129H756.259C756.473 161.129 756.679 161.213 756.83 161.363C756.982 161.513 757.067 161.716 757.067 161.928C757.067 162.141 756.982 162.344 756.83 162.494C756.679 162.644 756.473 162.728 756.259 162.728Z" fill="white"/>
<path d="M756.271 148.009H730.453C730.238 148.009 730.033 147.925 729.882 147.775C729.73 147.625 729.645 147.422 729.645 147.21C729.645 146.998 729.73 146.794 729.882 146.644C730.033 146.494 730.238 146.41 730.453 146.41H756.271C756.485 146.41 756.69 146.494 756.842 146.644C756.993 146.794 757.078 146.998 757.078 147.21C757.078 147.422 756.993 147.625 756.842 147.775C756.69 147.925 756.485 148.009 756.271 148.009Z" fill="white"/>
<path d="M724.527 191.67C723.941 191.67 723.368 191.498 722.88 191.176C722.393 190.853 722.013 190.395 721.787 189.859C721.562 189.323 721.503 188.733 721.616 188.164C721.729 187.594 722.01 187.071 722.423 186.659L724.971 184.125C725.53 183.58 726.284 183.274 727.069 183.274C727.854 183.274 728.608 183.58 729.168 184.125C729.445 184.397 729.664 184.721 729.814 185.077C729.964 185.434 730.041 185.816 730.041 186.203C730.041 186.589 729.964 186.971 729.814 187.328C729.664 187.685 729.445 188.008 729.168 188.281C729.013 188.408 728.815 188.474 728.614 188.465C728.413 188.456 728.222 188.373 728.08 188.232C727.937 188.091 727.853 187.902 727.844 187.703C727.835 187.503 727.901 187.308 728.03 187.154C728.281 186.902 728.424 186.563 728.428 186.208C728.422 185.951 728.34 185.7 728.193 185.487C728.046 185.274 727.84 185.108 727.6 185.008C727.359 184.908 727.095 184.879 726.839 184.924C726.582 184.969 726.344 185.087 726.154 185.262L723.606 187.785C723.479 187.908 723.378 188.055 723.309 188.218C723.241 188.38 723.207 188.555 723.208 188.731C723.206 188.907 723.24 189.082 723.309 189.245C723.377 189.407 723.478 189.554 723.606 189.677C723.73 189.802 723.878 189.901 724.041 189.969C724.204 190.037 724.379 190.072 724.556 190.072C724.733 190.072 724.908 190.037 725.071 189.969C725.234 189.901 725.382 189.802 725.505 189.677C725.577 189.592 725.666 189.522 725.767 189.473C725.867 189.423 725.977 189.395 726.089 189.39C726.201 189.385 726.313 189.403 726.418 189.444C726.522 189.484 726.617 189.545 726.697 189.624C726.776 189.702 726.838 189.796 726.878 189.9C726.919 190.003 726.937 190.114 726.932 190.225C726.927 190.336 726.899 190.445 726.849 190.544C726.799 190.644 726.729 190.732 726.643 190.803C726.366 191.08 726.037 191.299 725.673 191.448C725.31 191.596 724.92 191.672 724.527 191.67Z" fill="white"/>
<path d="M726.665 195.589C726.079 195.589 725.506 195.417 725.018 195.095C724.531 194.772 724.15 194.314 723.925 193.778C723.7 193.242 723.64 192.652 723.754 192.083C723.867 191.513 724.148 190.99 724.561 190.578L727.973 187.199C728.53 186.649 729.284 186.339 730.071 186.339C730.858 186.339 731.613 186.649 732.17 187.199C732.445 187.471 732.664 187.794 732.812 188.15C732.96 188.505 733.036 188.887 733.034 189.272C733.036 190.052 732.725 190.801 732.17 191.355C732.016 191.498 731.812 191.578 731.601 191.578C731.39 191.578 731.186 191.498 731.032 191.355C730.882 191.205 730.798 191.003 730.798 190.792C730.798 190.581 730.882 190.379 731.032 190.229C731.16 190.106 731.262 189.959 731.33 189.796C731.398 189.634 731.433 189.459 731.431 189.283C731.432 189.107 731.398 188.932 731.329 188.77C731.261 188.607 731.16 188.46 731.032 188.337C730.777 188.089 730.434 187.951 730.077 187.951C729.72 187.951 729.377 188.089 729.122 188.337L725.71 191.772C725.458 192.023 725.317 192.362 725.318 192.716C725.319 193.07 725.462 193.409 725.715 193.658C725.969 193.907 726.312 194.047 726.669 194.046C727.026 194.045 727.369 193.903 727.62 193.652C727.775 193.524 727.973 193.459 728.174 193.468C728.375 193.477 728.566 193.56 728.709 193.701C728.851 193.842 728.935 194.031 728.944 194.23C728.953 194.43 728.887 194.625 728.758 194.778C728.48 195.043 728.152 195.251 727.793 195.39C727.434 195.529 727.051 195.597 726.665 195.589Z" fill="white"/>
<path d="M727.758 197.616C728.013 197.864 728.356 198.003 728.713 198.003C729.07 198.003 729.413 197.864 729.668 197.616L734.127 193.191C734.253 193.068 734.353 192.922 734.422 192.76C734.49 192.599 734.525 192.425 734.525 192.25C734.525 192.075 734.49 191.902 734.422 191.74C734.353 191.579 734.253 191.433 734.127 191.31C734.003 191.185 733.855 191.086 733.692 191.018C733.529 190.95 733.354 190.915 733.177 190.915C733 190.915 732.825 190.95 732.662 191.018C732.499 191.086 732.351 191.185 732.227 191.31L727.758 195.724C727.507 195.977 727.364 196.316 727.359 196.67C727.36 197.026 727.503 197.366 727.758 197.616ZM728.713 199.61C728.322 199.612 727.936 199.537 727.574 199.39C727.213 199.243 726.885 199.027 726.609 198.754C726.055 198.201 725.745 197.454 725.745 196.676C725.745 195.898 726.055 195.151 726.609 194.598L731.079 190.173C731.64 189.643 732.387 189.353 733.162 189.362C733.937 189.371 734.677 189.68 735.225 190.223C735.773 190.765 736.085 191.498 736.094 192.265C736.104 193.032 735.81 193.773 735.275 194.328L730.806 198.754C730.531 199.027 730.205 199.243 729.846 199.39C729.487 199.537 729.102 199.611 728.713 199.61Z" fill="white"/>
<path d="M733.058 201.344C732.47 201.347 731.895 201.176 731.405 200.854C730.916 200.532 730.534 200.073 730.31 199.535C730.085 198.997 730.028 198.405 730.144 197.835C730.261 197.264 730.547 196.741 730.965 196.333C731.039 196.258 731.127 196.198 731.225 196.157C731.323 196.117 731.428 196.096 731.533 196.096C731.639 196.096 731.744 196.117 731.842 196.157C731.94 196.198 732.028 196.258 732.102 196.333C732.252 196.482 732.336 196.685 732.336 196.896C732.336 197.107 732.252 197.309 732.102 197.459C731.85 197.71 731.709 198.049 731.71 198.403C731.712 198.757 731.854 199.096 732.108 199.345C732.361 199.594 732.704 199.734 733.062 199.733C733.419 199.732 733.761 199.59 734.013 199.339L737.186 196.209C737.437 195.956 737.58 195.617 737.584 195.263C737.577 195.005 737.495 194.754 737.348 194.542C737.201 194.329 736.995 194.162 736.755 194.062C736.515 193.963 736.251 193.933 735.995 193.979C735.738 194.024 735.5 194.141 735.309 194.317C735.158 194.465 734.954 194.549 734.741 194.549C734.528 194.549 734.323 194.465 734.172 194.317C734.027 194.164 733.947 193.963 733.947 193.754C733.947 193.544 734.027 193.343 734.172 193.191C734.732 192.645 735.485 192.339 736.271 192.339C737.056 192.339 737.809 192.645 738.369 193.191C738.646 193.463 738.866 193.786 739.015 194.143C739.165 194.5 739.243 194.882 739.243 195.268C739.243 195.655 739.165 196.037 739.015 196.394C738.866 196.75 738.646 197.074 738.369 197.346L735.162 200.488C734.885 200.761 734.557 200.977 734.196 201.124C733.835 201.271 733.448 201.346 733.058 201.344Z" fill="white"/>
</g>
</g>

<g class=" segment-item segment-3">
<path d="M639.572 22.8535L584.483 192.469C525.992 173.896 463.288 173.235 404.419 190.571L349.315 20.88L352.327 19.9912C446.216 -7.60622 546.19 -6.60979 639.512 22.8535H639.572Z" fill="#2156AE"/>
<path class="underline_segment" opacity="0.98" d="M575.228 220.355L561.798 261.708L561.497 261.602C516.808 247.42 468.908 246.895 423.92 260.096L422.414 260.548L408.984 219.179L410.746 218.667C464.515 202.861 521.77 203.433 575.213 220.309L575.228 220.355Z" fill="#E1EAF9"/>
<g class="icon" clip-path="url(#clip3_24463_1564)">
<path d="M503.137 71.9498H506.952C507.051 71.9498 507.148 71.9693 507.238 72.0072C507.329 72.0451 507.411 72.1007 507.481 72.1708C507.55 72.2408 507.605 72.324 507.643 72.4156C507.68 72.5071 507.7 72.6052 507.7 72.7043C507.7 72.8034 507.68 72.9015 507.643 72.993C507.605 73.0846 507.55 73.1678 507.481 73.2378C507.411 73.3079 507.329 73.3635 507.238 73.4014C507.148 73.4393 507.051 73.4588 506.952 73.4588H503.137C503.039 73.4588 502.942 73.4393 502.851 73.4014C502.761 73.3635 502.678 73.3079 502.609 73.2378C502.54 73.1678 502.485 73.0846 502.447 72.993C502.409 72.9015 502.39 72.8034 502.39 72.7043C502.39 72.6052 502.409 72.5071 502.447 72.4156C502.485 72.324 502.54 72.2408 502.609 72.1708C502.678 72.1007 502.761 72.0451 502.851 72.0072C502.942 71.9693 503.039 71.9498 503.137 71.9498ZM500.581 66.0426C500.484 65.8668 500.458 65.6597 500.509 65.465C500.561 65.2704 500.685 65.1037 500.856 65.0002L504.17 63.0742C504.342 62.9741 504.546 62.9472 504.738 62.9993C504.93 63.0515 505.093 63.1784 505.192 63.3522C505.291 63.5259 505.318 63.7323 505.266 63.926C505.215 64.1196 505.089 64.2846 504.917 64.3847L501.613 66.3206C501.495 66.3825 501.363 66.4165 501.23 66.4199C501.099 66.4192 500.97 66.3841 500.856 66.3179C500.742 66.2518 500.647 66.1569 500.581 66.0426ZM495.478 60.0858L497.385 56.7798C497.486 56.6061 497.65 56.4797 497.843 56.4285C498.036 56.3773 498.241 56.4054 498.413 56.5068C498.585 56.6082 498.71 56.7744 498.761 56.969C498.812 57.1636 498.784 57.3705 498.683 57.5443L496.776 60.8801C496.727 60.9661 496.661 61.0416 496.583 61.1021C496.505 61.1627 496.416 61.2071 496.321 61.2329C496.226 61.2587 496.127 61.2654 496.03 61.2526C495.932 61.2397 495.838 61.2076 495.753 61.1581C495.668 61.1085 495.593 61.0425 495.533 60.9638C495.473 60.8851 495.429 60.7953 495.404 60.6994C495.378 60.6035 495.372 60.5035 495.384 60.405C495.397 60.3066 495.429 60.2116 495.478 60.1256V60.0858ZM470.621 72.7043C470.621 72.5042 470.7 72.3123 470.84 72.1708C470.98 72.0293 471.17 71.9498 471.368 71.9498H475.193C475.392 71.9498 475.582 72.0293 475.722 72.1708C475.862 72.3123 475.941 72.5042 475.941 72.7043C475.941 72.9053 475.862 73.0983 475.722 73.2414C475.582 73.3845 475.392 73.4661 475.193 73.4688H471.368C471.169 73.4661 470.979 73.3845 470.839 73.2414C470.7 73.0983 470.621 72.9053 470.621 72.7043ZM473.099 63.3522C473.201 63.192 473.357 63.0752 473.538 63.0239C473.719 62.9727 473.913 62.9905 474.082 63.0742L477.386 65.0002C477.527 65.0855 477.636 65.2147 477.698 65.3684C477.76 65.522 477.77 65.6917 477.728 65.8519C477.686 66.0122 477.593 66.1542 477.464 66.2566C477.335 66.3591 477.176 66.4164 477.012 66.4199C476.882 66.4164 476.754 66.3824 476.639 66.3206L473.374 64.3847C473.214 64.2837 473.097 64.1252 473.048 63.941C472.999 63.7568 473.021 63.5606 473.109 63.3919L473.099 63.3522ZM479.608 57.5443C479.525 57.3735 479.508 57.178 479.558 56.9949C479.609 56.8118 479.725 56.654 479.883 56.5515C480.052 56.4632 480.247 56.4429 480.429 56.4945C480.612 56.5461 480.768 56.6658 480.867 56.8295L482.784 60.1752C482.82 60.3374 482.803 60.5071 482.736 60.6586C482.668 60.8102 482.553 60.9353 482.409 61.015C482.264 61.0947 482.098 61.1247 481.935 61.1003C481.772 61.076 481.621 60.9986 481.506 60.8801L479.608 57.5443ZM488.389 58.6165V54.7545C488.389 54.5544 488.467 54.3625 488.607 54.221C488.748 54.0795 488.938 54 489.136 54C489.334 54 489.524 54.0795 489.664 54.221C489.804 54.3625 489.883 54.5544 489.883 54.7545V58.6165C489.883 58.8166 489.804 59.0085 489.664 59.15C489.524 59.2915 489.334 59.371 489.136 59.371C488.938 59.371 488.748 59.2915 488.607 59.15C488.467 59.0085 488.389 58.8166 488.389 58.6165ZM489.883 65.715C489.883 65.9151 489.804 66.107 489.664 66.2485C489.524 66.39 489.334 66.4695 489.136 66.4695C487.815 66.4722 486.55 67.0036 485.617 67.9473C484.684 68.891 484.161 70.1698 484.161 71.503C484.158 71.704 484.077 71.8959 483.935 72.0372C483.794 72.1784 483.603 72.2576 483.403 72.2575C483.205 72.2575 483.015 72.178 482.875 72.0365C482.735 71.895 482.656 71.7031 482.656 71.503C482.652 70.64 482.817 69.7848 483.142 68.9864C483.466 68.1879 483.943 67.4621 484.546 66.8505C485.149 66.2388 485.866 65.7535 486.655 65.4224C487.445 65.0912 488.291 64.9208 489.146 64.9208C489.344 64.9208 489.534 65.0003 489.674 65.1418C489.814 65.2833 489.893 65.4752 489.893 65.6753L489.883 65.715ZM521.347 73.6574L518.702 70.9868L522.635 69.6564L521.347 73.6574ZM509.873 85.978C509.636 85.4748 509.373 84.9844 509.086 84.5087L519.528 73.9652L520.649 75.0969L509.873 85.978ZM512.105 100.413L510.531 102.25C510.451 102.346 510.395 102.46 510.369 102.583C510.343 102.707 510.348 102.834 510.384 102.955L510.807 104.464L508.889 105.625C508.791 105.686 508.708 105.768 508.647 105.867C508.585 105.965 508.547 106.076 508.535 106.191C508.521 106.309 508.535 106.428 508.576 106.538C508.617 106.649 508.684 106.748 508.771 106.827L510.177 108.137L509.411 109.686C509.372 109.76 509.348 109.841 509.342 109.924L509.263 110.5C509.23 110.736 509.15 110.963 509.028 111.167C508.907 111.371 508.746 111.549 508.555 111.69C508.365 111.83 508.148 111.931 507.919 111.986C507.689 112.041 507.451 112.049 507.218 112.009L504.268 111.523C503.17 111.33 502.04 111.52 501.062 112.061C500.085 112.602 499.319 113.463 498.89 114.501L498.024 116.596L481.565 116.546L486.688 107.611C486.741 107.513 486.774 107.405 486.782 107.294C486.791 107.182 486.775 107.071 486.737 106.966L486.176 105.447C486.128 105.318 486.046 105.205 485.94 105.119C484.052 103.587 482.574 101.6 481.643 99.3411V99.2616C480.905 97.4821 480.524 95.572 480.523 93.6424C480.523 90.8597 481.234 88.1242 482.587 85.7H483.295C483.304 86.335 483.494 86.9539 483.843 87.4822C484.192 88.0106 484.685 88.426 485.262 88.6784C485.388 89.6324 485.852 90.5078 486.569 91.1419C487.287 91.7759 488.207 92.1254 489.16 92.1254C490.114 92.1254 491.034 91.7759 491.751 91.1419C492.469 90.5078 492.933 89.6324 493.059 88.6784C493.636 88.426 494.129 88.0106 494.478 87.4822C494.826 86.9539 495.017 86.335 495.026 85.7H495.507C496.159 85.7 496.785 85.4385 497.245 84.9731C497.706 84.5076 497.965 83.8763 497.965 83.218C497.965 82.5598 497.706 81.9285 497.245 81.463C496.785 80.9975 496.159 80.736 495.507 80.736H495.134C495.277 80.2332 495.568 79.7864 495.969 79.4553C496.375 79.1085 496.753 78.7301 497.1 78.3235C500.287 78.6985 503.261 80.1301 505.556 82.394L505.664 82.5429L505.812 82.6521C506.423 83.2814 506.976 83.966 507.464 84.6973C507.5 84.7974 507.557 84.8888 507.631 84.9653C508.134 85.7601 508.562 86.6011 508.909 87.4771C508.922 87.551 508.949 87.6217 508.988 87.6856C509.875 90.0485 510.156 92.5998 509.804 95.1018C509.774 95.2157 509.774 95.3354 509.804 95.4493C509.866 95.6494 509.942 95.845 510.03 96.035L512.095 100.433L512.105 100.413ZM483.089 104.732L482.892 104.633C482.544 104.452 482.158 104.357 481.766 104.357C481.375 104.357 480.989 104.452 480.641 104.633C480.321 104.79 479.992 104.929 479.657 105.05C479.286 105.164 478.947 105.366 478.669 105.639C478.39 105.912 478.179 106.247 478.055 106.618L477.996 106.827C477.981 106.865 477.956 106.898 477.922 106.921C477.889 106.944 477.849 106.956 477.809 106.956H476.196C476.155 106.96 476.114 106.949 476.08 106.925C476.046 106.902 476.021 106.867 476.009 106.827L475.95 106.618C475.833 106.239 475.627 105.894 475.35 105.612C475.073 105.331 474.732 105.121 474.358 105C474.022 104.879 473.694 104.74 473.374 104.583C473.026 104.402 472.64 104.307 472.248 104.307C471.857 104.307 471.471 104.402 471.123 104.583L470.926 104.682C470.893 104.707 470.854 104.721 470.813 104.721C470.772 104.721 470.732 104.707 470.7 104.682L469.549 103.541C469.525 103.508 469.511 103.468 469.511 103.426C469.511 103.385 469.525 103.345 469.549 103.312L469.648 103.124C469.827 102.772 469.921 102.382 469.921 101.987C469.921 101.591 469.827 101.202 469.648 100.85C469.491 100.528 469.353 100.196 469.235 99.8573C469.11 99.4827 468.9 99.1429 468.622 98.8653C468.344 98.5876 468.005 98.3799 467.632 98.2589L467.426 98.1993C467.386 98.1879 467.351 98.1628 467.328 98.1284C467.305 98.0939 467.294 98.0523 467.298 98.0107V96.3627C467.294 96.3211 467.305 96.2795 467.328 96.245C467.351 96.2106 467.386 96.1854 467.426 96.174L467.632 96.1045C468.002 95.9837 468.339 95.7757 468.614 95.4979C468.89 95.22 469.095 94.8801 469.215 94.5061C469.335 94.1677 469.472 93.8363 469.628 93.5133C469.808 93.16 469.901 92.7687 469.901 92.3716C469.901 91.9746 469.808 91.5832 469.628 91.2299L469.53 91.0413C469.507 91.0078 469.494 90.968 469.494 90.9271C469.494 90.8862 469.507 90.8464 469.53 90.8129L470.69 89.6514C470.723 89.6264 470.762 89.6129 470.803 89.6129C470.844 89.6129 470.884 89.6264 470.916 89.6514L471.113 89.7506C471.461 89.9318 471.847 90.0263 472.239 90.0263C472.63 90.0263 473.016 89.9318 473.364 89.7506C473.681 89.5852 474.009 89.4458 474.348 89.3337C474.722 89.2098 475.062 88.9974 475.339 88.7142C475.616 88.4311 475.823 88.0852 475.941 87.7055L476 87.5069C476.011 87.4659 476.035 87.4298 476.069 87.4046C476.103 87.3793 476.144 87.3664 476.186 87.3679H477.799C477.841 87.3664 477.882 87.3793 477.916 87.4046C477.95 87.4298 477.975 87.4659 477.986 87.5069L478.045 87.7055C478.159 88.0655 478.354 88.3947 478.612 88.6681C478.871 88.9415 479.188 89.1521 479.539 89.284C479.29 90.2598 479.132 91.2569 479.067 92.2624C478.406 91.9767 477.693 91.8314 476.973 91.8355C476.098 91.8354 475.236 92.0532 474.464 92.4698C473.693 92.8864 473.035 93.4888 472.549 94.2236C472.063 94.9584 471.764 95.803 471.678 96.6824C471.593 97.5618 471.724 98.4489 472.059 99.2651C472.394 100.081 472.924 100.801 473.601 101.361C474.278 101.921 475.081 102.304 475.94 102.475C476.798 102.647 477.685 102.602 478.523 102.344C479.36 102.087 480.121 101.625 480.739 100.999C481.435 102.325 482.308 103.547 483.335 104.633C483.302 104.658 483.262 104.671 483.222 104.671C483.181 104.671 483.141 104.658 483.109 104.633L483.089 104.732ZM479.038 93.9105C479.066 95.7984 479.422 97.6668 480.09 99.4304C479.653 100.038 479.05 100.504 478.354 100.77C477.658 101.037 476.9 101.092 476.174 100.928C475.448 100.765 474.785 100.391 474.266 99.8527C473.748 99.314 473.396 98.6339 473.256 97.8962C473.115 97.1585 473.191 96.3954 473.475 95.7008C473.758 95.0062 474.237 94.4104 474.851 93.9869C475.466 93.5633 476.189 93.3304 476.933 93.3168C477.677 93.3032 478.409 93.5096 479.038 93.9105ZM491.456 88.9465C491.301 89.441 490.994 89.8727 490.579 90.1791C490.165 90.4856 489.664 90.6507 489.151 90.6507C488.637 90.6507 488.136 90.4856 487.722 90.1791C487.307 89.8727 487 89.441 486.845 88.9465H491.456ZM491.732 87.4374H486.56C486.095 87.4348 485.65 87.2464 485.322 86.9134C484.994 86.5804 484.81 86.1299 484.81 85.6603H493.492C493.492 86.1316 493.306 86.5836 492.976 86.9169C492.646 87.2502 492.198 87.4374 491.732 87.4374ZM482.823 82.2252H495.478C495.686 82.2824 495.87 82.4072 496.001 82.5803C496.132 82.7534 496.203 82.9653 496.203 83.1833C496.203 83.4012 496.132 83.6131 496.001 83.7863C495.87 83.9594 495.686 84.0842 495.478 84.1413H482.823C482.678 84.1813 482.525 84.1869 482.376 84.1575C482.228 84.1281 482.088 84.0647 481.968 83.972C481.848 83.8793 481.751 83.76 481.684 83.6232C481.617 83.4864 481.582 83.3359 481.582 83.1833C481.582 83.0307 481.617 82.8802 481.684 82.7434C481.751 82.6066 481.848 82.4872 481.968 82.3946C482.088 82.3019 482.228 82.2384 482.376 82.209C482.525 82.1797 482.678 82.1852 482.823 82.2252ZM483.335 78.254C481.935 77.0522 480.935 75.4458 480.468 73.6516C480.001 71.8574 480.091 69.9619 480.725 68.2209C481.359 66.4798 482.507 64.9772 484.014 63.9157C485.52 62.8542 487.313 62.2851 489.151 62.2851C490.988 62.2851 492.781 62.8542 494.287 63.9157C495.794 64.9772 496.942 66.4798 497.576 68.2209C498.21 69.9619 498.3 71.8574 497.833 73.6516C497.367 75.4458 496.366 77.0522 494.967 78.254C494.227 78.8706 493.728 79.7328 493.56 80.6864H484.711C484.543 79.7354 484.048 78.8745 483.315 78.254H483.335ZM507.218 81.9671L517.345 71.7413L518.466 72.8631L508.231 83.228C507.925 82.7971 507.597 82.3829 507.247 81.987L507.218 81.9671ZM524.415 67.9687C524.317 67.8681 524.194 67.7971 524.058 67.7638C523.923 67.7304 523.781 67.7361 523.648 67.78L517.109 69.9741H517.06L516.942 70.0337L516.834 70.123L506.156 80.9147C503.89 78.8434 501.086 77.466 498.074 76.9435C499.118 75.2203 499.652 73.231 499.611 71.2112C499.571 69.1913 498.958 67.2254 497.846 65.5461C496.733 63.8669 495.168 62.5446 493.334 61.7357C491.501 60.9269 489.476 60.6654 487.5 60.9821C485.524 61.2989 483.679 62.1806 482.184 63.5231C480.688 64.8655 479.605 66.6123 479.063 68.5569C478.52 70.5015 478.54 72.5623 479.121 74.4955C479.703 76.4287 480.82 78.1533 482.342 79.4653C482.742 79.7929 483.034 80.2363 483.177 80.736H482.804C482.305 80.7396 481.82 80.8961 481.411 81.1848C481.003 81.4734 480.691 81.8806 480.517 82.3523C480.344 82.824 480.316 83.3379 480.438 83.8258C480.56 84.3138 480.826 84.7528 481.201 85.0845C480.712 85.9697 480.301 86.8966 479.972 87.8544C479.852 87.7934 479.745 87.7082 479.659 87.6041C479.573 87.4999 479.509 87.379 479.47 87.2488L479.402 87.0502C479.291 86.7063 479.076 86.4066 478.786 86.1943C478.496 85.982 478.147 85.868 477.789 85.8688H476.196C475.849 85.8742 475.511 85.9876 475.229 86.1937C474.948 86.3998 474.736 86.6885 474.623 87.0204L474.564 87.219C474.518 87.3722 474.435 87.5118 474.324 87.6259C474.213 87.7399 474.076 87.8252 473.925 87.8742C473.521 88.0131 473.127 88.1789 472.745 88.3706C472.604 88.4454 472.447 88.4845 472.288 88.4845C472.129 88.4845 471.972 88.4454 471.831 88.3706L471.644 88.2813C471.326 88.1146 470.964 88.0545 470.611 88.1099C470.257 88.1652 469.93 88.3331 469.677 88.5891L468.497 89.7407C468.245 89.9963 468.079 90.3257 468.022 90.6821C467.966 91.0386 468.022 91.4039 468.183 91.7263L468.281 91.9149C468.353 92.0561 468.391 92.2127 468.391 92.3716C468.391 92.5306 468.353 92.6872 468.281 92.8283C468.092 93.2131 467.931 93.6112 467.799 94.0197C467.756 94.1794 467.674 94.3258 467.561 94.4454C467.448 94.5651 467.306 94.6542 467.15 94.7047H466.944C466.598 94.8176 466.298 95.0398 466.087 95.3384C465.877 95.637 465.767 95.9961 465.774 96.3627V97.9909C465.762 98.3608 465.87 98.7244 466.081 99.027C466.292 99.3296 466.595 99.5548 466.944 99.6687H467.15C467.3 99.7168 467.436 99.8005 467.548 99.9128C467.659 100.025 467.742 100.163 467.789 100.314C467.929 100.721 468.093 101.119 468.281 101.505C468.353 101.646 468.391 101.803 468.391 101.962C468.391 102.121 468.353 102.278 468.281 102.419L468.183 102.607C468.022 102.93 467.966 103.295 468.022 103.652C468.079 104.008 468.245 104.337 468.497 104.593L469.638 105.745C469.891 106.001 470.218 106.168 470.571 106.224C470.925 106.279 471.287 106.219 471.604 106.052L471.791 105.953C471.932 105.878 472.089 105.839 472.248 105.839C472.408 105.839 472.565 105.878 472.706 105.953C473.085 106.143 473.476 106.309 473.876 106.449C474.027 106.499 474.164 106.584 474.275 106.698C474.386 106.812 474.469 106.952 474.515 107.105L474.584 107.303C474.694 107.647 474.91 107.947 475.199 108.159C475.489 108.372 475.838 108.485 476.196 108.485H477.809C478.167 108.485 478.516 108.372 478.806 108.159C479.095 107.947 479.311 107.647 479.421 107.303L479.49 107.105C479.536 106.952 479.619 106.812 479.73 106.698C479.841 106.584 479.978 106.499 480.129 106.449C480.532 106.309 480.926 106.143 481.309 105.953C481.449 105.88 481.604 105.842 481.761 105.842C481.919 105.842 482.074 105.88 482.214 105.953L482.401 106.042C482.719 106.206 483.08 106.264 483.433 106.209C483.786 106.154 484.113 105.988 484.367 105.735L484.79 106.102L485.164 107.095L479.569 116.874C479.506 116.989 479.473 117.119 479.473 117.251C479.473 117.383 479.506 117.513 479.569 117.628C479.636 117.742 479.731 117.836 479.845 117.902C479.958 117.968 480.087 118.004 480.218 118.006L498.516 118.155C498.665 118.153 498.81 118.109 498.934 118.026C499.058 117.943 499.155 117.826 499.214 117.688L500.266 115.127C500.554 114.393 501.085 113.784 501.768 113.402C502.451 113.02 503.244 112.889 504.012 113.032L506.962 113.518C507.392 113.597 507.833 113.584 508.258 113.482C508.683 113.379 509.082 113.189 509.43 112.923C509.785 112.666 510.083 112.339 510.308 111.962C510.533 111.584 510.679 111.165 510.738 110.728L510.797 110.262L511.78 108.276C511.855 108.131 511.88 107.964 511.852 107.802C511.823 107.641 511.743 107.493 511.623 107.383L510.531 106.39L512.085 105.397C512.225 105.311 512.333 105.181 512.393 105.027C512.453 104.873 512.463 104.703 512.419 104.543L511.987 102.935L513.619 101.039C513.713 100.926 513.773 100.789 513.792 100.643C513.811 100.497 513.788 100.348 513.727 100.215L511.456 95.3699C511.456 95.2805 511.387 95.1912 511.348 95.1117C511.443 94.4043 511.489 93.6911 511.485 92.9772C511.484 91.107 511.168 89.2506 510.551 87.4871L522.232 75.643L522.311 75.5536C522.313 75.5272 522.313 75.5006 522.311 75.4742C522.313 75.4577 522.313 75.441 522.311 75.4246L524.484 68.8324C524.529 68.6987 524.535 68.5549 524.502 68.4178C524.469 68.2807 524.398 68.1559 524.297 68.058L524.415 67.9687Z" fill="white"/>
</g></g>



<g class=" segment-item segment-2">

<path d="M389.706 194.185C331.608 214.391 280.914 251.591 244.194 300.965L98.1548 194.772C98.5161 194.26 98.9527 193.733 99.3141 193.266C159.018 114.644 241.011 55.8459 334.602 24.5387L389.706 194.185Z" fill="#2156AE"/>
<path class="underline_segment" opacity="0.98" d="M414.751 263.079L413.652 263.455C369.27 278.876 330.539 307.28 302.481 344.987L302.105 345.484L265.972 319.15C266.182 318.864 266.423 318.563 266.634 318.262C300.829 273.243 347.785 239.576 401.381 221.65L414.751 263.079Z" fill="#E1EAF9"/>
<g class="icon" clip-path="url(#clip5_24463_1564)">
<path d="M268.816 181.56L272.696 177.658C272.789 177.565 272.9 177.49 273.022 177.44C273.144 177.389 273.275 177.363 273.407 177.363C273.539 177.363 273.67 177.389 273.792 177.44C273.914 177.49 274.024 177.565 274.117 177.658C274.304 177.847 274.408 178.101 274.408 178.366C274.408 178.631 274.304 178.885 274.117 179.074L269.545 183.702C269.451 183.796 269.339 183.87 269.216 183.921C269.093 183.972 268.961 183.998 268.828 183.998C268.569 183.997 268.321 183.895 268.136 183.714L265.554 181.24C265.459 181.148 265.385 181.038 265.333 180.917C265.281 180.796 265.254 180.666 265.253 180.535C265.252 180.403 265.277 180.273 265.326 180.151C265.376 180.029 265.449 179.918 265.541 179.824C265.634 179.731 265.744 179.656 265.865 179.605C265.987 179.553 266.117 179.526 266.249 179.525C266.381 179.524 266.512 179.549 266.634 179.598C266.757 179.647 266.868 179.72 266.962 179.812L268.816 181.56ZM276.305 182.213C276.329 183.008 276.149 183.797 275.782 184.504C275.414 185.21 274.871 185.812 274.204 186.25L269.817 189.389L265.442 186.25C264.777 185.811 264.236 185.209 263.87 184.503C263.504 183.796 263.327 183.007 263.354 182.213V175.43C268.173 172.968 271.461 172.968 276.28 175.43L276.305 182.213ZM269.842 171.589C267.042 171.693 264.314 172.497 261.908 173.928C261.747 174.013 261.612 174.141 261.518 174.297C261.425 174.454 261.376 174.632 261.377 174.814V182.2C261.346 183.317 261.599 184.423 262.114 185.415C262.628 186.407 263.386 187.254 264.318 187.875L269.261 191.445C269.439 191.579 269.656 191.651 269.879 191.651C270.102 191.651 270.319 191.579 270.497 191.445L275.44 187.875C276.365 187.252 277.117 186.406 277.627 185.417C278.137 184.427 278.388 183.325 278.356 182.213V174.827C278.354 174.645 278.304 174.467 278.211 174.312C278.118 174.156 277.984 174.028 277.825 173.94C275.414 172.511 272.682 171.707 269.879 171.601L269.842 171.589ZM279.814 182.213C279.84 183.561 279.53 184.895 278.914 186.095C278.297 187.295 277.392 188.326 276.28 189.094L269.842 193.698L263.416 189.094C262.299 188.329 261.391 187.299 260.772 186.098C260.153 184.897 259.843 183.562 259.869 182.213V173.349C267.444 168.992 272.227 168.992 279.814 173.349V182.213ZM226.936 188.232C226.883 188.172 226.842 188.102 226.816 188.026C226.791 187.95 226.781 187.869 226.788 187.789C227.223 182.142 229.852 176.887 234.116 173.14C234.313 178.313 233.615 183.48 232.052 188.417H227.381C227.214 188.416 227.054 188.35 226.936 188.232ZM237.23 154.343H259.943C259.943 157.343 258.747 160.221 256.617 162.342C254.487 164.464 251.599 165.656 248.587 165.656C245.575 165.656 242.686 164.464 240.556 162.342C238.427 160.221 237.23 157.343 237.23 154.343ZM234.425 151.696V151.105C234.425 150.935 234.493 150.773 234.613 150.653C234.734 150.532 234.897 150.465 235.067 150.465H262.118C262.288 150.468 262.449 150.537 262.569 150.656C262.689 150.775 262.758 150.936 262.761 151.105V151.696C262.758 151.865 262.689 152.026 262.569 152.145C262.449 152.265 262.288 152.333 262.118 152.336H235.067C234.897 152.336 234.734 152.269 234.613 152.149C234.493 152.029 234.425 151.866 234.425 151.696ZM240.764 138.783L241.271 146.169C241.284 146.424 241.395 146.663 241.582 146.838C241.769 147.012 242.016 147.108 242.272 147.104H242.334C242.465 147.097 242.594 147.063 242.712 147.005C242.831 146.948 242.937 146.868 243.024 146.769C243.111 146.671 243.178 146.556 243.221 146.432C243.264 146.308 243.281 146.177 243.273 146.046L242.704 137.503C243.492 137.091 244.32 136.761 245.176 136.518V148.446H236.044C236.058 146.587 236.489 144.754 237.305 143.082C238.122 141.41 239.304 139.941 240.764 138.783ZM247.598 134.007H249.575C249.685 134.006 249.79 134.049 249.868 134.125C249.947 134.201 249.992 134.304 249.995 134.413V148.459H247.178V134.462C247.173 134.404 247.18 134.346 247.199 134.29C247.217 134.235 247.248 134.185 247.287 134.142C247.327 134.099 247.375 134.065 247.428 134.042C247.482 134.018 247.54 134.006 247.598 134.007ZM254.432 137.515L253.863 146.058C253.855 146.189 253.873 146.32 253.915 146.445C253.958 146.569 254.025 146.683 254.112 146.782C254.2 146.88 254.305 146.96 254.424 147.018C254.542 147.075 254.671 147.109 254.803 147.117H254.864C255.121 147.117 255.368 147.021 255.556 146.848C255.744 146.674 255.859 146.436 255.878 146.181L256.372 138.795C257.834 139.955 259.017 141.426 259.834 143.1C260.65 144.774 261.081 146.609 261.093 148.471H251.96V136.53C252.817 136.771 253.645 137.101 254.432 137.515ZM247.586 179.751V188.368H234.153C235.803 182.944 236.444 177.266 236.044 171.614C237.298 170.736 238.639 169.989 240.048 169.386L247.586 179.751ZM248.587 177.707L242 168.659C246.285 167.297 250.889 167.297 255.173 168.659L248.587 177.707ZM259.857 188.417H249.6V179.8L257.138 169.435C258.165 169.871 259.156 170.386 260.104 170.974L258.349 171.958C258.202 172.05 258.079 172.177 257.993 172.327C257.907 172.478 257.859 172.647 257.855 172.82V182.262C257.831 184.476 258.534 186.637 259.857 188.417ZM281.334 171.909C276.861 169.262 273.314 168.093 269.842 168.093C267.191 168.14 264.581 168.757 262.192 169.903C259.819 168.25 257.164 167.041 254.358 166.333C256.628 165.249 258.546 163.549 259.891 161.428C261.235 159.307 261.951 156.851 261.958 154.343H262.118C262.467 154.343 262.813 154.274 263.135 154.141C263.457 154.008 263.75 153.813 263.997 153.568C264.244 153.322 264.439 153.03 264.573 152.709C264.706 152.388 264.775 152.044 264.775 151.696V151.105C264.776 150.581 264.622 150.067 264.332 149.63C264.042 149.192 263.628 148.849 263.144 148.643V148.532C263.129 145.279 262.019 142.124 259.992 139.573C257.964 137.022 255.136 135.222 251.96 134.462C251.96 133.809 251.7 133.183 251.236 132.721C250.773 132.259 250.144 132 249.489 132H247.512C246.856 132 246.227 132.259 245.764 132.721C245.3 133.183 245.04 133.809 245.04 134.462C241.872 135.235 239.054 137.044 237.038 139.598C235.023 142.153 233.924 145.307 233.918 148.557V148.668C233.435 148.874 233.024 149.217 232.736 149.655C232.448 150.093 232.296 150.606 232.299 151.13V151.696C232.299 152.398 232.579 153.071 233.078 153.568C233.576 154.064 234.252 154.343 234.956 154.343H235.117C235.12 156.855 235.837 159.315 237.184 161.438C238.531 163.562 240.453 165.263 242.729 166.345C237.881 167.583 233.544 170.301 230.324 174.118C227.104 177.934 225.163 182.659 224.774 187.629C224.743 187.986 224.787 188.346 224.904 188.685C225.021 189.025 225.208 189.336 225.453 189.599C225.7 189.858 225.997 190.064 226.326 190.206C226.656 190.348 227.01 190.422 227.369 190.423H261.846L262.254 190.719L269.261 195.741C269.435 195.883 269.654 195.961 269.879 195.961C270.104 195.961 270.322 195.883 270.497 195.741L277.516 190.719C278.895 189.773 280.017 188.5 280.781 187.016C281.544 185.531 281.926 183.881 281.89 182.213V172.771C281.883 172.591 281.828 172.416 281.73 172.264C281.632 172.113 281.496 171.99 281.334 171.909Z" fill="white"/>
</g></g>


<g class=" segment-item segment-1">
<path d="M236.734 314.2C202.535 364.801 184.304 424.509 184.401 485.594H0C1.1257 385.947 32.6951 289.029 90.4689 207.857L236.734 314.2Z" fill="#2156AE"/>
<path class="underline_segment" opacity="0.98" d="M297.408 352.142C297.016 352.7 296.625 353.272 296.248 353.845C270.127 392.506 256.202 438.121 256.276 484.789H209.272C209.913 427.722 227.991 372.219 261.079 325.734L297.393 352.142H297.408Z" fill="#E1EAF9"/>
<g class="icon" clip-path="url(#clip4_24463_1564)">
<path d="M106.478 392.919L115.268 396.743L128.068 383.689C130.237 381.555 131.668 378.781 132.15 375.772L135.123 358.21C135.18 357.923 135.18 357.628 135.123 357.34C135.065 357.051 134.952 356.777 134.788 356.532C134.625 356.287 134.415 356.077 134.17 355.914C133.93 355.752 133.661 355.64 133.378 355.583C133.095 355.527 132.803 355.528 132.52 355.586C132.236 355.635 131.965 355.742 131.724 355.899C131.487 356.056 131.28 356.254 131.112 356.484C130.945 356.721 130.825 356.987 130.757 357.269L128.225 370.665C128.887 371.11 129.465 371.671 129.932 372.319C130.099 372.529 130.18 372.794 130.159 373.061C130.147 373.324 130.047 373.576 129.875 373.775L122.564 381.977C122.465 382.094 122.343 382.19 122.206 382.258C122.07 382.327 121.92 382.367 121.768 382.376C121.615 382.385 121.462 382.364 121.318 382.312C121.174 382.261 121.041 382.181 120.929 382.077C120.813 381.978 120.719 381.856 120.653 381.718C120.587 381.581 120.55 381.431 120.545 381.278C120.534 381.125 120.555 380.971 120.606 380.826C120.657 380.681 120.738 380.549 120.843 380.437L127.443 373.033C127.163 372.803 126.857 372.607 126.532 372.448L126.291 372.334C125.622 372.08 124.898 372.01 124.193 372.13C123.488 372.251 122.827 372.557 122.28 373.018L117.615 377.798C116.827 378.577 115.844 379.129 114.77 379.395C112.651 379.966 108.91 381.792 107.758 387.655C107.63 388.311 107.46 388.996 107.232 389.881L106.478 392.919ZM115.524 399.282C115.367 399.285 115.211 399.25 115.069 399.182L104.644 394.646C104.39 394.535 104.183 394.338 104.06 394.089C103.968 393.831 103.968 393.549 104.06 393.29L105.042 389.21C105.269 388.369 105.412 387.784 105.54 387.113C106.962 379.752 112.096 377.641 114.23 377.127C114.885 376.953 115.484 376.608 115.965 376.128L120.772 371.321C120.813 371.271 120.861 371.227 120.914 371.192C121.625 370.613 122.45 370.192 123.336 369.958C124.221 369.725 125.146 369.683 126.049 369.837L128.509 356.87C128.645 356.297 128.887 355.755 129.22 355.272C129.557 354.791 129.982 354.38 130.472 354.059C130.968 353.746 131.518 353.528 132.093 353.417C132.666 353.303 133.256 353.303 133.829 353.417C134.405 353.533 134.955 353.756 135.45 354.073C135.936 354.4 136.356 354.816 136.687 355.3C137.027 355.779 137.264 356.323 137.384 356.898C137.503 357.472 137.503 358.064 137.384 358.638L134.44 376.171C133.878 379.65 132.224 382.859 129.718 385.33L116.349 398.94C116.243 399.051 116.114 399.139 115.972 399.198C115.83 399.257 115.678 399.285 115.524 399.282Z" fill="white"/>
<path d="M73.3253 355.586C73.0021 355.587 72.6826 355.655 72.3866 355.785C72.0954 355.925 71.8363 356.124 71.6257 356.37C71.4152 356.615 71.2578 356.902 71.1634 357.212C71.0923 357.531 71.0923 357.863 71.1634 358.182L74.0933 375.772C74.5662 378.781 75.9925 381.557 78.161 383.689L90.9615 396.743L99.7796 392.919L98.969 389.852C98.7414 388.968 98.5849 388.283 98.4569 387.627C97.2907 381.763 93.5643 379.937 91.4309 379.367C90.3944 379.095 89.4477 378.553 88.6859 377.798L83.9639 373.047C83.4065 372.572 82.729 372.26 82.0061 372.147C81.2832 372.034 80.5432 372.123 79.8678 372.405C79.5174 372.575 79.1881 372.786 78.8864 373.033L85.4573 380.422C85.5583 380.541 85.6339 380.679 85.6794 380.829C85.725 380.978 85.7396 381.135 85.7223 381.29C85.7049 381.445 85.6561 381.595 85.5787 381.73C85.5013 381.866 85.3971 381.984 85.2724 382.077C85.1594 382.181 85.027 382.26 84.8829 382.312C84.7388 382.363 84.586 382.385 84.4333 382.377C84.2785 382.368 84.127 382.328 83.9878 382.259C83.8486 382.19 83.7244 382.095 83.6226 381.977L76.3263 373.76C76.1449 373.566 76.0389 373.313 76.0276 373.047C76.0147 372.781 76.0953 372.518 76.2552 372.305C76.7475 371.663 77.3437 371.109 78.0188 370.665L75.5156 357.326C75.4005 356.829 75.1195 356.386 74.7191 356.071C74.3181 355.744 73.8135 355.572 73.2969 355.586H73.3253ZM90.7197 399.282C90.5663 399.284 90.4142 399.254 90.2724 399.195C90.1306 399.136 90.0022 399.049 89.8948 398.94L76.5254 385.316C74.0214 382.851 72.3713 379.646 71.8177 376.171L68.8451 358.596C68.7313 358.021 68.7313 357.43 68.8451 356.855C68.9672 356.276 69.2042 355.728 69.542 355.243C69.8745 354.755 70.2999 354.339 70.7936 354.016C71.2789 353.689 71.8259 353.466 72.4008 353.36C72.9784 353.246 73.5726 353.246 74.1502 353.36C74.7679 353.455 75.359 353.679 75.8854 354.016C76.382 354.339 76.8098 354.758 77.1443 355.247C77.4787 355.737 77.7131 356.288 77.8339 356.87L80.1522 369.837C81.0549 369.683 81.98 369.725 82.8654 369.958C83.7509 370.192 84.5764 370.613 85.2866 371.192L85.4289 371.321L90.222 376.128C90.7066 376.611 91.3103 376.955 91.9713 377.127C94.1048 377.698 99.2107 379.823 100.661 387.113C100.775 387.727 100.932 388.369 101.145 389.21L102.198 393.233C102.275 393.499 102.25 393.784 102.126 394.032C102.008 394.284 101.8 394.483 101.543 394.588L91.1749 399.196C91.0318 399.26 90.876 399.289 90.7197 399.282Z" fill="white"/>
<path d="M115.595 344.715H90.6626C90.51 344.72 90.358 344.694 90.216 344.637C90.0741 344.581 89.9453 344.496 89.8377 344.387C89.6793 344.223 89.5723 344.015 89.53 343.791C89.4877 343.566 89.512 343.334 89.5997 343.123C89.6875 342.912 89.8349 342.732 90.0238 342.604C90.2127 342.476 90.4348 342.407 90.6626 342.404H115.595C115.825 342.403 116.05 342.47 116.241 342.598C116.432 342.726 116.58 342.908 116.668 343.121C116.755 343.334 116.776 343.569 116.73 343.794C116.683 344.02 116.57 344.226 116.406 344.387C116.3 344.495 116.174 344.579 116.035 344.636C115.895 344.692 115.745 344.719 115.595 344.715Z" fill="white"/>
<path d="M88.6862 351.548H92.6686L90.6632 346.627L88.6862 351.548ZM94.3753 353.874H86.9368C86.749 353.863 86.5653 353.814 86.3963 353.731C86.2279 353.647 86.0853 353.519 85.9839 353.36C85.8988 353.197 85.8503 353.017 85.8417 352.832C85.8257 352.643 85.8549 352.452 85.927 352.276L89.5822 343.132C89.6663 342.915 89.8139 342.728 90.0055 342.596C90.1971 342.465 90.4239 342.395 90.6561 342.395C90.8883 342.395 91.115 342.465 91.3066 342.596C91.4983 342.728 91.6458 342.915 91.7299 343.132L95.4563 352.276C95.5066 352.458 95.5066 352.65 95.4563 352.832C95.4381 353.021 95.3746 353.202 95.2714 353.36C95.1629 353.513 95.022 353.64 94.8589 353.731C94.7092 353.811 94.5446 353.86 94.3753 353.874Z" fill="white"/>
<path d="M113.59 351.548H117.601L115.596 346.627L113.59 351.548ZM119.279 353.874H111.869C111.681 353.869 111.496 353.82 111.329 353.731C111.16 353.647 111.018 353.519 110.916 353.36C110.806 353.204 110.738 353.023 110.718 352.833C110.698 352.643 110.727 352.451 110.803 352.276L114.529 343.131C114.603 342.91 114.748 342.719 114.94 342.588C115.133 342.456 115.363 342.392 115.596 342.404C115.829 342.389 116.06 342.453 116.253 342.585C116.446 342.716 116.59 342.909 116.662 343.131L120.389 352.276C120.461 352.452 120.49 352.643 120.474 352.832C120.45 353.017 120.382 353.194 120.275 353.346C120.174 353.509 120.032 353.642 119.862 353.731C119.695 353.815 119.51 353.859 119.322 353.859L119.279 353.874Z" fill="white"/>
<path d="M85.3007 353.874C85.3182 354.566 85.4679 355.249 85.7416 355.885C86.0215 356.523 86.4225 357.099 86.9221 357.583C87.9247 358.559 89.2658 359.106 90.6627 359.109C91.3557 359.112 92.0422 358.976 92.6824 358.71C93.312 358.444 93.8861 358.062 94.3749 357.583C94.8657 357.095 95.2612 356.519 95.5411 355.885C95.8216 355.251 95.9716 354.567 95.982 353.874H85.3007ZM90.6627 361.42C89.6518 361.429 88.6499 361.23 87.7186 360.835C87.2549 360.643 86.8117 360.404 86.3959 360.122C85.5592 359.563 84.8394 358.846 84.2767 358.011C84.0026 357.587 83.7693 357.138 83.5798 356.67C83.3827 356.211 83.2349 355.733 83.1389 355.243C83.0408 354.774 82.9884 354.296 82.9824 353.817V352.79C82.9862 352.482 83.1107 352.188 83.329 351.972C83.5473 351.755 83.8418 351.634 84.1487 351.634H97.2194C97.5238 351.638 97.8147 351.761 98.03 351.977C98.2452 352.192 98.3678 352.484 98.3715 352.79V353.817C98.3655 354.296 98.3131 354.774 98.215 355.243C98.1173 355.731 97.9745 356.209 97.7883 356.67C97.5882 357.136 97.3504 357.584 97.0772 358.011C96.7953 358.424 96.4763 358.811 96.1243 359.166C95.7688 359.524 95.378 359.844 94.958 360.122C94.5456 360.41 94.1019 360.649 93.6353 360.835C92.7084 361.228 91.7115 361.427 90.7054 361.42H90.6627Z" fill="white"/>
<path d="M110.234 353.874C110.249 354.568 110.404 355.252 110.689 355.885C110.964 356.522 111.36 357.099 111.855 357.583C112.858 358.559 114.199 359.106 115.596 359.109C116.289 359.112 116.975 358.976 117.615 358.71C118.899 358.169 119.921 357.145 120.46 355.857C120.738 355.221 120.893 354.539 120.915 353.845L110.234 353.874ZM115.596 361.42C115.094 361.424 114.594 361.376 114.102 361.278C113.614 361.181 113.137 361.033 112.68 360.835C112.21 360.646 111.762 360.407 111.343 360.122C110.515 359.558 109.801 358.841 109.238 358.011C108.954 357.59 108.716 357.141 108.527 356.67C108.33 356.211 108.182 355.733 108.086 355.243C107.993 354.773 107.945 354.296 107.944 353.817V352.789C107.942 352.486 108.06 352.194 108.271 351.976C108.377 351.865 108.506 351.777 108.648 351.718C108.79 351.659 108.942 351.631 109.096 351.634H122.11C122.261 351.631 122.412 351.66 122.551 351.719C122.691 351.778 122.817 351.865 122.92 351.976C123.03 352.081 123.116 352.208 123.175 352.348C123.234 352.487 123.263 352.638 123.262 352.789V353.817C123.261 354.296 123.213 354.773 123.12 355.243C122.916 356.236 122.525 357.18 121.968 358.025C121.686 358.438 121.367 358.825 121.015 359.181C120.662 359.541 120.271 359.862 119.848 360.136C119.436 360.424 118.992 360.663 118.526 360.85C118.068 361.045 117.591 361.194 117.103 361.292C116.606 361.385 116.101 361.428 115.596 361.42Z" fill="white"/>
<path d="M102.909 365.843C102.599 365.843 102.303 365.72 102.084 365.5C101.865 365.281 101.742 364.983 101.742 364.673V336.156C101.741 336.004 101.77 335.853 101.829 335.714C101.888 335.574 101.974 335.447 102.084 335.342C102.191 335.234 102.318 335.148 102.458 335.09C102.599 335.031 102.749 335.001 102.901 335.001C103.053 335.001 103.204 335.031 103.344 335.09C103.485 335.148 103.612 335.234 103.719 335.342C103.828 335.447 103.915 335.574 103.974 335.714C104.032 335.853 104.062 336.004 104.061 336.156V364.687C104.061 364.995 103.94 365.29 103.724 365.509C103.508 365.728 103.215 365.853 102.909 365.857V365.843Z" fill="white"/>
<path d="M94.9583 372.091L110.987 372.476C110.814 371.54 110.477 370.642 109.992 369.823C109.021 368.217 107.522 367.002 105.753 366.385C104.848 366.025 103.883 365.841 102.909 365.843C101.994 365.844 101.085 365.998 100.221 366.299C99.3595 366.596 98.556 367.04 97.8455 367.612C97.1231 368.177 96.5025 368.862 96.0108 369.637C95.5324 370.394 95.1771 371.222 94.9583 372.091ZM112.267 374.816L93.6213 374.388C93.4648 374.384 93.3108 374.348 93.1688 374.282C93.0269 374.215 92.9001 374.12 92.7964 374.003C92.6868 373.888 92.6034 373.751 92.5518 373.601C92.5003 373.45 92.4818 373.291 92.4977 373.133C92.5528 372.471 92.6718 371.817 92.8533 371.178C93.0268 370.537 93.2651 369.916 93.5644 369.324C93.8558 368.73 94.2035 368.167 94.6027 367.64C95.4048 366.583 96.3989 365.688 97.5326 365.001C98.1012 364.659 98.7014 364.372 99.3247 364.145C99.9429 363.916 100.581 363.744 101.231 363.632C101.883 363.52 102.545 363.472 103.207 363.489C103.868 363.504 104.526 363.585 105.17 363.731C105.821 363.859 106.456 364.06 107.062 364.331C107.669 364.588 108.25 364.903 108.797 365.272C109.349 365.638 109.864 366.059 110.333 366.527C110.804 366.988 111.228 367.495 111.599 368.04C112.351 369.137 112.891 370.366 113.192 371.663C113.349 372.308 113.435 372.968 113.448 373.632C113.458 373.786 113.435 373.941 113.381 374.086C113.327 374.231 113.243 374.363 113.135 374.474C113.026 374.586 112.896 374.676 112.752 374.738C112.607 374.799 112.452 374.83 112.296 374.83L112.267 374.816Z" fill="white"/>
</g></g>


</g>
<defs>
<clipPath id="clip0_24463_1564">
<rect width="981.548" height="485" fill="white"/>
</clipPath>
<clipPath id="clip1_24463_1564">
<rect width="59" height="64" fill="white" transform="translate(853.774 346)"/>
</clipPath>
<clipPath id="clip2_24463_1564">
<rect width="71" height="64" fill="white" transform="translate(707.774 139)"/>
</clipPath>
<clipPath id="clip3_24463_1564">
<rect width="59" height="64" fill="white" transform="translate(465.774 54)"/>
</clipPath>
<clipPath id="clip4_24463_1564">
<rect width="69" height="64" fill="white" transform="translate(68.7739 335)"/>
</clipPath>
<clipPath id="clip5_24463_1564">
<rect width="57" height="64" fill="white" transform="translate(224.774 132)"/>
</clipPath>
</defs>
</svg>
