<svg width="110" height="64" viewBox="0 0 110 64" fill="none" xmlns="http://www.w3.org/2000/svg">
<g clip-path="url(#clip0_22760_3366)">
<mask id="mask0_22760_3366" style="mask-type:luminance" maskUnits="userSpaceOnUse" x="0" y="0" width="110" height="64">
<path d="M109.35 0H0V64H109.35V0Z" fill="white"/>
</mask>
<g mask="url(#mask0_22760_3366)">
<path fill-rule="evenodd" clip-rule="evenodd" d="M14.8497 17.173C14.9611 16.5239 14.8497 16.2643 14.2372 16.2643C13.6246 16.2643 13.6617 16.561 13.6246 16.9875C13.5875 17.4141 13.7917 17.7665 14.4042 17.785C15.0168 17.8035 14.8497 17.3214 14.8497 17.173ZM89.6185 26.4457L92.7741 25.7966C93.0711 25.7966 93.0526 25.537 93.0526 25.333C93.0526 24.2202 93.0526 23.1075 93.0526 22.0133C93.0526 21.7166 93.0525 21.6053 92.6442 21.5868C91.7779 21.5868 90.9055 21.5312 90.0269 21.4199C89.7485 21.4199 89.6 21.4199 89.6185 21.7537V26.4457ZM62.7404 22.5512C62.7404 21.7352 62.7404 20.9006 62.7404 20.0846C62.7404 19.6952 62.629 19.5468 62.2206 19.5468C61.8123 19.5468 60.8841 19.5468 60.2345 19.4355C59.9189 19.4355 59.7518 19.4355 59.7704 19.825C59.7704 21.4941 59.7704 23.1631 59.7704 24.8322C59.7704 25.166 59.8818 25.2773 60.2159 25.2773C60.8841 25.2773 61.5524 25.2773 62.2021 25.4071C62.8517 25.537 62.7589 25.2588 62.7404 24.8693C62.7218 24.109 62.7404 23.3301 62.7404 22.5512ZM83.5301 15.2999C83.5301 16.0974 83.5301 16.8948 83.5301 17.6923C83.5301 18.1003 83.5301 18.3043 84.0498 18.3043C84.8255 18.3075 85.6003 18.357 86.3701 18.4526C86.9084 18.4526 87.0013 18.3228 86.9827 17.8406C86.9827 16.4497 86.9827 15.0588 86.9827 13.6679C86.9827 12.889 86.9827 12.4254 85.9618 12.481C85.2949 12.4921 84.6288 12.43 83.9756 12.2956C83.5858 12.2956 83.4744 12.2956 83.493 12.7592C83.5301 13.5937 83.5301 14.4468 83.5301 15.2999ZM65.3391 31.5271L74.6202 29.5798C74.9358 29.5798 74.9358 29.3202 74.9358 29.0606C74.9358 28.8009 74.7502 28.6897 74.4903 28.6897L72.6341 28.5784L66.0073 28.2075C65.5618 28.2075 65.302 28.2075 65.3391 28.7824C65.3948 29.6726 65.3391 30.5257 65.3391 31.5271ZM74.9172 23.2188C74.9172 22.3842 74.9172 21.5682 74.9172 20.7523C74.9172 20.437 74.9172 20.2886 74.5088 20.2701C73.6179 20.2701 72.6526 20.2701 71.8173 20.1032C71.4646 20.1032 71.3718 20.1959 71.3718 20.5297C71.3718 22.1802 71.3718 23.8122 71.3718 25.4628C71.3718 25.8151 71.5018 25.8893 71.8173 25.9079C72.6897 25.9079 73.5622 25.9079 74.4346 26.0562C74.8244 26.0562 74.9358 26.0562 74.9172 25.6111C74.8987 24.8137 74.9172 24.109 74.9172 23.2188ZM65.3391 22.5882C65.3391 23.4228 65.3391 24.2388 65.3391 25.0548C65.3391 25.4813 65.4505 25.5926 65.8403 25.5926C66.6756 25.5926 67.4923 25.5926 68.309 25.7224C68.7731 25.7224 68.8659 25.5926 68.8659 25.1846C68.8659 23.6082 68.8659 22.0504 68.8659 20.4741C68.8659 19.9919 68.6989 19.8621 68.2534 19.8621C67.478 19.8656 66.7032 19.8222 65.9331 19.7323C65.3762 19.7323 65.302 19.8806 65.3205 20.3628C65.3391 20.845 65.3391 21.8464 65.3391 22.5882ZM80.9314 15.1701C80.9314 14.2985 80.9314 13.4268 80.9314 12.5552C80.9314 12.2585 80.9314 12.073 80.5416 12.0545C79.6506 12.0545 78.7782 11.9432 77.9057 11.8505C77.5159 11.8505 77.4231 11.9432 77.4417 12.3141C77.4417 14.0203 77.4417 15.7079 77.4417 17.4141C77.4417 17.8777 77.5902 17.9705 77.9986 17.989C78.799 17.9915 79.5985 18.0411 80.3931 18.1374C80.8757 18.1374 80.8943 18.0075 80.8943 17.6552C80.9314 16.6908 80.9314 15.9305 80.9314 15.0959V15.1701ZM8.76129 47.0681C7.98891 45.8201 7.28258 44.5326 6.64519 43.2107C6.49669 42.9139 6.34819 42.7841 5.99551 42.8583C5.04883 43.0623 4.13928 43.2478 3.11836 43.4147C2.8028 43.4147 2.63574 43.5445 2.63574 43.9339C2.63574 45.1023 2.63574 46.2521 2.63574 47.4019C2.63574 47.7357 2.63574 47.8656 3.06267 47.8285L8.76129 47.0681ZM74.8986 14.6694C74.8986 13.7792 74.8986 12.8148 74.8986 11.9803C74.8986 11.6094 74.7873 11.4981 74.416 11.4796L71.7988 11.257C71.4461 11.257 71.3533 11.257 71.3533 11.665C71.3533 13.5196 71.3533 15.2628 71.3533 17.0617C71.3533 17.3955 71.4646 17.5068 71.7988 17.5254C72.6341 17.5254 73.4879 17.5254 74.3418 17.6923C74.7873 17.6923 74.8987 17.581 74.8801 17.1545C74.8801 16.3199 74.8986 15.5039 74.8986 14.6694ZM65.3391 13.9276C65.3391 14.8177 65.3391 15.7821 65.3391 16.6166C65.3391 16.9875 65.4319 17.1174 65.8031 17.1359C66.6285 17.1453 67.4528 17.2011 68.2719 17.3028C68.7731 17.3028 68.8659 17.3028 68.8659 16.765C68.8659 15.0032 68.8659 13.2599 68.8659 11.5167C68.8659 11.1272 68.7731 10.9603 68.3647 10.9232C67.5109 10.9232 66.6756 10.8119 65.8217 10.7192C65.3948 10.7192 65.3205 10.8305 65.3205 11.2199C65.3576 12.1287 65.3391 12.9818 65.3391 13.9276ZM22.4788 22.2544V22.4213H30.275C30.5534 22.4213 30.8689 22.4213 30.8133 22.0319C30.7576 21.6424 30.8133 21.2901 30.3121 21.3086C29.8109 21.3272 29.2726 21.3086 28.7714 21.3086L14.5898 20.3999C14.1815 20.3999 13.9958 20.3999 14.0701 20.9006C14.1071 21.0529 14.1071 21.2119 14.0701 21.3643C14.0701 21.9762 14.0701 22.1802 14.8497 22.1802C17.3927 22.1432 19.9358 22.2544 22.4788 22.2544ZM59.8261 38.0736L62.6847 34.6056C62.7743 34.4819 62.82 34.3318 62.8146 34.1791V28.6155C62.8146 28.3002 62.8146 28.1518 62.4062 28.1518C61.7751 28.1518 61.1626 28.1518 60.55 28.022C59.9375 27.8922 59.8447 28.022 59.8632 28.6526C59.8632 30.8595 59.8632 33.0664 59.8632 35.2733L59.8261 38.0736ZM28.6972 42.6543C28.6786 42.296 28.6786 41.937 28.6972 41.5787C28.6972 41.078 28.6044 40.9852 28.1032 41.078C25.653 41.523 23.1842 41.931 20.6783 42.339C19.9358 42.4689 18.9705 42.339 18.5436 42.7841C18.1167 43.2292 18.5436 44.2492 18.358 45.0096C18.1724 45.7699 18.4694 45.8256 19.1376 45.7328C21.6992 45.3434 24.2793 45.0096 26.8595 44.6572C28.6972 44.3419 28.6972 44.3419 28.6972 42.6543ZM42.1177 38.6485L31.7228 40.5031C31.4258 40.5031 31.2773 40.5031 31.2773 40.9481C31.2773 41.8754 31.2773 42.8027 31.2773 43.7299C31.2773 44.0452 31.2773 44.1008 31.6857 44.0638L41.6907 42.6914C41.9506 42.6914 42.1362 42.6914 42.1177 42.3019V38.6485ZM28.6972 33.5671L19.1005 35.4216C18.5622 35.5144 18.358 35.6998 18.3951 36.2562C18.3951 37.1092 18.3951 37.9623 18.3951 38.7969C18.3951 40.0394 18.3951 40.0765 19.6202 39.8725L28.1403 38.426C28.4187 38.426 28.6972 38.426 28.6786 37.9438C28.66 36.4231 28.6972 34.9765 28.6972 33.4744V33.5671ZM31.2773 30.3217H31.4444L41.7464 28.4671C42.0991 28.4671 42.1177 28.2075 42.1177 27.9293C42.1177 26.5569 42.1177 25.2031 42.1177 23.8308C42.1177 23.4599 42.0249 23.3301 41.6351 23.4228L31.6486 25.7966C31.3887 25.7966 31.2588 25.945 31.2588 26.2417C31.2773 27.4657 31.2773 28.8566 31.2773 30.2289V30.3217ZM57.2645 38.3147C57.2645 37.7583 57.2645 37.1834 57.2645 36.6271C57.2645 36.0707 57.0974 36.0893 56.6891 36.1634C52.8652 36.8311 49.0414 37.4987 45.199 38.1292C44.7721 38.1292 44.6607 38.3518 44.6793 38.7598C44.6793 39.7427 44.6793 40.6143 44.6793 41.69C44.6793 42.0979 44.7721 42.2278 45.199 42.1721C48.9115 41.6281 52.6858 41.1089 56.522 40.6143C57.1346 40.6143 57.3573 40.3361 57.2831 39.7056C57.2407 39.212 57.2407 38.7156 57.2831 38.222L57.2645 38.3147ZM31.2773 37.8696L41.5422 36.1449C41.9692 36.1449 42.1362 35.9409 42.1177 35.4587C42.1177 34.1605 42.1177 32.8438 42.1177 31.5271C42.1177 31.0264 41.9321 30.9893 41.5237 31.082L31.6857 32.9366C31.3887 32.9366 31.2588 33.0849 31.2588 33.4187C31.2959 34.8096 31.2959 36.2376 31.2959 37.7769L31.2773 37.8696ZM77.4788 29.042L86.7599 27.1875C87.0384 27.1875 87.0755 26.9835 87.0569 26.7609V21.4755C87.0569 21.1788 87.0569 21.0861 86.6857 21.0675C85.7947 21.0675 84.8295 21.0675 84.0498 20.8821C83.66 20.8821 83.5858 20.9933 83.5858 21.3457C83.5858 22.273 83.5858 23.2002 83.5858 24.1275C83.5858 24.758 83.9013 25.6297 83.4559 25.982C83.0104 26.3344 82.2307 25.982 81.5996 26.0933C80.9685 26.2046 81.0056 25.982 81.0056 25.4999C81.0056 24.0904 81.0056 22.681 81.0056 21.253C81.0056 21.0119 81.117 20.6781 80.653 20.6595C79.7434 20.6595 78.7967 20.5668 77.9429 20.4926C77.6644 20.4926 77.5345 20.4926 77.553 20.8635L77.4788 29.042ZM62.629 14.0388C62.629 13.2228 62.629 12.3883 62.629 11.5723C62.629 11.1087 62.5176 11.0159 62.0721 11.1272L50.118 14.1316C49.7653 14.1316 49.654 14.3727 49.6725 14.7065C49.6725 15.8006 49.6725 16.8763 49.6725 17.9519C49.6725 18.5454 49.6725 18.6566 50.3779 18.5268C54.2945 17.7665 58.1184 16.2457 62.2206 16.9505C62.5919 16.9505 62.7032 16.9505 62.6847 16.5054C62.7032 15.6523 62.7218 14.8363 62.7218 13.9461L62.629 14.0388ZM57.2645 28.0035L45.0691 30.2846C44.6607 30.2846 44.6793 30.5998 44.6793 30.878C44.6793 32.2318 44.6793 33.5671 44.6793 34.9024C44.6793 35.3289 44.6793 35.4773 45.2361 35.4031C49.0971 34.7169 52.958 34.0864 56.8004 33.4373C57.0974 33.4373 57.2831 33.3445 57.2645 32.9922V28.0035ZM57.2645 22.5882C57.2645 21.8093 57.2645 21.049 57.2645 20.2701C57.2645 19.7694 57.1717 19.6024 56.6334 19.7323C52.791 20.6595 48.9672 21.5868 45.1248 22.4399C44.735 22.5326 44.6236 22.681 44.6421 23.0519C44.6421 24.3871 44.6421 25.741 44.6421 27.0762C44.6421 27.5584 44.6421 27.7253 45.2733 27.614C48.633 26.9464 51.9928 26.3344 55.3711 25.7595C57.2274 25.4071 57.2274 25.4257 57.2274 23.4784L57.2645 22.5882ZM17.764 24.8508V24.6097H8.16729C6.97931 24.6097 7.035 24.6097 6.96075 25.8151C6.91637 26.1854 6.98474 26.5604 7.15693 26.8912C7.32912 27.222 7.59713 27.4933 7.92598 27.6697C9.16966 28.4115 10.3205 29.2831 11.5271 30.062C11.8887 30.2647 12.1853 30.5657 12.3825 30.9301C12.5796 31.2945 12.6692 31.7073 12.6408 32.1206C12.6408 32.9551 12.6408 33.8082 12.6408 34.6613C12.6408 38.3703 12.6408 42.0794 12.6408 45.7885C12.6408 46.3634 12.8079 46.4932 13.3276 46.4005C13.9354 46.2512 14.558 46.1703 15.1838 46.1594C15.7778 46.1594 15.8892 45.9368 15.8892 45.3805C15.8892 41.8569 15.8892 38.3147 15.8892 34.7911C15.8892 33.6042 16.1305 33.2889 17.2814 33.0664C20.9938 32.3246 24.5949 31.5642 28.2702 30.878C28.9942 30.7482 28.6972 30.2846 28.7528 29.9322C28.8085 29.5798 28.4187 29.5242 28.1403 29.5057C23.6853 29.3017 19.2304 29.2831 14.7755 29.2089C13.6803 29.2089 13.0677 28.7082 13.0863 27.8551C13.1049 27.002 13.7174 26.5755 14.9425 26.594L27.3792 26.8908C28.8642 26.8908 28.8271 26.8908 28.8642 25.4628C28.8642 24.925 28.7157 24.8137 28.2145 24.8322L17.764 24.8508ZM6.77512 58.5477V58.7702C7.70324 59.5306 8.16729 60.6247 9.8379 60.6247C27.5092 60.532 45.199 60.6247 62.8889 60.6247C70.3138 60.6247 77.8872 60.6247 85.3863 60.6247C86.6944 60.683 87.9947 60.3946 89.1552 59.7888C90.3157 59.183 91.2953 58.2814 91.9945 57.1753C92.555 56.3421 93.0633 55.475 93.5166 54.579L106.974 27.5028C107.131 27.2056 107.261 26.8953 107.364 26.5755C107.418 26.4452 107.437 26.3029 107.418 26.1631C107.399 26.0234 107.343 25.8911 107.256 25.7799C107.169 25.6687 107.055 25.5824 106.924 25.53C106.792 25.4775 106.65 25.4607 106.51 25.4813C106.278 25.5049 106.048 25.5483 105.823 25.6111L96.0782 27.6882L67.1396 33.8082C66.7384 33.8738 66.3787 34.0934 66.1373 34.4202C64.0583 37.0165 61.9607 39.5758 59.8632 42.1721C59.7341 42.3637 59.5669 42.5267 59.3722 42.6511C59.1774 42.7755 58.9591 42.8587 58.7309 42.8954C57.1531 43.0809 55.5753 43.3034 53.9975 43.5074L38.6094 45.603L19.0262 48.2179L3.71235 50.3506C2.6543 50.499 2.67286 50.5175 2.67286 51.6117C2.67286 52.0568 2.82136 52.0939 3.21117 52.0383C4.58478 51.8528 5.97695 51.7044 7.35055 51.5375L28.1403 49.0154L48.7815 46.3634L60.2716 44.9354C60.4569 44.9408 60.6411 44.9054 60.8111 44.8317C60.9811 44.758 61.1328 44.6478 61.2554 44.5088C63.3158 41.8198 65.3948 39.1863 67.4552 36.4973C67.686 36.1922 68.0246 35.9866 68.4019 35.9224L102 28.8009L103.856 28.4486C103.804 28.5888 103.742 28.7251 103.67 28.8566C100.428 35.434 97.1672 42.0238 93.8879 48.6259C92.7741 50.8699 91.7346 53.1695 90.4724 55.3579C89.9949 56.2832 89.2622 57.0526 88.3609 57.5752C87.4596 58.0977 86.4274 58.3515 85.3863 58.3066C62.5362 58.3066 39.7046 58.4364 16.8544 58.5477H6.77512ZM7.29487 40.1321C7.29487 37.3503 7.29487 34.5685 7.29487 31.8424C7.29487 31.3973 7.01643 31.2118 6.70087 31.0264C5.56858 30.3773 4.38059 29.6726 3.19261 29.0791C2.76186 28.8879 2.40158 28.5671 2.16201 28.1615C1.92243 27.7559 1.8155 27.2858 1.85612 26.8166C1.85612 25.9079 1.85612 24.962 1.85612 24.109C1.81779 23.8773 1.83113 23.64 1.8952 23.4141C1.95926 23.1882 2.07247 22.9791 2.22674 22.802C2.38101 22.6248 2.57253 22.4839 2.78762 22.3892C3.00272 22.2946 3.23608 22.2486 3.47104 22.2544C5.17654 21.9802 6.90562 21.8807 8.63135 21.9577C9.09541 21.9577 9.29959 21.9577 9.24391 21.3828C9.22537 21.0492 9.22537 20.7149 9.24391 20.3813C9.20515 19.9221 9.3138 19.4624 9.55409 19.0689C9.79439 18.6754 10.1539 18.3686 10.5804 18.193C10.7276 18.1577 10.8549 18.0659 10.9348 17.9375C11.0148 17.809 11.0408 17.6543 11.0073 17.5068C11.0073 16.969 11.0073 16.4312 11.0073 15.8934C10.9756 15.6156 11.0036 15.3342 11.0893 15.0681C11.1751 14.802 11.3167 14.5572 11.5047 14.3501C11.6926 14.143 11.9227 13.9783 12.1794 13.8671C12.4361 13.7558 12.7137 13.7006 12.9935 13.705C13.8898 13.6494 14.7887 13.6494 15.685 13.705C16.1035 13.7382 16.4984 13.9122 16.8051 14.1985C17.1119 14.4848 17.3125 14.8665 17.3742 15.2814C17.3742 15.4297 17.3742 15.5781 17.3742 15.7265C17.3742 16.4683 17.0957 17.4697 17.5784 17.8777C18.061 18.2857 19.0077 18.0632 19.7501 18.1003C21.0495 18.193 21.0495 18.193 21.0495 16.8948C21.0495 11.7948 21.0495 6.69488 21.0495 1.59491C21.0495 0.927274 21.198 0.352368 21.8848 0.111279C22.0906 0.0296943 22.314 0.00279751 22.5333 0.0332122C22.7526 0.0636269 22.9603 0.150314 23.136 0.284817C23.3118 0.41932 23.4497 0.597044 23.5362 0.80065C23.6227 1.00426 23.6549 1.22679 23.6297 1.44654C23.6297 3.30108 23.6297 5.15561 23.6297 7.01015C23.6297 10.5152 23.6297 14.0203 23.6297 17.5254C23.6297 18.1559 23.8153 18.3043 24.4464 18.3228C26.7852 18.3228 29.1241 18.5454 31.4815 18.6752C31.7253 18.6431 31.9731 18.664 32.2081 18.7364C32.4431 18.8089 32.6596 18.9311 32.8429 19.0949C33.0262 19.2587 33.172 19.46 33.2702 19.6853C33.3684 19.9105 33.4168 20.1543 33.412 20.3999C33.5048 21.0861 33.5605 21.7722 33.6162 22.5141L44.5308 19.9734C45.2547 19.8064 45.9786 19.5839 46.7026 19.4726C47.4265 19.3614 47.2966 19.213 47.278 18.7679C47.278 17.0432 47.278 15.3185 47.278 13.5937C47.278 12.5552 47.5379 12.2214 48.5402 11.9618C53.552 10.6821 58.5639 9.4025 63.5571 8.08578C63.9869 8.00946 64.4267 8.00946 64.8565 8.08578L83.4187 9.68068L88.0407 10.1072C89.1916 10.1072 89.6185 10.645 89.6185 11.8319C89.6185 13.8905 89.6185 15.949 89.6185 18.0075C89.6185 18.5268 89.7299 18.7308 90.2868 18.7494C91.5119 18.7494 92.7555 18.8977 93.9992 18.9719C95.2429 19.0461 95.6513 19.4912 95.6698 20.7152V25.1104L104.71 23.2559C105.155 23.1631 105.619 23.0704 106.065 23.0148C106.662 22.8737 107.288 22.9129 107.863 23.1275C108.438 23.3421 108.936 23.7224 109.295 24.2202C109.704 24.7382 109.959 25.3617 110.028 26.0183C110.097 26.6749 109.978 27.3376 109.684 27.9293C108.775 29.8951 107.828 31.8053 106.826 33.734L95.9297 55.4877C95.185 57.0438 94.2498 58.5015 93.1454 59.8273C92.3444 60.8467 91.3252 61.6741 90.1624 62.2485C88.9996 62.8229 87.7229 63.1299 86.4258 63.1469C82.0451 63.1469 77.6644 63.1469 73.2837 63.1469C51.8629 63.1469 30.442 63.1469 9.02116 63.1469C8.46558 63.1828 7.90947 63.0854 7.39926 62.8628C6.88905 62.6402 6.43956 62.2989 6.08832 61.8673C4.45484 60.0128 2.69142 58.1582 0.946571 56.3037C0.643972 56.0178 0.403703 55.6726 0.240807 55.2897C0.0779104 54.9067 -0.00410489 54.4943 -0.000104542 54.0782C-0.000104542 50.3692 -0.000104542 46.6601 -0.000104542 43.0438C-0.000104542 41.5972 0.315454 41.1892 1.74475 41.0223L6.14401 40.2063C6.52253 40.1299 6.90965 40.105 7.29487 40.1321Z" fill="white"/>
</g>
</g>
<defs>
<clipPath id="clip0_22760_3366">
<rect width="110" height="64" fill="white"/>
</clipPath>
</defs>
</svg>
