<svg width="111" height="100" viewBox="0 0 111 100" fill="none" xmlns="http://www.w3.org/2000/svg">
<mask id="mask0_24637_1327" style="mask-type:luminance" maskUnits="userSpaceOnUse" x="0" y="0" width="111" height="100">
<path d="M110.82 0H0V100H110.82V0Z" fill="white"/>
</mask>
<g mask="url(#mask0_24637_1327)">
<path d="M59.7542 22.0492H68.6067V16.7214H59.7542V22.0492ZM58.0329 25.4919C57.0493 25.4919 56.3116 24.7541 56.3116 23.7705V14.9181C56.3116 13.9345 57.0493 13.1968 58.0329 13.1968H70.328C71.3116 13.1968 72.0493 13.9345 72.0493 14.9181V23.6886C72.0493 24.6722 71.3116 25.4099 70.328 25.4099H58.0329V25.4919ZM97.2952 75.6558H88.1968V90.7378H97.2952V75.6558ZM84.6722 75.6558H83.5247H79.9181V81.4755C79.9181 82.4591 79.1804 83.1968 78.1968 83.1968H71.6395C70.6558 83.1968 69.9181 82.4591 69.9181 81.4755V75.6558H65.246V90.7378H84.6722V75.6558ZM63.5247 72.1312H70.0001V58.1148H65.7378V63.5246C65.7378 64.5082 65.0001 65.246 64.0165 65.246H57.787C56.8034 65.246 56.0657 64.5082 56.0657 63.5246V58.1148H51.8034V72.2132H63.5247V72.1312ZM59.5083 61.7214H62.2952V58.0328H59.5903V61.7214H59.5083ZM73.4427 79.6722H76.5575V75.5738H73.4427V79.6722ZM73.4427 72.1312H78.2788H81.8854V58.1148H73.4427V72.1312ZM100.738 73.8525V92.4591C100.738 93.4427 100 94.1804 99.0165 94.1804H63.5247C62.5411 94.1804 61.8034 93.4427 61.8034 92.4591V75.6558H50.0821C49.0985 75.6558 48.3608 74.9181 48.3608 73.9345V56.3115C48.3608 55.3279 49.0985 54.5902 50.0821 54.5902H57.787H64.0165H83.6067C84.5903 54.5902 85.328 55.3279 85.328 56.3115V72.1312H99.0165C99.9181 72.1312 100.738 72.9509 100.738 73.8525ZM53.6886 86.3935H45.6558H30.5739H15.5739H9.83616V90.164V90.7378H14.5903H48.5247H53.5247V86.3935H53.6886ZM46.9673 94.1804H41.5575C41.8034 95.4919 42.9509 96.4755 44.2624 96.4755C45.6558 96.4755 46.8034 95.4919 46.9673 94.1804ZM21.7214 94.1804H16.3116C16.5575 95.4919 17.705 96.4755 19.0165 96.4755C20.4099 96.4755 21.4755 95.4919 21.7214 94.1804ZM17.2952 82.9509H28.8526V76.6394H25.246H17.3771V82.9509H17.2952ZM26.9673 73.1148H30.5739H38.5247V66.8033H26.9673V73.1148ZM40.246 76.5574H32.3771V82.8689H43.9345V76.5574H40.246ZM57.1312 84.6722V92.4591C57.1312 93.4427 56.3935 94.1804 55.4099 94.1804H50.4919C50.246 97.3771 47.5411 99.9181 44.2624 99.9181C40.9837 99.9181 38.3608 97.3771 38.0329 94.1804H25.246C25.0001 97.3771 22.2952 99.9181 19.0165 99.9181C15.7378 99.9181 13.0329 97.3771 12.787 94.1804H8.19682C7.21321 94.1804 6.47551 93.4427 6.47551 92.4591V90.164V84.6722V61.8033L0.655834 54.5083C0.0820633 53.7705 0.16403 52.705 0.901735 52.0492C1.63944 51.4755 2.70501 51.5574 3.36075 52.2951L9.59026 60.082C9.83616 60.4099 10.0001 60.7378 10.0001 61.1476V82.8689H14.0165V74.8361C14.0165 73.8525 14.7542 73.1148 15.7378 73.1148H23.6067V65.082C23.6067 64.0984 24.3444 63.3607 25.328 63.3607H40.328C41.3116 63.3607 42.0493 64.0984 42.0493 65.082V73.1148H45.6558C46.6394 73.1148 47.3771 73.8525 47.3771 74.8361V82.8689H55.4099C56.3116 82.9509 57.1312 83.6886 57.1312 84.6722ZM34.0165 37.3771H94.3444V34.0164H34.0165V37.3771ZM32.2952 30.4919H96.0657C97.0493 30.4919 97.787 31.2296 97.787 32.2132V39.0164C97.787 40 97.0493 40.7378 96.0657 40.7378H93.0329V68.7705C93.0329 69.7542 92.2952 70.4919 91.3116 70.4919C90.328 70.4919 89.5903 69.7542 89.5903 68.7705V40.8197H38.7706V59.9181C38.7706 60.9017 38.0329 61.6394 37.0493 61.6394C36.0657 61.6394 35.328 60.9017 35.328 59.9181V40.8197H32.2952C31.3116 40.8197 30.5739 40.082 30.5739 39.0984V32.2951C30.5739 31.3115 31.3116 30.4919 32.2952 30.4919ZM110.984 23.8525V92.4591C110.984 93.4427 110.246 94.1804 109.262 94.1804C108.279 94.1804 107.541 93.4427 107.541 92.4591V24.9181L64.1804 3.68857L20.8198 24.9181V69.8361C20.8198 70.8197 20.0821 71.5574 19.0985 71.5574C18.1148 71.5574 17.3771 70.8197 17.3771 69.8361V23.8525C17.3771 23.1968 17.787 22.623 18.3608 22.2951L63.4427 0.24595C63.9345 4.80227e-05 64.5083 4.80227e-05 65.0001 0.24595L110.082 22.2951C110.656 22.541 110.984 23.1968 110.984 23.8525Z" fill="#2B46A0"/>
</g>
</svg>
