<svg width="245" height="124" viewBox="0 0 245 124" fill="none" xmlns="http://www.w3.org/2000/svg">
<path d="M149.907 48.094L147.868 37.3007C147.826 37.0803 147.731 36.8732 147.592 36.6972C147.453 36.5212 147.273 36.3815 147.069 36.29C146.864 36.1983 146.64 36.1574 146.416 36.1709C146.192 36.1845 145.975 36.252 145.783 36.3678L136.376 42.0385C136.108 42.1996 135.903 42.446 135.793 42.7382C135.682 43.0303 135.673 43.3511 135.768 43.6489C135.862 43.9466 136.053 44.2041 136.311 44.3797C136.569 44.5553 136.879 44.6389 137.19 44.6169L140.865 44.3606C137.356 49.0756 132.076 51.0107 126.019 51.5067V20.6292H129.044C129.532 20.9923 130.131 21.2144 130.786 21.2144C132.406 21.2144 133.72 19.9018 133.72 18.2819C133.72 16.6611 132.406 15.3485 130.786 15.3485C130.13 15.3485 129.531 15.5716 129.043 15.9347H126.019V11.694C127.741 10.5495 128.88 8.59673 128.88 6.38038C128.88 2.86284 126.017 0 122.5 0C118.982 0 116.119 2.86284 116.119 6.38038C116.119 8.59673 117.259 10.5495 118.98 11.694V15.9349H115.956C115.468 15.5717 114.869 15.3486 114.213 15.3486C112.593 15.3486 111.28 16.6612 111.28 18.282C111.28 19.9018 112.593 21.2145 114.213 21.2145C114.868 21.2145 115.467 20.9925 115.955 20.6294H118.98V51.5068C112.923 51.0108 107.643 49.0757 104.135 44.3607L107.809 44.617C108.12 44.639 108.43 44.5554 108.688 44.3798C108.946 44.2042 109.138 43.9468 109.231 43.649C109.326 43.3513 109.317 43.0305 109.207 42.7384C109.096 42.4462 108.891 42.1997 108.623 42.0386L99.2163 36.3679C99.0242 36.2522 98.8069 36.1846 98.583 36.1711C98.3591 36.1576 98.1353 36.1984 97.9306 36.2901C97.7258 36.3817 97.5461 36.5214 97.407 36.6974C97.2679 36.8734 97.1734 37.0804 97.1316 37.3008L95.0916 48.0941C95.0336 48.4009 95.0805 48.7184 95.2248 48.9952C95.3692 49.2721 95.6026 49.4923 95.8874 49.6203C96.1721 49.7488 96.4918 49.7777 96.7949 49.7022C97.0981 49.6267 97.3669 49.4513 97.5581 49.2042L99.7526 46.3736C104.043 53.3215 110.79 59.1384 118.571 60.6483L121.516 63.5929C122.059 64.1357 122.939 64.1357 123.482 63.5929L126.427 60.6483C134.208 59.1395 140.956 53.3215 145.246 46.3736L147.441 49.2042C147.632 49.4513 147.901 49.6267 148.204 49.7022C148.507 49.7777 148.827 49.7488 149.111 49.6203C149.396 49.4924 149.63 49.2722 149.774 48.9953C149.919 48.7183 149.966 48.4009 149.907 48.094ZM122.5 4.69424C123.429 4.69424 124.186 5.45067 124.186 6.38038C124.186 7.31009 123.429 8.06653 122.5 8.06653C121.57 8.06653 120.813 7.31009 120.813 6.38038C120.814 5.45067 121.57 4.69424 122.5 4.69424Z" fill="white"/>
<path d="M76.02 107.44V102.84H93.02V107.44H76.02ZM102.604 116V90.84H96.8444V86.2H108.044V116H102.604ZM126.137 116V109.44H112.457V104.88L125.817 86.2H131.497V104.88H135.857V109.44H131.497V116H126.137ZM116.457 106.84L115.497 104.88H126.137V90.48L127.537 90.92L116.457 106.84ZM139.269 116V86.2H144.469L155.629 101.36H153.149L164.069 86.2H169.269V116H163.789V92.4L165.909 92.92L154.589 108H153.949L142.909 92.92L144.709 92.4V116H139.269Z" fill="white"/>
</svg>
