<svg width="83" height="80" viewBox="0 0 83 80" fill="none" xmlns="http://www.w3.org/2000/svg">
<mask id="mask0_22760_3706" style="mask-type:luminance" maskUnits="userSpaceOnUse" x="0" y="0" width="83" height="80">
<path d="M82.5397 0H0V80H82.5397V0Z" fill="white"/>
</mask>
<g mask="url(#mask0_22760_3706)">
<path d="M52.4861 60.6138C52.9094 64.9312 55.1104 68.9947 58.5813 71.619H24.2956C27.7665 68.9947 29.9676 64.9312 30.3909 60.6138H52.4861ZM81.2691 26.1587C82.0311 26.1587 82.6237 25.5661 82.6237 24.8042V6.9418C82.6237 3.13227 79.576 0.0846558 75.7665 0.0846558H6.94111C3.13158 0.0846558 0.0839844 3.13227 0.0839844 6.9418V53.7566C0.0839844 57.5661 3.13158 60.6138 6.94111 60.6138H27.5126C27.0893 64.6772 24.7189 68.3175 21.1633 70.4339L19.0469 71.7037H18.0311C14.2215 71.7037 11.1739 74.7513 11.1739 78.5609C11.1739 79.3228 11.7665 79.9153 12.5284 79.9153H31.83C32.5919 79.9153 33.1845 79.3228 33.1845 78.5609C33.1845 77.7989 32.5919 77.2063 31.83 77.2063H14.1369C14.7295 75.5979 16.2533 74.4127 18.0311 74.4127H64.8459C66.6237 74.4127 68.1475 75.5979 68.7401 77.2063H37.3327C36.5708 77.2063 35.9782 77.7989 35.9782 78.5609C35.9782 79.3228 36.5708 79.9153 37.3327 79.9153H70.3485C71.1104 79.9153 71.703 79.3228 71.703 78.5609C71.703 74.7513 68.6554 71.7037 64.8459 71.7037H63.83L61.7136 70.4339C58.1581 68.4021 55.7877 64.6772 55.3644 60.6138H75.9358C79.7453 60.6138 82.793 57.5661 82.793 53.7566V30.3069C82.793 29.545 82.2004 28.9524 81.4385 28.9524C80.6766 28.9524 80.084 29.545 80.084 30.3069V53.7566C80.084 56.0423 78.2215 57.9048 75.9358 57.9048H7.11043C4.82472 57.9048 2.96229 56.0423 2.96229 53.7566V6.9418C2.96229 4.65608 4.82472 2.79365 7.11043 2.79365H75.9358C78.2215 2.79365 80.084 4.65608 80.084 6.9418V24.8042C79.9147 25.5661 80.5072 26.1587 81.2691 26.1587Z" fill="#2B46A0"/>
</g>
<mask id="mask1_22760_3706" style="mask-type:luminance" maskUnits="userSpaceOnUse" x="0" y="0" width="83" height="80">
<path d="M82.5397 0H0V80H82.5397V0Z" fill="white"/>
</mask>
<g mask="url(#mask1_22760_3706)">
<path d="M37.2486 42.7514C38.0105 42.7514 38.6031 42.1588 38.6031 41.3969V35.8942C38.6031 35.1323 38.0105 34.5397 37.2486 34.5397H35.2169C34.9629 33.7778 34.6243 33.0159 34.2856 32.3387L35.7248 30.8995C36.2327 30.3916 36.2327 29.4604 35.7248 28.9524L31.8306 25.0582C31.3227 24.5503 30.3915 24.5503 29.8835 25.0582L28.4444 26.4974C27.7671 26.1588 27.0052 25.8201 26.2433 25.5662V23.5344C26.2433 22.7725 25.6507 22.1799 24.8888 22.1799H19.3862C18.6243 22.1799 18.0317 22.7725 18.0317 23.5344V25.5662C17.2698 25.8201 16.5079 26.1588 15.8306 26.4974L14.3915 25.0582C13.8835 24.5503 12.9523 24.5503 12.4444 25.0582L8.5502 28.9524C8.04227 29.4604 8.04227 30.3916 8.5502 30.8995L9.98934 32.3387C9.65072 33.0159 9.31209 33.7778 9.05812 34.5397H7.02638C6.26447 34.5397 5.67188 35.1323 5.67188 35.8942V41.3969C5.67188 42.1588 6.26447 42.7514 7.02638 42.7514H9.05812C9.31209 43.5133 9.65072 44.2752 9.98934 44.9524L8.5502 46.3916C8.04227 46.8995 8.04227 47.8307 8.5502 48.3387C9.05814 48.8466 9.98935 48.8466 10.4973 48.3387L12.6983 46.1376C13.1216 45.7143 13.2063 44.9524 12.8676 44.4445C12.1904 43.4286 11.7671 42.2434 11.4285 41.0582C11.2592 40.4656 10.7513 39.9577 10.074 39.9577H8.38088V37.1641H10.074C10.7513 37.1641 11.2592 36.7408 11.4285 36.0635C11.6825 34.8783 12.1904 33.6932 12.8676 32.6773C13.2063 32.1693 13.1216 31.4074 12.6983 30.9842L11.5132 29.799L13.4602 27.8519L14.6454 29.0371C15.0687 29.4604 15.8306 29.545 16.3385 29.2064C17.3544 28.5291 18.5396 28.1059 19.7248 27.7672C20.3174 27.5979 20.8253 27.09 20.8253 26.4127V24.7196H23.619V26.4127C23.619 27.09 24.0422 27.5979 24.7195 27.7672C25.9047 28.0212 27.0899 28.5291 28.1057 29.2064C28.6137 29.545 29.3756 29.4604 29.7989 29.0371L30.9841 27.8519L32.9311 29.799L31.746 30.9842C31.3227 31.4074 31.238 32.1693 31.5766 32.6773C32.2539 33.6932 32.6772 34.8783 33.0158 36.0635C33.1851 36.6561 33.6931 37.1641 34.3703 37.1641H36.0634V39.9577H34.3703C33.6931 39.9577 33.1851 40.381 33.0158 41.0582C32.7618 42.2434 32.2539 43.4286 31.5766 44.4445C31.238 44.9524 31.3227 45.7143 31.746 46.1376L32.9311 47.3228L30.9841 49.2699L29.7989 48.0847C29.3756 47.6614 28.6137 47.5768 28.1057 47.9154C27.0899 48.5926 25.9047 49.0159 24.7195 49.3545C24.1269 49.5238 23.619 50.0318 23.619 50.709V52.4022H20.8253V50.709C20.8253 50.0318 20.402 49.5238 19.7248 49.3545C18.5396 49.1006 17.3544 48.5926 16.3385 47.9154C15.8306 47.5768 15.0687 47.6614 14.6454 48.0847L12.4444 50.2857C11.9364 50.7937 11.9364 51.7249 12.4444 52.2328C12.9523 52.7408 13.8835 52.7408 14.3915 52.2328L15.8306 50.7937C16.5079 51.1323 17.2698 51.4709 18.0317 51.7249V53.7566C18.0317 54.5186 18.6243 55.1111 19.3862 55.1111H24.8888C25.6507 55.1111 26.2433 54.5186 26.2433 53.7566V51.7249C27.0052 51.4709 27.7671 51.1323 28.4444 50.7937L29.8835 52.2328C30.3915 52.7408 31.3227 52.7408 31.8306 52.2328L35.7248 48.3387C36.2327 47.8307 36.2327 46.8995 35.7248 46.3916L34.2856 44.9524C34.6243 44.2752 34.9629 43.5133 35.2169 42.7514H37.2486Z" fill="#2B46A0"/>
</g>
<mask id="mask2_22760_3706" style="mask-type:luminance" maskUnits="userSpaceOnUse" x="0" y="0" width="83" height="80">
<path d="M82.5397 0H0V80H82.5397V0Z" fill="white"/>
</mask>
<g mask="url(#mask2_22760_3706)">
<path d="M22.0954 34.455C24.3811 34.455 26.2436 36.3175 26.2436 38.6032C26.2436 40.8889 24.3811 42.7513 22.0954 42.7513C19.8097 42.7513 17.9473 40.8889 17.9473 38.6032C17.9473 36.3175 19.8097 34.455 22.0954 34.455ZM22.0954 45.4603C25.905 45.4603 28.9526 42.4127 28.9526 38.6032C28.9526 34.7937 25.905 31.746 22.0954 31.746C18.2859 31.746 15.2383 34.7937 15.2383 38.6032C15.2383 42.4127 18.2859 45.4603 22.0954 45.4603Z" fill="#2B46A0"/>
</g>
<mask id="mask3_22760_3706" style="mask-type:luminance" maskUnits="userSpaceOnUse" x="0" y="0" width="83" height="80">
<path d="M82.5397 0H0V80H82.5397V0Z" fill="white"/>
</mask>
<g mask="url(#mask3_22760_3706)">
<path d="M57.5661 8.80422C57.0581 8.21163 56.2116 8.12698 55.619 8.55026L48.7618 14.0529C48.4232 14.3069 48.2539 14.7301 48.2539 15.1534C48.2539 15.5767 48.4232 16 48.7618 16.254L55.619 21.7566C55.8729 21.9259 56.2116 22.0952 56.4655 22.0952C56.8888 22.0952 57.3121 21.9259 57.5661 21.5873C58.074 20.9947 57.9047 20.1481 57.3121 19.6402L51.8094 15.2381L57.3121 10.836C57.9893 10.2434 58.074 9.39682 57.5661 8.80422Z" fill="#2B46A0"/>
</g>
<mask id="mask4_22760_3706" style="mask-type:luminance" maskUnits="userSpaceOnUse" x="0" y="0" width="83" height="80">
<path d="M82.5397 0H0V80H82.5397V0Z" fill="white"/>
</mask>
<g mask="url(#mask4_22760_3706)">
<path d="M76.6988 14.0529L69.8416 8.55027C69.249 8.04233 68.4024 8.21165 67.8945 8.80424C67.3866 9.39683 67.5559 10.2434 68.1485 10.7513L73.6511 15.1534L68.1485 19.5556C67.5559 20.0635 67.4712 20.9101 67.8945 21.5027C68.1485 21.8413 68.5718 22.0106 68.995 22.0106C69.3337 22.0106 69.5876 21.9259 69.8416 21.672L76.6988 16.1693C77.0374 15.9153 77.2067 15.4921 77.2067 15.0688C77.2067 14.7302 76.9527 14.3915 76.6988 14.0529Z" fill="#2B46A0"/>
</g>
<mask id="mask5_22760_3706" style="mask-type:luminance" maskUnits="userSpaceOnUse" x="0" y="0" width="83" height="80">
<path d="M82.5397 0H0V80H82.5397V0Z" fill="white"/>
</mask>
<g mask="url(#mask5_22760_3706)">
<path d="M60.1907 21.926C60.36 22.0106 60.5293 22.0106 60.6986 22.0106C61.2912 22.0106 61.7991 21.672 61.9684 21.0794L66.1166 10.0741C66.3706 9.39686 66.032 8.5503 65.27 8.29633C64.5928 8.04236 63.7462 8.38099 63.4923 9.14289L59.3441 20.1482C59.0902 20.9101 59.4288 21.672 60.1907 21.926Z" fill="#2B46A0"/>
</g>
<mask id="mask6_22760_3706" style="mask-type:luminance" maskUnits="userSpaceOnUse" x="0" y="0" width="83" height="80">
<path d="M82.5397 0H0V80H82.5397V0Z" fill="white"/>
</mask>
<g mask="url(#mask6_22760_3706)">
<path d="M42.751 30.3069C42.751 31.0688 43.3436 31.6614 44.1055 31.6614H49.6081C50.37 31.6614 50.9626 31.0688 50.9626 30.3069C50.9626 29.545 50.37 28.9524 49.6081 28.9524H44.1055C43.3436 28.9524 42.751 29.545 42.751 30.3069Z" fill="#2B46A0"/>
</g>
<mask id="mask7_22760_3706" style="mask-type:luminance" maskUnits="userSpaceOnUse" x="0" y="0" width="83" height="80">
<path d="M82.5397 0H0V80H82.5397V0Z" fill="white"/>
</mask>
<g mask="url(#mask7_22760_3706)">
<path d="M56.5498 30.3069C56.5498 30.4762 56.5498 30.6455 56.4651 30.8148C56.3805 30.9841 56.2958 31.1535 56.1265 31.2381C55.9572 31.4074 55.8726 31.4921 55.7032 31.5767C55.5339 31.6614 55.3646 31.6614 55.1953 31.6614C55.026 31.6614 54.8567 31.6614 54.6874 31.5767C54.5181 31.4921 54.3488 31.4074 54.2641 31.2381C54.0948 31.0688 54.0101 30.9841 53.9255 30.8148C53.8408 30.6455 53.8408 30.4762 53.8408 30.3069C53.8408 30.1376 53.8408 29.9683 53.9255 29.799C54.0101 29.6296 54.0948 29.4603 54.2641 29.3757C54.4334 29.2064 54.5181 29.1217 54.6874 29.037C54.8567 28.9524 55.026 28.9524 55.1953 28.9524C55.3646 28.9524 55.5339 28.9524 55.7032 29.037C55.8726 29.1217 56.0419 29.2064 56.1265 29.3757C56.2958 29.545 56.3805 29.6296 56.4651 29.799C56.4651 29.9683 56.5498 30.1376 56.5498 30.3069Z" fill="#2B46A0"/>
</g>
<mask id="mask8_22760_3706" style="mask-type:luminance" maskUnits="userSpaceOnUse" x="0" y="0" width="83" height="80">
<path d="M82.5397 0H0V80H82.5397V0Z" fill="white"/>
</mask>
<g mask="url(#mask8_22760_3706)">
<path d="M62.0524 35.8095C62.0524 35.0476 61.4598 34.455 60.6979 34.455H55.1953C54.4334 34.455 53.8408 35.0476 53.8408 35.8095C53.8408 36.5714 54.4334 37.164 55.1953 37.164H60.6979C61.3752 37.164 62.0524 36.5714 62.0524 35.8095Z" fill="#2B46A0"/>
</g>
<mask id="mask9_22760_3706" style="mask-type:luminance" maskUnits="userSpaceOnUse" x="0" y="0" width="83" height="80">
<path d="M82.5397 0H0V80H82.5397V0Z" fill="white"/>
</mask>
<g mask="url(#mask9_22760_3706)">
<path d="M67.5557 35.8095C67.5557 35.9788 67.5557 36.1481 67.471 36.3175C67.3863 36.4868 67.3017 36.6561 67.1324 36.7407C66.9631 36.91 66.8784 36.9947 66.7091 37.0794C66.5398 37.164 66.3705 37.164 66.2012 37.164C66.0318 37.164 65.8626 37.164 65.6932 37.0794C65.5239 36.9947 65.3546 36.91 65.27 36.7407C65.1006 36.5714 65.016 36.4868 64.9313 36.3175C64.8467 36.1481 64.8467 35.9788 64.8467 35.8095C64.8467 35.6402 64.8467 35.4709 64.9313 35.3016C65.016 35.1323 65.1006 34.963 65.27 34.8783C65.4393 34.709 65.5239 34.6243 65.6932 34.5397C65.8626 34.455 66.0318 34.455 66.2012 34.455C66.3705 34.455 66.5398 34.455 66.7091 34.5397C66.8784 34.6243 67.0477 34.709 67.1324 34.8783C67.3017 35.0476 67.3863 35.1323 67.471 35.3016C67.471 35.4709 67.5557 35.6402 67.5557 35.8095Z" fill="#2B46A0"/>
</g>
<mask id="mask10_22760_3706" style="mask-type:luminance" maskUnits="userSpaceOnUse" x="0" y="0" width="83" height="80">
<path d="M82.5397 0H0V80H82.5397V0Z" fill="white"/>
</mask>
<g mask="url(#mask10_22760_3706)">
<path d="M45.46 41.3122C45.46 41.4815 45.46 41.6508 45.3753 41.8201C45.2907 41.9894 45.206 42.1588 45.0367 42.2434C44.8674 42.4127 44.7827 42.4974 44.6134 42.582C44.4441 42.6667 44.2748 42.6667 44.1055 42.6667C43.9362 42.6667 43.7668 42.6667 43.5975 42.582C43.4282 42.4974 43.2589 42.4127 43.1743 42.2434C43.0049 42.0741 42.9203 41.9894 42.8356 41.8201C42.751 41.6508 42.751 41.4815 42.751 41.3122C42.751 41.1429 42.751 40.9736 42.8356 40.8043C42.9203 40.635 43.0049 40.4656 43.1743 40.381C43.3436 40.2117 43.4282 40.127 43.5975 40.0424C43.7668 39.9577 43.9362 39.9577 44.1055 39.9577C44.2748 39.9577 44.4441 39.9577 44.6134 40.0424C44.7827 40.127 44.952 40.2117 45.0367 40.381C45.206 40.5503 45.2907 40.635 45.3753 40.8043C45.46 40.9736 45.46 41.1429 45.46 41.3122Z" fill="#2B46A0"/>
</g>
<mask id="mask11_22760_3706" style="mask-type:luminance" maskUnits="userSpaceOnUse" x="0" y="0" width="83" height="80">
<path d="M82.5397 0H0V80H82.5397V0Z" fill="white"/>
</mask>
<g mask="url(#mask11_22760_3706)">
<path d="M57.9053 41.3122C57.9053 41.4815 57.9053 41.6508 57.8206 41.8201C57.736 41.9894 57.6513 42.1588 57.482 42.2434C57.3127 42.4127 57.228 42.4974 57.0587 42.582C56.8894 42.6667 56.7201 42.6667 56.5508 42.6667C56.3815 42.6667 56.2122 42.6667 56.0428 42.582C55.8735 42.4974 55.7042 42.4127 55.6196 42.2434C55.4503 42.0741 55.3656 41.9894 55.281 41.8201C55.1963 41.6508 55.1963 41.4815 55.1963 41.3122C55.1963 41.1429 55.1963 40.9736 55.281 40.8043C55.3656 40.635 55.4503 40.4656 55.6196 40.381C55.7889 40.2117 55.8735 40.127 56.0428 40.0424C56.2122 39.9577 56.3815 39.9577 56.5508 39.9577C56.7201 39.9577 56.8894 39.9577 57.0587 40.0424C57.228 40.127 57.3974 40.2117 57.482 40.381C57.6513 40.5503 57.736 40.635 57.8206 40.8043C57.8206 40.9736 57.9053 41.1429 57.9053 41.3122Z" fill="#2B46A0"/>
</g>
<mask id="mask12_22760_3706" style="mask-type:luminance" maskUnits="userSpaceOnUse" x="0" y="0" width="83" height="80">
<path d="M82.5397 0H0V80H82.5397V0Z" fill="white"/>
</mask>
<g mask="url(#mask12_22760_3706)">
<path d="M71.7041 41.3122C71.7041 41.4815 71.7041 41.6508 71.6195 41.8201C71.5348 41.9894 71.4501 42.1588 71.2808 42.2434C71.1115 42.4127 71.0268 42.4974 70.8575 42.582C70.6882 42.6667 70.5189 42.6667 70.3496 42.6667C70.1803 42.6667 70.011 42.6667 69.8417 42.582C69.6724 42.4974 69.5031 42.4127 69.4184 42.2434C69.2491 42.0741 69.1644 41.9894 69.0798 41.8201C68.9951 41.6508 68.9951 41.4815 68.9951 41.3122C68.9951 41.1429 68.9951 40.9736 69.0798 40.8043C69.1644 40.635 69.2491 40.4656 69.4184 40.381C69.5877 40.2117 69.6724 40.127 69.8417 40.0424C70.011 39.9577 70.1803 39.9577 70.3496 39.9577C70.5189 39.9577 70.6882 39.9577 70.8575 40.0424C71.0268 40.127 71.1962 40.2117 71.2808 40.381C71.4501 40.5503 71.5348 40.635 71.6195 40.8043C71.6195 40.9736 71.7041 41.1429 71.7041 41.3122Z" fill="#2B46A0"/>
</g>
<mask id="mask13_22760_3706" style="mask-type:luminance" maskUnits="userSpaceOnUse" x="0" y="0" width="83" height="80">
<path d="M82.5397 0H0V80H82.5397V0Z" fill="white"/>
</mask>
<g mask="url(#mask13_22760_3706)">
<path d="M63.4072 46.8148C63.4072 46.9841 63.4072 47.1534 63.3226 47.3228C63.2379 47.4921 63.1533 47.6614 62.984 47.746C62.8147 47.9154 62.73 48 62.5607 48.0847C62.3914 48.1693 62.2221 48.1693 62.0527 48.1693C61.8834 48.1693 61.7141 48.1693 61.5448 48.0847C61.3755 48 61.2062 47.9154 61.1215 47.746C60.9522 47.5767 60.8676 47.4921 60.7829 47.3228C60.6982 47.1534 60.6982 46.9841 60.6982 46.8148C60.6982 46.6455 60.6982 46.4762 60.7829 46.3069C60.8676 46.1376 60.9522 45.9683 61.1215 45.8836C61.2908 45.7143 61.3755 45.6296 61.5448 45.545C61.7141 45.4603 61.8834 45.4603 62.0527 45.4603C62.2221 45.4603 62.3914 45.4603 62.5607 45.545C62.73 45.6296 62.8993 45.7143 62.984 45.8836C63.1533 46.0529 63.2379 46.1376 63.3226 46.3069C63.4072 46.4762 63.4072 46.6455 63.4072 46.8148Z" fill="#2B46A0"/>
</g>
<mask id="mask14_22760_3706" style="mask-type:luminance" maskUnits="userSpaceOnUse" x="0" y="0" width="83" height="80">
<path d="M82.5397 0H0V80H82.5397V0Z" fill="white"/>
</mask>
<g mask="url(#mask14_22760_3706)">
<path d="M60.6133 31.6614H64.7614C65.5233 31.6614 66.1159 31.0688 66.1159 30.3069C66.1159 29.545 65.5233 28.9524 64.7614 28.9524H60.6133C59.8514 28.9524 59.2588 29.545 59.2588 30.3069C59.2588 31.0688 59.8514 31.6614 60.6133 31.6614Z" fill="#2B46A0"/>
</g>
<mask id="mask15_22760_3706" style="mask-type:luminance" maskUnits="userSpaceOnUse" x="0" y="0" width="83" height="80">
<path d="M82.5397 0H0V80H82.5397V0Z" fill="white"/>
</mask>
<g mask="url(#mask15_22760_3706)">
<path d="M75.7673 28.9524H70.2647C69.5028 28.9524 68.9102 29.545 68.9102 30.3069C68.9102 31.0688 69.5028 31.6614 70.2647 31.6614H75.7673C76.5292 31.6614 77.1218 31.0688 77.1218 30.3069C77.2065 29.545 76.5292 28.9524 75.7673 28.9524Z" fill="#2B46A0"/>
</g>
<mask id="mask16_22760_3706" style="mask-type:luminance" maskUnits="userSpaceOnUse" x="0" y="0" width="83" height="80">
<path d="M82.5397 0H0V80H82.5397V0Z" fill="white"/>
</mask>
<g mask="url(#mask16_22760_3706)">
<path d="M44.1055 37.164H49.6081C50.37 37.164 50.9626 36.5714 50.9626 35.8095C50.9626 35.0476 50.37 34.455 49.6081 34.455H44.1055C43.3436 34.455 42.751 35.0476 42.751 35.8095C42.751 36.5714 43.3436 37.164 44.1055 37.164Z" fill="#2B46A0"/>
</g>
<mask id="mask17_22760_3706" style="mask-type:luminance" maskUnits="userSpaceOnUse" x="0" y="0" width="83" height="80">
<path d="M82.5397 0H0V80H82.5397V0Z" fill="white"/>
</mask>
<g mask="url(#mask17_22760_3706)">
<path d="M75.7673 34.455H71.6192C70.8572 34.455 70.2646 35.0476 70.2646 35.8095C70.2646 36.5714 70.8572 37.164 71.6192 37.164H75.7673C76.5292 37.164 77.1218 36.5714 77.1218 35.8095C77.2065 35.0476 76.5292 34.455 75.7673 34.455Z" fill="#2B46A0"/>
</g>
<mask id="mask18_22760_3706" style="mask-type:luminance" maskUnits="userSpaceOnUse" x="0" y="0" width="83" height="80">
<path d="M82.5397 0H0V80H82.5397V0Z" fill="white"/>
</mask>
<g mask="url(#mask18_22760_3706)">
<path d="M66.1159 41.3122C66.1159 40.5503 65.5233 39.9577 64.7614 39.9577H61.9678C61.2059 39.9577 60.6133 40.5503 60.6133 41.3122C60.6133 42.0741 61.2059 42.6667 61.9678 42.6667H64.7614C65.5233 42.7514 66.1159 42.0741 66.1159 41.3122Z" fill="#2B46A0"/>
</g>
<mask id="mask19_22760_3706" style="mask-type:luminance" maskUnits="userSpaceOnUse" x="0" y="0" width="83" height="80">
<path d="M82.5397 0H0V80H82.5397V0Z" fill="white"/>
</mask>
<g mask="url(#mask19_22760_3706)">
<path d="M49.6084 39.9577C48.8465 39.9577 48.2539 40.5503 48.2539 41.3122C48.2539 42.0741 48.8465 42.6667 49.6084 42.6667H50.9629C51.7248 42.6667 52.3174 42.0741 52.3174 41.3122C52.3174 40.5503 51.7248 39.9577 50.9629 39.9577H49.6084Z" fill="#2B46A0"/>
</g>
<mask id="mask20_22760_3706" style="mask-type:luminance" maskUnits="userSpaceOnUse" x="0" y="0" width="83" height="80">
<path d="M82.5397 0H0V80H82.5397V0Z" fill="white"/>
</mask>
<g mask="url(#mask20_22760_3706)">
<path d="M77.2061 41.3122C77.2061 41.4815 77.2061 41.6508 77.1214 41.8201C77.0368 41.9894 76.9521 42.1588 76.7828 42.2434C76.6135 42.4127 76.5288 42.4974 76.3595 42.582C76.1902 42.6667 76.0209 42.6667 75.8516 42.6667C75.6823 42.6667 75.5129 42.6667 75.3436 42.582C75.1743 42.4974 75.005 42.4127 74.9204 42.2434C74.751 42.0741 74.6664 41.9894 74.5818 41.8201C74.4971 41.6508 74.4971 41.4815 74.4971 41.3122C74.4971 41.1429 74.4971 40.9736 74.5818 40.8043C74.6664 40.635 74.751 40.4656 74.9204 40.381C75.0897 40.2117 75.1743 40.127 75.3436 40.0424C75.5129 39.9577 75.6823 39.9577 75.8516 39.9577C76.0209 39.9577 76.1902 39.9577 76.3595 40.0424C76.5288 40.127 76.6981 40.2117 76.7828 40.381C76.9521 40.5503 77.0368 40.635 77.1214 40.8043C77.1214 40.9736 77.2061 41.1429 77.2061 41.3122Z" fill="#2B46A0"/>
</g>
<mask id="mask21_22760_3706" style="mask-type:luminance" maskUnits="userSpaceOnUse" x="0" y="0" width="83" height="80">
<path d="M82.5397 0H0V80H82.5397V0Z" fill="white"/>
</mask>
<g mask="url(#mask21_22760_3706)">
<path d="M44.1055 48.254H56.4652C57.2272 48.254 57.8197 47.6614 57.8197 46.8995C57.8197 46.1376 57.2272 45.545 56.4652 45.545H44.1055C43.3436 45.545 42.751 46.1376 42.751 46.8995C42.751 47.6614 43.3436 48.254 44.1055 48.254Z" fill="#2B46A0"/>
</g>
<mask id="mask22_22760_3706" style="mask-type:luminance" maskUnits="userSpaceOnUse" x="0" y="0" width="83" height="80">
<path d="M82.5397 0H0V80H82.5397V0Z" fill="white"/>
</mask>
<g mask="url(#mask22_22760_3706)">
<path d="M67.5557 48.254H75.852C76.6139 48.254 77.2065 47.6614 77.2065 46.8995C77.2065 46.1376 76.6139 45.545 75.852 45.545H67.5557C66.7938 45.545 66.2012 46.1376 66.2012 46.8995C66.2012 47.6614 66.7938 48.254 67.5557 48.254Z" fill="#2B46A0"/>
</g>
<mask id="mask23_22760_3706" style="mask-type:luminance" maskUnits="userSpaceOnUse" x="0" y="0" width="83" height="80">
<path d="M82.5397 0H0V80H82.5397V0Z" fill="white"/>
</mask>
<g mask="url(#mask23_22760_3706)">
<path d="M9.65139 13.7989H12.445V16.5926H9.65139V13.7989ZM13.7995 19.3015C14.5614 19.3015 15.154 18.709 15.154 17.947V12.4444C15.154 11.6825 14.5614 11.0899 13.7995 11.0899H8.29689C7.53498 11.0899 6.94238 11.6825 6.94238 12.4444V17.947C6.94238 18.709 7.53498 19.3015 8.29689 19.3015H13.7995Z" fill="#2B46A0"/>
</g>
<mask id="mask24_22760_3706" style="mask-type:luminance" maskUnits="userSpaceOnUse" x="0" y="0" width="83" height="80">
<path d="M82.5397 0H0V80H82.5397V0Z" fill="white"/>
</mask>
<g mask="url(#mask24_22760_3706)">
<path d="M20.7409 11.0053H23.5346V16.5079H20.7409V11.0053ZM19.3018 19.3016H24.8044C25.5663 19.3016 26.1589 18.709 26.1589 17.9471V9.65076C26.1589 8.88886 25.5663 8.29626 24.8044 8.29626H19.3018C18.5399 8.29626 17.9473 8.88886 17.9473 9.65076V17.9471C17.9473 18.709 18.5399 19.3016 19.3018 19.3016Z" fill="#2B46A0"/>
</g>
<mask id="mask25_22760_3706" style="mask-type:luminance" maskUnits="userSpaceOnUse" x="0" y="0" width="83" height="80">
<path d="M82.5397 0H0V80H82.5397V0Z" fill="white"/>
</mask>
<g mask="url(#mask25_22760_3706)">
<path d="M35.8943 19.3016C36.6562 19.3016 37.2488 18.709 37.2488 17.9471V6.94178C37.2488 6.17987 36.6562 5.58728 35.8943 5.58728H30.3916C29.6297 5.58728 29.0371 6.17987 29.0371 6.94178V17.9471C29.0371 18.709 29.6297 19.3016 30.3916 19.3016C31.1535 19.3016 31.7461 18.709 31.7461 17.9471V8.29628H34.5398V17.9471C34.4551 18.709 35.1324 19.3016 35.8943 19.3016Z" fill="#2B46A0"/>
</g>
</svg>
