<svg width="64" height="64" viewBox="0 0 64 64" fill="none" xmlns="http://www.w3.org/2000/svg">
<path d="M59.4074 48.094L57.3676 37.3007C57.3258 37.0803 57.2313 36.8732 57.0922 36.6972C56.9531 36.5212 56.7734 36.3815 56.5686 36.29C56.3639 36.1983 56.1401 36.1574 55.9162 36.1709C55.6923 36.1845 55.475 36.252 55.2829 36.3678L45.876 42.0385C45.6084 42.1996 45.4029 42.446 45.2926 42.7382C45.1822 43.0303 45.1735 43.3511 45.2677 43.6489C45.3616 43.9466 45.5531 44.2041 45.8112 44.3797C46.0693 44.5553 46.379 44.6389 46.6905 44.6169L50.3647 44.3606C46.8565 49.0756 41.576 51.0107 35.5192 51.5067V20.6292H38.544C39.0318 20.9923 39.6314 21.2144 40.2861 21.2144C41.9058 21.2144 43.2195 19.9018 43.2195 18.2819C43.2195 16.6611 41.9058 15.3485 40.2861 15.3485C39.6303 15.3485 39.0306 15.5716 38.5428 15.9347H35.5191V11.694C37.2406 10.5495 38.3798 8.59673 38.3798 6.38038C38.3799 2.86284 35.5174 0 31.9997 0C28.482 0 25.6192 2.86284 25.6192 6.38038C25.6192 8.59673 26.7585 10.5495 28.4798 11.694V15.9349H25.4563C24.9685 15.5717 24.3689 15.3486 23.7131 15.3486C22.0934 15.3486 20.7797 16.6612 20.7797 18.282C20.7797 19.9018 22.0934 21.2145 23.7131 21.2145C24.3678 21.2145 24.9674 20.9925 25.4552 20.6294H28.4798V51.5068C22.4232 51.0108 17.1427 49.0757 13.6346 44.3607L17.3089 44.617C17.6203 44.639 17.93 44.5554 18.1881 44.3798C18.4462 44.2042 18.6376 43.9468 18.7315 43.649C18.8257 43.3513 18.817 43.0305 18.7067 42.7384C18.5964 42.4462 18.3909 42.1997 18.1234 42.0386L8.71633 36.3679C8.5242 36.2522 8.30692 36.1846 8.08303 36.1711C7.85914 36.1576 7.6353 36.1984 7.43063 36.2901C7.22579 36.3817 7.04614 36.5214 6.90701 36.6974C6.76787 36.8734 6.67339 37.0804 6.63162 37.3008L4.59164 48.0941C4.53356 48.4009 4.58048 48.7184 4.72485 48.9952C4.86922 49.2721 5.10261 49.4923 5.38742 49.6203C5.67213 49.7488 5.99184 49.7777 6.29495 49.7022C6.59806 49.6267 6.8669 49.4513 7.05807 49.2042L9.2526 46.3736C13.5431 53.3215 20.2898 59.1384 28.071 60.6483L31.0157 63.5929C31.5595 64.1357 32.4392 64.1357 32.9821 63.5929L35.9267 60.6483C43.708 59.1395 50.4555 53.3215 54.7462 46.3736L56.9407 49.2042C57.1319 49.4513 57.4007 49.6267 57.7038 49.7022C58.0069 49.7777 58.3266 49.7488 58.6113 49.6203C58.8962 49.4924 59.1297 49.2722 59.2741 48.9953C59.4186 48.7183 59.4655 48.4009 59.4074 48.094ZM31.9997 4.69424C32.9294 4.69424 33.6857 5.45067 33.6857 6.38038C33.6857 7.31009 32.9294 8.06653 31.9997 8.06653C31.07 8.06653 30.3134 7.31009 30.3134 6.38038C30.3135 5.45067 31.07 4.69424 31.9997 4.69424Z" fill="white"/>
</svg>
