<svg width="1143" height="474" viewBox="0 0 1143 474" fill="none" xmlns="http://www.w3.org/2000/svg">
<path d="M1032.03 375.366H816.045L776.726 307.384L789.832 284.688L721.156 166.085L816.045 2.19634H1032.03L1140.03 188.781L1032.03 375.366ZM707.945 188.781L719.793 168.282L787.211 284.793L775.363 305.292L707.945 188.781ZM679.216 471.273H463.226L368.337 307.384L437.013 188.781L423.907 166.085L463.226 98.1033H679.216L718.534 166.085L705.428 188.781L774.105 307.384L679.216 471.273ZM365.925 307.384L326.607 375.366H110.616L2.51639 188.781L110.512 2.19634H326.502L421.391 166.085L422.649 168.177L434.497 188.676L367.079 305.292L365.925 307.384ZM1033.19 0H814.682L719.793 163.889L680.474 95.907H461.967L422.649 163.889L327.76 0H109.253L0 188.781L109.253 377.457H327.76L367.079 309.475L461.967 473.364H680.474L775.363 309.475L814.682 377.457H1033.19L1142.44 188.676L1033.19 0Z" fill="#F7FBFF"/>
</svg>
