<svg width="1738" height="1053" viewBox="0 0 1738 1053" fill="none" xmlns="http://www.w3.org/2000/svg">
<path d="M1201.83 608.741C1198.4 612.439 1196.22 619.857 1193.95 624.385C1193.67 624.81 1193.55 625.318 1193.59 625.825C1193.73 626.234 1193.99 626.587 1194.35 626.824C1195.17 627.387 1196.11 627.757 1197.09 627.906C1198.08 628.055 1199.08 627.979 1200.03 627.684C1208.69 625.305 1211.96 615.898 1206.35 608.691C1203.94 605.602 1204.66 605.692 1201.83 608.691V608.741ZM1518.45 790.895C1511.2 782.803 1507.23 772.299 1507.32 761.436C1507.39 756.547 1508.27 751.669 1507.86 746.791C1507.45 741.913 1505.42 736.794 1501.17 734.385C1499.8 733.518 1498.15 733.214 1496.56 733.536C1495.03 734.057 1493.71 735.091 1492.85 736.465C1490.95 739.06 1489.75 742.105 1489.38 745.301C1488.88 749.59 1489.89 753.988 1489.01 758.207C1487.81 763.995 1482.35 768.933 1476.47 768.463C1470.59 767.993 1465.85 761.076 1468.39 755.748C1469.91 752.539 1473.38 750.629 1475.08 747.541C1477.58 743.032 1475.64 737.024 1471.73 733.656C1467.83 730.287 1462.5 729.107 1457.35 728.847C1451.69 728.547 1445.24 729.407 1440.85 733.296C1436.76 736.884 1435.56 742.632 1432 746.621C1424.84 754.678 1411.16 751.939 1403.89 760.216C1397.17 767.903 1399.47 781.628 1391.05 787.416C1388.99 788.714 1386.69 789.581 1384.29 789.965C1379.36 790.965 1374.29 790.965 1369.37 791.965C1364.44 792.964 1359.46 795.183 1356.73 799.392C1353.11 804.95 1354.33 812.197 1355.47 818.725C1359.1 839.511 1360.68 860.606 1360.18 881.702C1360.12 884.251 1360.06 886.92 1361.24 889.179C1363.24 893.008 1368.31 894.308 1372.52 893.398C1376.74 892.488 1380.36 889.879 1383.95 887.48C1393.09 881.372 1403 876.254 1413.67 873.615C1420.31 872.12 1427.04 871.118 1433.82 870.616C1438.69 870.146 1443.66 869.677 1448.42 870.826C1453.18 871.976 1457.75 875.045 1459.35 879.673C1461.19 884.991 1459.5 892.398 1464.41 895.167C1466.41 896.287 1468.85 896.107 1471.04 896.787C1478.61 899.156 1479.37 909.612 1484.55 915.6C1490.34 922.287 1500.54 922.297 1509.36 921.228C1520.69 919.848 1533.65 916.23 1537.98 905.634C1539.69 901.445 1539.72 896.807 1539.98 892.308C1540.44 884.861 1541.77 877.114 1546.27 871.166C1548.57 868.167 1551.6 865.678 1553.5 862.389C1555.07 859.36 1556.05 856.059 1556.37 852.663C1557.95 841.587 1557.46 829.671 1551.58 820.144C1543.79 807.539 1528.39 801.851 1518.45 790.855V790.895ZM1523.69 936.362C1519.69 933.104 1505.05 930.535 1502.05 935.773C1501.11 937.412 1502.23 939.391 1502.85 941.171C1503.62 943.395 1503.58 945.82 1502.74 948.018C1502.03 949.858 1500.74 951.627 1500.91 953.596C1501.07 954.548 1501.48 955.438 1502.11 956.175C1502.73 956.912 1503.54 957.468 1504.45 957.785C1506.27 958.398 1508.19 958.666 1510.12 958.574L1517.29 958.704C1518.04 958.756 1518.79 958.665 1519.5 958.435C1520.41 957.949 1521.17 957.219 1521.69 956.325C1525.52 950.907 1530.33 941.691 1523.69 936.332V936.362ZM1648.73 941.99C1644.86 938.842 1638.09 932.844 1632.93 936.732C1627.76 940.621 1629.67 949.988 1626.93 955.366C1623.09 962.843 1612.99 965.212 1608.77 972.479C1607.5 974.823 1606.74 977.408 1606.54 980.067C1606.23 983.006 1606.54 986.364 1608.76 988.294C1611.29 990.453 1615.34 989.793 1617.98 987.784C1620.61 985.775 1622.23 982.716 1623.89 979.787C1630.11 969.039 1638.1 959.417 1647.53 951.327C1649.52 949.608 1651.83 947.268 1651.03 944.739C1650.56 943.609 1649.77 942.641 1648.75 941.95L1648.73 941.99ZM1661.86 903.074C1656.39 900.855 1653.16 895.867 1649.35 891.499C1647.72 889.609 1645.67 887.56 1643.18 887.79C1641.65 888.084 1640.23 888.821 1639.11 889.909C1638.25 890.599 1637.29 891.489 1637.43 892.588C1637.57 893.688 1638.59 894.268 1639.43 894.867C1642.35 896.937 1644.24 900.136 1646.03 903.224C1647.63 905.706 1648.88 908.397 1649.74 911.222C1650.17 912.642 1650.3 914.135 1650.13 915.608C1649.96 917.082 1649.49 918.504 1648.74 919.788C1647.57 921.618 1645.57 923.187 1645.61 925.366C1645.61 927.066 1646.97 928.455 1648.24 929.565C1651.9 932.714 1656.4 935.913 1656.8 940.721C1656.88 941.72 1656.91 942.86 1657.8 943.28C1658.18 943.437 1658.61 943.465 1659.01 943.36C1661.81 942.8 1663.46 939.891 1664.27 937.152C1665.08 934.413 1665.51 931.404 1667.35 929.235C1670.03 926.076 1675.18 925.336 1676.94 921.588C1678.27 918.749 1677.03 915.36 1675.28 912.751C1671.91 907.753 1667.28 905.224 1661.86 903.034V903.074ZM1612 811.568C1612.95 811.486 1613.86 811.14 1614.63 810.568C1615.53 810.089 1616.25 809.332 1616.69 808.409C1618.87 802.411 1610.79 795.533 1605.3 796.313C1603.22 796.603 1601.24 797.163 1601.73 799.492C1602 800.821 1604.4 802.051 1605.26 803.081C1606.7 804.85 1607.25 806.779 1608.31 808.768C1609.06 810.208 1610.39 811.547 1612.01 811.547L1612 811.568ZM1681.46 770.402C1678.68 767.863 1672.85 767.863 1669.53 769.003C1666.83 769.932 1654.8 778.999 1660.87 780.589C1666.2 781.958 1670.96 776.86 1676.19 776.53C1678.6 776.38 1682.19 777.32 1682.94 773.871C1683.3 772.292 1682.58 771.412 1681.46 770.402ZM1618.37 771.062L1620.09 772.242C1620.49 772.589 1620.99 772.799 1621.52 772.841C1621.95 772.803 1622.35 772.636 1622.68 772.362C1629.59 767.363 1622.15 759.566 1616.59 758.227C1610.41 756.747 1604.8 761.755 1611.69 766.484L1618.37 771.072V771.062ZM1592.77 725.888C1588.93 723.429 1584.62 720.7 1583.63 716.262C1583.12 713.953 1583.63 711.394 1582.44 709.334C1581.25 707.275 1578.56 706.186 1576.06 705.986C1572.41 705.676 1568.9 706.266 1565.46 704.646C1563.29 703.646 1560.31 700.308 1557.61 700.817C1555.11 701.297 1554.12 704.816 1554.89 707.135C1555.89 710.134 1559.25 710.384 1561.97 710.864C1571.32 712.533 1577.6 721.2 1582.51 729.337C1583.59 731.332 1584.94 733.171 1586.51 734.805C1589.22 737.374 1592.93 738.544 1596.5 739.643C1597.1 739.868 1597.73 739.967 1598.36 739.933C1599.94 739.703 1600.75 737.854 1600.74 736.255C1600.68 731.706 1596.6 728.348 1592.75 725.888H1592.77ZM1439.45 671.468C1440.65 673.137 1443.77 672.867 1445.53 673.317C1450.06 674.487 1452.11 679.805 1456.04 682.314C1458.76 684.063 1462.17 684.313 1465.1 685.703C1471.78 688.812 1474.72 697.289 1473.24 704.506C1472.72 707.005 1471.77 709.504 1472.02 712.033C1472.38 715.632 1475.16 718.621 1478.39 720.23C1481.62 721.84 1485.29 722.31 1488.88 722.76C1489.79 722.924 1490.73 722.924 1491.64 722.76C1494 722.17 1495.16 719.571 1496.78 717.761C1500.3 713.823 1506.64 713.513 1511.43 715.762C1516.23 718.011 1519.79 722.16 1522.96 726.398C1524.95 729.047 1527.95 732.106 1530.95 730.747C1532.95 729.827 1533.7 727.138 1533.12 724.979C1532.54 722.82 1531 721.07 1529.5 719.411C1526.17 715.702 1522.86 712.013 1519.51 708.305C1518.82 707.667 1518.32 706.851 1518.06 705.946C1518 705.286 1518.13 704.624 1518.42 704.032C1518.72 703.439 1519.17 702.939 1519.73 702.587C1523.98 699.588 1529.72 703.337 1534.92 703.446C1536.88 703.41 1538.8 702.925 1540.55 702.03C1542.29 701.134 1543.81 699.851 1544.98 698.278C1547.29 695.088 1548.64 691.298 1548.85 687.362C1549.06 684.683 1548.85 681.794 1547.22 679.655C1546.24 678.428 1544.95 677.483 1543.49 676.916C1542 676.208 1540.31 676.048 1538.71 676.466C1537.93 676.702 1537.24 677.193 1536.76 677.863C1536.29 678.534 1536.05 679.344 1536.09 680.165C1536.4 682.664 1539.77 684.073 1539.7 686.593C1539.65 688.592 1537.33 689.811 1535.32 689.751C1533.31 689.691 1531.4 688.842 1529.4 688.692C1527.4 688.542 1525.02 689.512 1524.7 691.481C1524.61 692.011 1524.7 692.55 1524.57 693.06C1524.36 693.665 1523.98 694.196 1523.47 694.593C1522.97 694.989 1522.36 695.234 1521.73 695.299C1518.87 695.829 1515.97 694.42 1513.79 692.5C1511.61 690.581 1509.97 688.142 1507.98 686.033C1504.69 682.633 1500.59 680.132 1496.07 678.767C1491.54 677.402 1486.74 677.219 1482.13 678.236C1478.77 679.015 1475.56 680.435 1472.13 680.855C1459.99 682.334 1463.52 668.809 1454.59 665.51C1451.12 664.221 1445.91 664.73 1442.52 666.08C1440.39 666.94 1437.53 668.889 1439.41 671.508L1439.45 671.468ZM1454.58 707.575C1454.6 708.259 1454.74 708.934 1454.99 709.574C1455.34 710.098 1455.87 710.476 1456.48 710.639C1457.09 710.803 1457.74 710.741 1458.3 710.464C1461.58 708.974 1464.3 700.917 1459.91 699.238C1454.17 696.999 1454.06 704.356 1454.58 707.535V707.575ZM1434.3 679.645C1433.02 679.254 1431.78 678.738 1430.6 678.106C1426.52 676.386 1419.17 676.416 1416.35 680.575C1413.1 685.413 1420.03 686.433 1423.59 685.313C1425.45 684.713 1427.2 683.574 1429.14 683.654C1430.69 683.872 1432.17 684.439 1433.47 685.313C1436.54 686.972 1439.97 688.232 1443.46 687.962C1443.65 687.977 1443.84 687.949 1444.01 687.88C1444.18 687.81 1444.34 687.702 1444.46 687.562C1444.56 687.375 1444.61 687.164 1444.59 686.952C1444.55 685.216 1443.89 683.553 1442.74 682.253C1441.59 680.953 1440.01 680.101 1438.3 679.845C1436.99 679.695 1435.66 679.905 1434.38 679.635L1434.3 679.645ZM1421.64 650.656C1421.04 651.416 1420.61 652.3 1420.39 653.245C1419.91 655.564 1421.22 658.023 1420.53 660.242C1420.29 660.842 1420.08 661.456 1419.92 662.081C1419.66 663.811 1421.34 665.4 1423.08 665.52C1423.95 665.517 1424.82 665.322 1425.61 664.949C1426.4 664.576 1427.1 664.034 1427.66 663.361C1429.16 661.739 1430.1 659.678 1430.33 657.483C1430.61 654.834 1431.26 653.964 1432.33 651.845C1433.14 650.176 1434.14 650.446 1432.79 648.336C1429.94 643.848 1423.8 647.637 1421.66 650.616L1421.64 650.656ZM1411.18 694.13C1410.34 691.591 1408.18 689.741 1406.5 687.682C1404.03 684.712 1402.35 681.162 1401.63 677.366C1401.16 674.887 1401.35 671.818 1403.51 670.488C1404.54 670.021 1405.6 669.656 1406.7 669.399C1407.7 669.009 1408.8 668.119 1408.7 666.99C1408.6 665.86 1407.49 665.12 1406.43 664.72C1404.52 664.004 1402.46 663.784 1400.43 664.081C1399.9 661.432 1402.43 659.152 1405.03 658.293C1407.84 657.353 1419.68 654.594 1414.14 649.566C1410.28 646.067 1400.31 652.105 1396.42 653.565C1393.42 654.684 1390.28 655.894 1388.29 658.403C1384.13 663.631 1386.97 671.348 1385.84 677.936C1384.84 683.834 1380.51 689.152 1381.19 695.1C1381.22 695.823 1381.47 696.519 1381.91 697.099C1382.31 697.532 1382.82 697.849 1383.39 698.018C1384.96 698.506 1386.66 698.41 1388.16 697.747C1389.67 697.084 1390.89 695.899 1391.59 694.41C1391.92 693.66 1392.22 692.72 1393.01 692.47C1393.5 692.38 1394 692.446 1394.45 692.66C1397.73 693.881 1400.77 695.663 1403.44 697.928C1404.77 699.058 1406.2 700.388 1407.94 700.308C1410.61 700.188 1411.94 696.689 1411.11 694.15L1411.18 694.13ZM1357.59 634.731C1354.44 637.94 1350.5 640.419 1346.76 642.878C1342.31 645.797 1329.78 648.476 1329.42 654.434C1329.19 657.853 1332.8 660.012 1335.41 662.261C1339.06 665.41 1341.23 669.899 1343.07 674.347C1343.7 676.267 1344.74 678.025 1346.12 679.495C1349.81 682.854 1355.73 681.085 1360.51 682.494C1362.72 683.154 1364.68 684.493 1366.84 685.353C1369 686.213 1371.66 686.433 1373.46 684.993C1375.04 683.734 1375.54 681.534 1375.62 679.515C1375.91 671.828 1371.69 663.731 1374.92 656.753C1376.61 653.125 1380.19 650.306 1380.66 646.327C1381.11 642.578 1378.66 638.65 1380.09 635.171C1380.72 633.662 1382 632.542 1382.85 631.173C1383.41 630.148 1383.74 629.017 1383.84 627.854C1383.93 626.691 1383.78 625.521 1383.39 624.42C1383.01 623.319 1382.39 622.311 1381.59 621.461C1380.79 620.611 1379.83 619.939 1378.75 619.487C1374.53 617.967 1369.76 620.257 1366.66 623.435C1363.25 626.874 1361 631.263 1357.62 634.731H1357.59ZM1415.73 725.349C1419.45 723.689 1422.04 721.48 1426.35 721.07C1427.1 721.053 1427.85 720.919 1428.56 720.67C1428.92 720.541 1429.23 720.314 1429.46 720.015C1429.7 719.716 1429.84 719.358 1429.87 718.981C1429.83 718.601 1429.7 718.237 1429.49 717.92C1429.28 717.603 1428.99 717.343 1428.65 717.162C1427.97 716.704 1427.19 716.397 1426.38 716.259C1425.57 716.121 1424.74 716.156 1423.94 716.362C1422.12 716.832 1420.84 718.131 1419.17 718.881C1417.07 719.881 1416.05 719.321 1413.93 719.591C1411.82 719.861 1407.44 721.59 1408.87 724.479C1410.07 726.948 1413.95 726.148 1415.74 725.349H1415.73ZM1404.2 709.984C1402.91 709.301 1401.45 708.98 1399.99 709.056C1398.53 709.131 1397.11 709.601 1395.9 710.414C1394.28 711.514 1393.11 713.183 1391.49 714.263C1387.22 717.102 1384.28 714.013 1380.1 713.753C1376.23 713.503 1372.5 717.871 1377.1 720.31C1380.61 722.19 1384.77 722.829 1387.98 725.179C1389.7 726.438 1391.57 728.278 1393.61 727.638C1395.65 726.998 1396.13 724.499 1396.94 722.57C1397.81 720.482 1399.33 718.73 1401.27 717.571C1402.46 716.983 1403.61 716.315 1404.71 715.572C1405.26 715.201 1405.69 714.682 1405.96 714.075C1406.22 713.468 1406.31 712.798 1406.21 712.143C1406.04 711.664 1405.78 711.224 1405.44 710.851C1405.09 710.478 1404.68 710.179 1404.21 709.974L1404.2 709.984ZM1362.59 716.152C1364.28 716.072 1366.04 714.702 1365.85 713.033C1365.79 712.637 1365.68 712.252 1365.5 711.893C1363.5 707.305 1359.1 704.096 1354.38 702.447C1349.65 700.797 1344.58 700.508 1339.58 700.378C1337.56 700.424 1335.54 700.192 1333.58 699.688C1327.03 697.689 1324.02 689.771 1324.38 682.914C1324.64 681.08 1324.57 679.215 1324.17 677.406C1323.08 674.057 1319.48 672.408 1316.38 670.738C1311.82 668.481 1307.84 665.212 1304.74 661.182C1302.13 657.563 1300.53 653.255 1297.59 649.896C1294.98 646.897 1291.49 644.898 1288.44 642.339C1284.44 639.05 1281.88 633.492 1276.68 631.892C1269.77 629.773 1275.08 635.381 1277.5 637.65C1286.64 646.197 1295.26 656.503 1297.19 669.279C1298.13 675.507 1297.55 682.434 1301.32 687.482C1304.76 692.091 1310.91 693.79 1315.05 697.799C1317.71 700.388 1319.45 703.876 1322.35 706.226C1327.72 710.604 1335.34 709.984 1342.34 710.624C1347.69 711.117 1352.92 712.495 1357.82 714.702C1359.28 715.545 1360.93 716.028 1362.62 716.112L1362.59 716.152ZM1375.51 601.443C1374.69 603.333 1372.83 604.552 1371.52 606.182C1371.11 606.627 1370.85 607.179 1370.76 607.771C1370.65 609.081 1371.94 610.11 1373.2 610.45C1375.19 610.86 1377.25 610.503 1378.98 609.45C1384.79 606.182 1390.53 599.194 1385.84 592.686C1379.69 584.16 1377.16 597.615 1375.48 601.443H1375.51ZM1419.48 587.558C1420.87 583.1 1417.09 578.742 1413.31 576.003C1410.48 573.944 1407.47 572.157 1404.31 570.664C1401.31 569.235 1397.75 567.666 1396.78 564.497C1395.81 561.328 1397.84 558.119 1399.67 555.36C1407.54 543.364 1390.59 536.367 1387.89 550.162C1387.63 552.002 1387.63 553.87 1387.89 555.71C1388.47 561.608 1389.03 567.496 1389.61 573.383C1389.63 574.047 1389.79 574.699 1390.08 575.293C1391.21 577.212 1394.08 576.522 1396.26 576.112C1399.24 575.572 1402.31 576.062 1404.97 577.502C1407.79 579.021 1410.16 582.24 1409.15 585.279C1408.14 588.318 1404.39 589.438 1401.59 591.107C1400.4 591.764 1399.35 592.656 1398.51 593.73C1397.67 594.804 1397.06 596.037 1396.71 597.355C1396.39 598.683 1396.51 600.077 1397.04 601.335C1397.57 602.592 1398.49 603.649 1399.66 604.352C1401.22 605.172 1403.58 605.702 1403.52 607.461C1403.46 609.22 1400.82 609.6 1399.23 610.57C1398.46 611.03 1397.88 611.74 1397.58 612.58C1397.27 613.419 1397.27 614.338 1397.57 615.18C1397.86 616.022 1398.44 616.736 1399.2 617.202C1399.96 617.668 1400.86 617.857 1401.74 617.737C1403.74 617.478 1405.37 615.678 1407.41 615.648C1410.35 615.648 1411.87 619.047 1412.89 621.796C1413.9 624.545 1416.27 627.794 1419.04 626.794C1419.85 626.442 1420.54 625.875 1421.04 625.155C1424.23 621.066 1424.21 615.408 1424.04 610.22C1424.09 608.272 1423.8 606.329 1423.18 604.482C1422.87 603.542 1422.32 602.701 1421.58 602.044C1420.84 601.387 1419.94 600.939 1418.97 600.744C1416.97 600.504 1415.18 601.653 1413.31 602.243C1411.43 602.833 1408.81 602.443 1408.31 600.544C1408.22 600.028 1408.24 599.499 1408.37 598.992C1408.51 598.486 1408.75 598.016 1409.09 597.615C1411.92 593.616 1418.08 592.177 1419.51 587.488L1419.48 587.558ZM1397.58 503.699C1393.01 502.809 1387.41 503.539 1386.28 508.797C1385.75 511.316 1386.28 513.935 1386.84 516.444C1386.88 516.729 1386.99 516.999 1387.17 517.224C1387.46 517.445 1387.82 517.549 1388.17 517.514C1389.02 517.504 1389.86 517.383 1390.67 517.154C1393.09 516.501 1395.19 515 1396.59 512.925C1397.42 511.666 1398.03 510.166 1399.3 509.367C1403.77 506.508 1402.88 504.688 1397.58 503.649V503.699ZM1500.55 372.926C1505.03 371.926 1516.76 375.505 1514.87 366.288C1513.57 359.901 1502.88 356.122 1497.32 356.612C1495.32 356.803 1493.38 357.442 1491.65 358.479C1489.92 359.517 1488.45 360.928 1487.33 362.61C1485.96 364.94 1484.95 367.464 1484.33 370.097C1482.76 375.575 1481.19 381.053 1479.61 386.531C1476.99 395.648 1473.61 405.734 1465.13 410.002C1462.92 411.112 1460.48 411.752 1458.49 413.201C1455.9 415.071 1454.39 418.03 1452.96 420.879C1450.38 426.05 1447.8 431.211 1445.21 436.363C1441.33 444.12 1437.38 453.037 1440.47 461.134C1441.63 464.183 1444.6 467.132 1447.74 466.272C1449.83 465.692 1451.16 463.573 1451.61 461.464C1451.9 459.321 1452 457.157 1451.91 454.996C1452.06 450.478 1453.84 445.67 1457.77 443.46C1463.3 440.361 1470.58 443.56 1476.41 441.091C1482.24 438.622 1484.5 431.405 1485.55 425.097C1486.6 418.789 1487.66 411.622 1492.79 407.723C1494.02 406.971 1495.16 406.068 1496.17 405.034C1497.56 403.255 1497.58 400.766 1497.22 398.537C1496.47 393.768 1494.31 389.28 1493.94 384.472C1493.57 379.663 1495.85 374.025 1500.55 372.996V372.926ZM1733.52 204.547C1730.31 203.317 1726.18 204.067 1723.06 205.236C1718.89 206.806 1715.94 211.234 1721.54 213.393C1724.6 214.553 1727.91 215.313 1730.44 217.392C1736.66 222.45 1742.21 207.905 1733.51 204.567L1733.52 204.547ZM1670.1 139.57C1671.71 139.65 1673.32 139.28 1674.74 138.5C1678.51 136.831 1694.23 131.603 1682.37 129.854C1679.22 129.299 1675.98 129.714 1673.07 131.043C1670.65 132.293 1663.63 138.58 1670.07 139.57H1670.1ZM1482.32 109.391C1481.39 109.871 1480.32 110.75 1480.7 111.71C1480.94 112.159 1481.36 112.496 1481.85 112.65C1483.48 113.356 1485.23 113.724 1487.01 113.729C1490.01 113.729 1508.24 112.81 1501.18 106.242C1496.78 102.144 1486.33 107.322 1482.32 109.391ZM1517.41 94.5963C1519.24 95.9097 1521.38 96.729 1523.63 96.9754C1526.75 97.4952 1530.1 97.6152 1532.95 98.9747C1534.61 99.7644 1536.24 100.974 1538.06 100.824C1545.34 100.134 1539.26 93.6366 1536.38 91.7473C1530.65 87.9987 1523.39 86.3692 1517.39 90.2778C1516.81 90.5791 1516.35 91.0598 1516.07 91.6473C1515.66 92.7369 1516.48 93.8965 1517.39 94.6463L1517.41 94.5963ZM1470.35 97.7651C1475.26 98.7648 1480.35 98.7648 1485.34 98.6648C1490.12 98.6148 1494.88 98.5548 1499.65 98.5149C1500.76 98.5824 1501.86 98.4119 1502.89 98.015C1503.65 97.6022 1504.27 96.9912 1504.71 96.2478C1505.14 95.5044 1505.36 94.6569 1505.35 93.7966C1505.31 92.0684 1504.73 90.3957 1503.7 89.0083C1496.28 78.0123 1479.31 81.8909 1469.72 87.2689C1468.29 87.9911 1467.04 89.0141 1466.04 90.2678C1465.54 90.8967 1465.22 91.6414 1465.1 92.4307C1464.98 93.2201 1465.06 94.0276 1465.34 94.7762C1466.18 96.6355 1468.34 97.4053 1470.33 97.7751L1470.35 97.7651ZM1292.62 65.017C1297.83 65.017 1303.06 62.3079 1308.05 63.7574C1311.38 64.757 1313.9 65.5268 1316.31 62.2879C1317.3 60.8984 1318.16 58.6592 1317.6 56.8899C1316.61 53.691 1312.77 53.3811 1309.9 53.4411C1305.56 53.652 1301.3 54.7116 1297.37 56.56C1294.9 57.6596 1283.67 65.0669 1292.63 65.007L1292.62 65.017ZM1254.27 46.6436C1260.92 49.3476 1267.83 51.3575 1274.9 52.6414C1277.23 52.9039 1279.5 53.5809 1281.6 54.6407C1282.46 55.3266 1283.46 55.7963 1284.54 56.0102C1285.92 56.0702 1287.07 55.0106 1287.97 53.921C1293.1 47.8232 1294.96 37.7068 1288.41 31.729C1282.8 26.6008 1271.23 23.7319 1264.11 25.4712C1261.9 25.9719 1259.83 26.9474 1258.03 28.3302C1254.94 30.8093 1253.26 34.6079 1251.69 38.2466C1250.8 40.3359 1249.94 42.8849 1251.26 44.7443C1252.05 45.6797 1253.09 46.3728 1254.26 46.7435L1254.27 46.6436ZM790.427 277.32C794.004 282.918 791.276 290.166 789.897 296.663C789.198 299.992 788.968 303.741 790.896 306.5C792.313 308.176 794.094 309.506 796.103 310.388C798.811 311.818 801.888 313.277 804.826 312.388C808.024 311.438 809.823 308.099 811.052 305C812.281 301.901 813.48 298.433 813.12 295.004C812.261 286.697 803.128 281.199 801.849 272.962C800.689 265.655 805.986 258.177 803.847 251.09C803.328 249.426 802.424 247.908 801.209 246.659C799.993 245.411 798.501 244.466 796.852 243.902C788.109 240.983 782.692 249.41 780.004 256.438C778.635 260.027 778.435 264.245 780.404 267.534C782.802 271.532 787.829 273.362 790.397 277.3L790.427 277.32ZM759.849 310.848C761.987 312.368 764.985 310.998 766.914 309.209C767.707 308.524 768.356 307.688 768.823 306.75C769.822 304.521 768.823 301.871 769.822 299.692C771.131 296.693 773.319 297.283 775.887 296.144C778.456 295.004 779.305 293.654 778.216 290.775C776.947 287.447 769.912 280.419 766.334 284.098C764.845 285.627 764.845 290.026 764.256 292.015C763.304 295.223 762.025 298.325 760.439 301.272C759.501 302.766 758.797 304.394 758.35 306.1C758.137 306.953 758.165 307.848 758.429 308.686C758.694 309.524 759.185 310.272 759.849 310.848ZM1049.13 737.954C1044.13 735.445 1041.07 748.37 1037.6 751.499C1032.67 755.958 1025.17 757.727 1022.11 764.125C1018.66 771.342 1023.45 779.579 1024.48 787.516C1026.22 800.831 1017.07 813.717 1018.48 827.062C1018.52 828.798 1019.2 830.458 1020.39 831.72C1022.39 833.51 1026.05 833.1 1027.47 835.399C1028.47 837.108 1027.75 839.397 1028.62 841.237C1029.62 843.306 1032.53 843.866 1034.62 842.856C1036.63 841.689 1038.1 839.785 1038.73 837.548C1040.43 832.69 1039.99 827.382 1039.95 822.244C1039.84 809.565 1042.26 796.993 1047.06 785.257C1050.77 776.26 1054.98 768.073 1053.82 758.047C1053.35 754.048 1053.54 740.153 1049.12 737.904L1049.13 737.954ZM928.327 423.548C923.336 423.333 918.408 424.736 914.277 427.546C910.42 430.265 912.279 433.614 916.995 433.234C918.744 433.084 920.443 432.494 922.191 432.314C925.349 432.005 928.477 433.084 931.634 433.314C934.932 433.529 938.222 432.797 941.118 431.205C941.407 431.045 941.747 430.795 941.707 430.455C941.674 430.293 941.594 430.143 941.477 430.025C939.845 428.103 937.836 426.536 935.574 425.422C933.312 424.308 930.845 423.67 928.327 423.548ZM852.382 396.817C851.254 395.293 850.575 393.483 850.423 391.592C850.271 389.701 850.652 387.806 851.523 386.121C857.348 375.295 839.751 376.565 842.299 386.341C842.849 388.51 844.817 390.07 845.577 392.169C846.576 394.908 845.377 398.077 846.436 400.766C846.865 401.692 847.475 402.524 848.23 403.211C848.985 403.897 849.87 404.426 850.833 404.764C852.212 405.324 853.951 405.544 855.03 404.534C856.109 403.525 856.029 401.655 855.25 400.336C854.377 399.098 853.419 397.922 852.382 396.817ZM1063.14 377.734C1063.25 376.934 1063.21 376.119 1063.01 375.335C1062.17 372.756 1058.61 372.676 1056.16 371.486C1054.87 370.831 1053.81 369.784 1053.14 368.494C1052.47 367.204 1052.23 365.737 1052.44 364.299C1052.91 361.44 1055.13 359.201 1057.43 357.391C1060.75 354.732 1068.99 347.395 1062.69 343.087C1058.02 339.918 1049.87 348.315 1045.8 350.084C1043.18 351.224 1040.17 351.863 1038.35 354.083C1035.81 357.132 1036.79 361.88 1039.03 365.149C1041.27 368.417 1044.54 370.867 1046.91 374.045C1053.01 382.272 1051.86 394.128 1046.99 403.135C1045.74 405.444 1044.22 407.993 1044.99 410.512C1045.58 412.034 1046.63 413.334 1047.99 414.231C1051.02 416.552 1054.51 418.192 1058.23 419.039C1060.23 419.489 1062.37 419.669 1064.12 418.669C1066.21 417.47 1067.12 414.911 1067.47 412.522C1069.23 400.916 1062.6 389.53 1063.24 377.754L1063.14 377.734ZM1005.39 366.738C1003.46 364.006 1000.8 361.869 997.722 360.571C994.64 359.272 991.256 358.863 987.954 359.391C985.246 359.861 982.697 360.97 980.019 361.55C977.341 362.13 974.333 362.11 972.095 360.55C969.857 358.991 968.748 355.972 966.619 354.123C965.416 353.11 963.94 352.476 962.378 352.298C960.816 352.12 959.236 352.407 957.836 353.123C954.398 354.962 953.748 358.821 952.479 362.12C950.841 366.388 948.542 370.117 947.953 374.775C952.03 378.014 956.706 381.423 961.863 380.833C965.25 380.433 968.198 378.354 971.496 377.444C977.671 375.755 984.116 378.374 989.982 380.933C994.259 382.812 998.546 384.685 1002.84 386.551C1003.39 386.861 1004.02 386.974 1004.64 386.871C1005.21 386.637 1005.66 386.198 1005.92 385.641C1007.61 382.753 1008.46 379.448 1008.36 376.102C1008.27 372.757 1007.23 369.505 1005.38 366.718L1005.39 366.738ZM977.651 438.362C975.423 436.823 972.445 437.293 969.727 437.093C967.009 436.893 963.821 435.093 964.171 432.404C964.411 430.655 966.109 429.405 966.509 427.686C967.049 425.447 965.14 423.228 962.952 422.478C960.763 421.728 958.375 422.008 956.077 422.058C952.54 422.137 949.012 421.658 945.624 420.639C943.955 420.25 942.419 419.421 941.178 418.239C937.34 414.021 941.637 407.423 941.367 401.735C941.194 399.282 940.124 396.979 938.36 395.266C936.596 393.553 934.263 392.551 931.807 392.451C929.35 392.35 926.943 393.159 925.046 394.723C923.149 396.287 921.894 398.495 921.522 400.926C921.162 403.715 921.862 406.924 919.993 409.053C919.132 409.903 918.064 410.513 916.895 410.822C913.987 411.752 910.57 411.882 908.092 410.102C904.144 407.253 904.484 401.436 904.364 396.567C904.005 383.452 897.259 371.406 889.965 360.5C888.743 358.449 887.17 356.629 885.318 355.122C883.996 354.191 882.479 353.574 880.882 353.319C879.285 353.065 877.651 353.179 876.105 353.653C875.25 353.879 874.453 354.283 873.764 354.837C873.075 355.392 872.511 356.085 872.108 356.872C870.559 360.51 874.176 364.109 877.244 366.608C885.888 373.716 893.432 383.172 894.711 394.278C895.99 405.384 888.985 417.88 877.933 419.579C874.576 420.099 870.169 418.739 869.939 415.331C869.819 413.481 871.078 411.842 872.247 410.412C873.956 408.333 875.655 406.234 877.374 404.155C878.372 403.162 879.035 401.883 879.272 400.496C879.362 398.926 878.383 397.497 877.434 396.247C871.758 388.67 866.092 381.093 859.767 374.055C856.479 370.407 852.772 366.758 848.055 365.459C839.841 363.169 831.007 368.997 827.54 376.794C826.451 379.204 825.751 381.793 824.252 384.002C821.924 387.401 817.797 389.57 816.548 393.488C815.768 395.958 816.328 398.667 815.928 401.226C815.329 405.154 812.501 408.463 809.163 410.602C805.826 412.741 791.086 414.681 794.174 420.849C797.372 427.196 811.861 419.899 816.158 418.179C827.22 413.721 839.501 410.932 851.083 413.771C856.689 415.151 862.864 419.379 862.075 425.097C861.835 426.756 861.006 428.296 860.796 429.965C860.316 433.964 863.604 437.503 867.301 439.042C870.998 440.581 875.095 440.701 879.013 441.491C886.554 443.006 893.38 446.983 898.419 452.797C900.417 455.146 902.306 457.885 905.154 459.115C908.002 460.344 912.199 459.115 912.498 455.976C912.798 452.837 909.261 450.438 909.7 447.399C910.2 444 914.997 443.35 918.144 444.69C921.292 446.029 924.21 448.499 927.637 448.299C929.866 448.169 931.854 446.919 933.963 446.179C935.995 445.487 938.159 445.268 940.288 445.538C942.418 445.809 944.458 446.561 946.254 447.739C949.252 449.738 951.45 452.867 954.738 454.306C958.865 456.136 963.631 454.876 967.948 453.587C971.586 452.517 975.413 451.328 977.941 448.489C980.469 445.65 980.829 440.591 977.711 438.432L977.651 438.362ZM1712.83 188.452C1712.44 189.602 1713.07 190.802 1713.48 191.941C1714.76 195.46 1713.48 200.108 1710.04 201.448C1707.27 202.517 1704.04 201.238 1701.91 199.219C1699.77 197.199 1698.27 194.54 1696.49 192.171C1694.49 189.552 1691.99 187.173 1688.84 186.293C1685.68 185.413 1681.84 186.433 1680.25 189.292C1679.66 190.677 1679.19 192.108 1678.83 193.571C1678.03 196.293 1676.25 198.624 1673.84 200.118C1672.67 200.8 1671.66 201.712 1670.87 202.798C1670.07 203.885 1669.5 205.123 1669.2 206.436C1667.65 213.104 1676.73 210.704 1677.19 215.193C1677.23 215.681 1677.18 216.172 1677.02 216.638C1676.87 217.104 1676.63 217.535 1676.31 217.906C1675.99 218.278 1675.61 218.583 1675.17 218.804C1674.73 219.024 1674.25 219.156 1673.77 219.191C1667.05 219.867 1660.58 222.069 1654.84 225.629C1646.77 230.627 1639.18 238.624 1629.72 237.695C1627.49 237.352 1625.28 236.895 1623.1 236.325C1615.39 234.796 1606.38 237.505 1602.57 244.402C1598.87 251.11 1600.92 259.487 1599.25 266.964C1595.35 284.468 1572.27 293.674 1570.91 311.568C1570.65 314.837 1571.15 318.316 1569.75 321.284C1568.01 324.993 1561.33 326.742 1560.92 320.515C1560.9 319.755 1560.98 318.996 1561.15 318.256C1562.85 309.819 1554.92 303.011 1554.4 294.764C1554 288.506 1557.88 282.868 1559.4 276.771C1560.4 272.972 1560.4 268.983 1561.4 265.205C1563.24 258.147 1568.27 252.329 1573.97 247.811C1579.66 243.293 1586.14 239.814 1592.17 235.745C1595.37 233.576 1598.77 229.318 1596.24 226.339C1595.75 225.788 1595.12 225.369 1594.42 225.122C1593.73 224.874 1592.98 224.804 1592.25 224.919C1588.25 225.389 1585.79 229.028 1582.15 230.067C1578.52 231.107 1574.82 229.418 1571.23 228.318C1567.64 227.218 1563.1 226.988 1560.83 229.957C1558.56 232.926 1560.09 237.435 1560 241.303C1559.91 243.697 1559.14 246.017 1557.79 247.992C1556.43 249.967 1554.55 251.516 1552.34 252.459C1551.65 252.765 1550.9 252.902 1550.15 252.859C1546.38 252.489 1546.23 247.491 1544.86 244.132C1544.21 242.601 1543.15 241.276 1541.81 240.297C1540.46 239.318 1538.87 238.723 1537.22 238.574C1532.84 238.264 1528.95 241.083 1524.79 242.483C1519.88 244.152 1514.55 243.832 1509.38 244.272C1494.2 245.552 1478.52 254.269 1469.89 266.934C1469.35 267.719 1468.96 268.608 1468.77 269.546C1468.58 270.485 1468.58 271.453 1468.78 272.39C1468.98 273.327 1469.37 274.213 1469.92 274.994C1470.48 275.775 1471.18 276.434 1472 276.93C1475.26 278.87 1479.37 278.48 1482.92 277.29C1487.1 275.901 1490.92 273.492 1495.3 272.642C1496.83 272.305 1498.42 272.349 1499.93 272.772C1505.82 274.571 1506.21 281.419 1505.93 286.967C1505.39 297.843 1504.84 308.719 1504.29 319.595C1504.29 321.522 1504.02 323.439 1503.49 325.293C1502.75 327.462 1501.32 329.292 1500.49 331.471C1499.66 333.65 1499.49 336.289 1501.01 337.958C1502.53 339.628 1505.24 339.858 1505.68 342.467C1505.8 343.287 1505.67 344.124 1505.29 344.864C1504.92 345.604 1504.32 346.209 1503.59 346.595C1500.59 348.305 1497.26 347.095 1494.31 345.916C1493.13 345.559 1492.07 344.893 1491.24 343.986C1490.69 343.154 1490.38 342.185 1490.35 341.187C1490.02 337.189 1491.54 333.19 1492.11 329.192C1492.68 325.193 1491.89 320.415 1488.39 318.366C1487.99 318.073 1487.51 317.897 1487.02 317.857C1486.52 317.816 1486.03 317.913 1485.58 318.136C1485.21 318.424 1484.91 318.802 1484.72 319.235C1482.37 323.784 1483.9 329.641 1481.5 334.16C1480.39 336.259 1478.5 337.858 1477.2 339.818C1476.07 341.677 1475.13 343.643 1474.39 345.686C1471.34 352.93 1466.9 359.51 1461.33 365.059C1458.36 367.747 1454.94 369.895 1451.23 371.406C1443.8 374.293 1437.4 379.307 1432.81 385.821C1430 389.82 1427.89 394.908 1429.24 399.636C1430.24 403.075 1432.91 405.774 1434.24 409.093C1435.47 412.022 1435.62 415.281 1435.76 418.449C1436 424.187 1436.06 430.525 1432.32 434.893C1430.07 437.513 1426.14 439.172 1422.98 435.893C1422.35 435.239 1421.87 434.463 1421.56 433.614C1420.35 430.355 1421.13 427.006 1421.76 423.737C1422.76 418.549 1423.43 413.051 1421.68 408.053C1419.93 403.055 1415.12 398.776 1409.86 399.276C1407.52 399.496 1405.37 400.596 1403.12 401.276C1400.87 401.955 1398.26 402.145 1396.39 400.756C1394.52 399.366 1393.9 396.807 1392.2 395.208C1385.54 388.97 1371.1 395.148 1381.21 403.745C1384.51 406.545 1388.16 408.913 1392.06 410.792C1393.66 411.413 1395.14 412.317 1396.42 413.461C1397.6 414.691 1398.23 416.67 1397.42 418.15C1396.92 418.874 1396.29 419.504 1395.57 420.009C1390 424.687 1388.39 432.764 1389.38 440.002C1390.37 447.239 1393.54 453.917 1396.07 460.734C1397.4 464.313 1398.57 468.141 1397.81 471.86C1396.67 477.398 1391.71 481.137 1387.4 484.795C1378.71 492.214 1371.53 501.256 1366.29 511.416C1364.12 515.624 1362.01 520.293 1357.85 522.532C1352.4 525.461 1338.35 525.641 1346.46 534.817C1347.59 536.087 1348.75 537.526 1348.79 539.236C1348.85 541.955 1346.08 543.974 1343.89 545.234C1343.18 545.664 1342.36 545.88 1341.53 545.853C1336.59 545.544 1338.36 535.907 1331.75 536.217C1330.7 536.254 1329.67 536.562 1328.76 537.112C1327.86 537.662 1327.11 538.434 1326.59 539.356C1324.94 542.355 1325.72 546.203 1327.59 549.082C1329.46 551.961 1332.25 554.08 1334.92 556.19C1337.59 558.299 1340.29 560.628 1341.82 563.687C1343.88 567.805 1343.52 572.784 1341.91 577.112C1340.3 581.441 1337.54 585.199 1334.83 588.918L1325.84 601.213C1324.68 602.793 1323.46 604.432 1321.6 605.212C1320.89 605.492 1320.12 605.574 1319.37 605.452C1316.78 605.032 1316.76 602.913 1315.8 601.373C1314.19 598.744 1310.25 598.294 1308.63 595.645C1307.42 593.646 1307.86 591.187 1307.89 588.878C1307.89 585.539 1306.83 581.99 1304.02 580.081C1303.27 579.567 1302.41 579.223 1301.51 579.073C1300.61 578.923 1299.69 578.97 1298.81 579.211C1295.99 579.981 1295.23 582.21 1294.74 584.419C1293.66 589.561 1293.81 594.886 1295.19 599.957C1296.57 605.028 1299.12 609.699 1302.66 613.589C1303.76 614.779 1304.99 615.968 1305.4 617.527C1305.62 618.856 1305.57 620.213 1305.28 621.526C1304.7 626.789 1306.24 632.066 1309.54 636.201C1311.78 638.95 1315.01 642.009 1313.68 645.387C1313.41 646.016 1313.02 646.584 1312.52 647.055C1312.03 647.526 1311.44 647.89 1310.8 648.125C1310.16 648.36 1309.47 648.461 1308.79 648.422C1308.11 648.383 1307.44 648.204 1306.83 647.897C1302.12 645.747 1301.1 640.799 1299.77 636.391C1297 627.234 1292.09 618.87 1285.45 611.99C1282.14 608.561 1278.22 605.212 1277.19 600.564C1276.33 596.695 1277.68 592.716 1278.78 588.898C1280.53 582.867 1281.72 576.686 1282.32 570.435C1282.51 568.738 1282.28 567.02 1281.64 565.436C1279.05 559.259 1272.54 560.698 1267.27 559.498C1264.62 558.846 1262.19 557.474 1260.26 555.535C1258.33 553.595 1256.98 551.162 1256.34 548.502C1255.34 543.924 1256.56 539.176 1256.34 534.507C1256.19 531.266 1255.37 528.09 1253.94 525.179C1252.51 522.267 1250.49 519.682 1248.02 517.584C1247.29 516.984 1245.63 515.164 1245.3 516.064C1240.3 516.834 1236.95 521.702 1235.02 526.43C1233.1 531.159 1231.81 536.427 1228.18 539.956C1223.6 544.464 1216.54 545.184 1211.02 548.502C1206.89 550.992 1203.78 554.87 1201.25 558.989C1194.44 570.163 1191.49 583.269 1192.87 596.285C1193.14 598.954 1193.62 601.703 1192.94 604.282C1192.11 606.774 1190.71 609.035 1188.85 610.88C1187.8 612.281 1186.37 613.352 1184.73 613.969C1183.75 614.25 1182.7 614.139 1181.8 613.659C1180.27 612.819 1180.28 611.44 1180.23 610.13C1179.41 591.767 1161.84 577.402 1160.94 559.029C1160.62 552.361 1165.46 546.803 1164.94 540.155C1164.22 531.579 1151.04 528.42 1150.16 519.863C1150.17 518.716 1150.03 517.573 1149.74 516.464C1149.17 515.257 1148.19 514.293 1146.98 513.745C1142.77 511.486 1137.36 511.416 1133.99 508.067C1130.62 504.718 1130.11 498.471 1125.86 496.001C1123.85 495.028 1121.62 494.61 1119.39 494.792C1114.64 494.806 1109.9 495.208 1105.22 495.991C1101.88 496.541 1098.53 497.301 1095.23 497.081C1091.92 496.861 1088.35 495.552 1086.42 492.773C1085.09 490.863 1084.58 488.374 1082.84 486.825C1079.42 483.826 1074 486.275 1069.47 485.485C1064.16 484.566 1060.56 479.098 1058.17 474.849C1056.99 472.696 1055.48 470.745 1053.69 469.071C1050.17 465.822 1046.32 464.453 1043.03 467.622C1039.51 468.231 1038.41 473.21 1040.16 476.329C1041.9 479.447 1045.31 481.187 1048.38 483.026C1051.45 484.865 1054.61 487.385 1055.12 490.923C1055.49 493.442 1054.45 495.921 1053.99 498.431C1053.42 501.509 1054.13 505.428 1057.98 505.768C1058.78 505.814 1059.58 505.695 1060.32 505.419C1061.07 505.142 1061.76 504.712 1062.33 504.158C1064.99 501.739 1067.27 498.421 1070.63 496.801C1073.06 495.652 1076.24 495.602 1078.2 497.451C1079.05 498.405 1079.78 499.467 1080.36 500.61C1082.73 504.478 1086.62 507.137 1090.03 510.146C1093.44 513.155 1096.59 517.044 1096.69 521.592C1096.59 524.507 1095.67 527.334 1094.04 529.749C1088.62 538.746 1079.59 544.854 1070.36 549.822C1061.14 554.79 1051.38 558.919 1043.06 565.276C1037.71 569.355 1032.77 574.413 1025.53 574.723C1024.02 574.818 1022.51 574.557 1021.12 573.959C1019.73 573.362 1018.5 572.445 1017.53 571.284C1013.35 565.996 1017.87 560.038 1017.15 554.29C1016.27 547.453 1008.8 543.924 1003.9 539.066C996.358 531.539 994.749 519.933 995.208 509.277C995.508 502.409 996.308 494.862 992.211 489.284C990.012 486.285 986.695 484.376 983.317 482.856C980.239 481.467 976.252 480.407 974.014 483.676C973.563 484.369 973.258 485.146 973.117 485.961C972.977 486.775 973.003 487.61 973.194 488.414C974.553 494.482 978.371 499.41 981.368 504.698C985.266 511.566 987.824 519.093 990.362 526.57C994.359 538.306 999.485 550.752 1003.73 562.387C1004.73 565.488 1006.07 568.469 1007.73 571.274C1009.4 574.098 1011.93 576.307 1014.95 577.572C1016.78 578.252 1018.75 578.452 1020.6 579.081C1022.45 579.711 1024.26 580.961 1024.79 582.83C1024.97 583.919 1025.06 585.024 1025.05 586.129C1025.15 586.769 1025.39 587.379 1025.76 587.916C1026.12 588.453 1026.6 588.904 1027.16 589.238C1030.7 591.107 1034.97 590.897 1038.87 590.007C1042.76 589.118 1046.35 587.658 1050.2 586.949C1052.73 586.489 1055.67 586.439 1056.9 589.947C1057.32 591.239 1057.39 592.619 1057.1 593.946C1053.32 612.449 1049.49 631.812 1038.18 647.007C1034.46 652.005 1030.01 656.423 1026.19 661.362C1022.99 665.687 1020.05 670.193 1017.38 674.857C1013.91 680.655 1009.65 685.103 1007.59 691.521C1001.31 711.118 1001.02 732.144 1006.75 751.909C1007.61 754.802 1007.7 757.871 1006.99 760.806C1005.79 765.604 1003.2 768.003 999.245 771.132C990.032 778.389 986.255 790.635 985.156 802.311C984.926 804.6 984.776 806.949 983.737 808.998C982.697 811.048 981.069 812.437 979.57 813.997C971.386 822.673 968.318 834.819 964.85 846.225C961.383 857.631 956.686 869.656 946.734 876.214C941.587 879.643 935.322 881.332 930.855 885.641C926.388 889.949 924.59 896.107 918.934 899.226C917.927 899.819 916.804 900.188 915.641 900.307C914.479 900.426 913.305 900.293 912.199 899.916C907.022 897.976 907.002 891.919 905.783 887.09C903.995 880.023 898.848 874.315 896.21 867.527C892.913 858.96 893.872 849.434 892.813 840.307C890.264 818.565 876.345 800.002 869.18 779.329C867.623 775.286 866.742 771.013 866.572 766.684C866.462 753.908 877.124 742.972 877.064 730.207C877.064 723.409 876.135 716.452 873.017 710.414C871.088 706.665 868.35 703.417 865.772 700.068C859.167 691.581 853.101 681.854 852.892 671.078C852.792 665.9 854.061 660.832 854.5 655.684C854.94 650.536 855.64 644.218 851.992 640.579C849.259 637.882 845.703 636.176 841.89 635.731C838.002 635.281 833.406 635.921 830.898 632.972C828.389 630.023 829.029 624.665 825.152 623.295C824.072 622.961 822.911 623.011 821.864 623.435C819.576 624.365 818.147 626.334 816.788 628.274C814.15 632.032 810.792 636.271 806.185 636.081C803.787 635.991 801.639 634.691 799.34 633.962C794.254 632.322 788.738 633.642 783.412 633.282C779.306 632.866 775.273 631.904 771.421 630.423C767.843 629.377 764.443 627.797 761.338 625.735C757.341 622.736 754.533 618.377 751.345 614.689C749.336 612.391 747.531 609.922 745.949 607.311C741.662 600.124 734.767 595.216 729.201 589.128C724.265 583.75 720.208 576.752 721.117 569.525C721.537 566.126 723.036 562.967 724.115 559.718C726.233 553.371 726.833 546.633 727.423 539.976C727.912 534.568 728.422 529.099 727.692 523.721C726.693 516.054 723.465 507.977 726.693 500.97C730.69 492.463 741.822 490.443 748.577 483.976C753.354 479.387 755.642 472.77 756.791 466.252C757.94 459.734 758.11 453.047 759.489 446.569C760.159 443.32 761.228 440.012 763.606 437.712C765.985 435.413 769.442 434.803 772.44 433.504C773.537 433.028 774.476 432.247 775.144 431.255C775.812 430.262 776.182 429.099 776.211 427.902C776.239 426.706 775.925 425.526 775.304 424.503C774.684 423.48 773.783 422.656 772.71 422.128C769.592 420.579 765.825 419.899 763.716 417.13C761.608 414.361 761.828 410.382 762.897 407.034C763.966 403.685 765.725 400.526 766.244 397.037C766.944 392.419 765.385 387.8 763.916 383.362C762.087 377.864 760.319 371.976 763.067 366.368C763.707 364.98 764.708 363.789 765.964 362.919C767.221 362.049 768.687 361.531 770.211 361.42C775.987 361.2 778.685 367.008 782.463 370.727C785.016 373.218 788.269 374.871 791.786 375.465C794.564 375.925 797.781 375.515 799.47 373.256C800.639 371.666 800.749 369.567 800.799 367.598L801.539 343.876C801.534 342.457 801.065 341.079 800.205 339.951C799.344 338.823 798.139 338.008 796.772 337.629C793.009 336.728 789.482 335.03 786.43 332.65C785.703 332.178 785.157 331.473 784.881 330.651C784.601 329.322 785.65 328.112 786.7 327.252C791.936 322.954 798.831 321.424 805.256 319.255C811.681 317.086 818.367 313.717 821.145 307.529C823.573 302.081 822.793 294.924 827.33 291.035C830.038 288.726 833.835 288.366 837.323 287.737C840.81 287.107 844.667 285.807 846.186 282.588C847.376 280.109 846.826 277.18 846.526 274.451C845.987 269.513 846.526 264.125 850.363 260.616C851.456 259.558 852.835 258.846 854.329 258.566C855.824 258.287 857.367 258.454 858.767 259.047C863.094 261.046 863.564 266.334 863.134 270.783C862.644 275.861 861.615 281.519 866.382 285.158C867.298 285.857 868.334 286.382 869.44 286.707C873.996 288.056 878.523 286.657 882.57 284.708C885.748 283.148 888.836 281.159 892.353 280.709C897.959 279.929 904.544 282.908 908.851 279.25C912.418 276.251 911.849 270.673 911.109 266.074C910.37 261.476 910.11 255.828 913.847 253.079C916.845 250.88 921.942 251.08 923.171 247.521C923.81 245.742 923.071 243.652 923.86 241.943C924.789 239.944 927.298 239.364 929.166 238.194C931.035 237.025 931.165 234.546 929.086 233.746C927.314 234.615 925.383 235.116 923.412 235.219C921.44 235.323 919.468 235.025 917.615 234.346C919.134 232.516 918.084 229.678 916.455 227.938C914.827 226.199 912.688 224.869 911.629 222.74C909.76 218.941 912.149 214.523 914.467 210.974L924.1 196.2C926.099 193.201 928.007 188.932 925.599 186.203C921.102 185.783 917.345 189.712 915.456 193.81C913.568 197.909 912.708 202.527 910.09 206.196C907.232 210.195 902.695 212.504 898.768 215.463C894.841 218.422 891.254 222.76 891.773 227.628C892.113 230.627 894.032 233.356 894.511 236.395C894.727 238.686 894.52 240.997 893.902 243.213C891.414 254.718 887.836 267.704 877.294 272.902C875.945 273.582 874.396 274.102 872.877 272.642C872.226 271.959 871.769 271.114 871.555 270.194C871.341 269.275 871.376 268.315 871.658 267.414C873.317 261.526 873.776 254.619 870.109 249.36C868.99 247.748 867.481 246.444 865.722 245.572C859.477 242.443 855.41 246.342 850.863 248.631C847.865 250.14 843.868 250.82 841.42 248.541C840.448 247.503 839.702 246.274 839.232 244.932C837.952 241.94 836.68 238.941 835.414 235.935C833.206 230.777 830.967 225.149 832.336 219.721C833.705 214.293 838.332 210.414 843.069 207.605C847.805 204.797 853.061 202.677 857.288 199.059C862.465 194.57 865.542 188.193 869.949 182.964C873.946 178.176 879.172 174.327 882.58 169.059C885.518 164.531 887.077 159.063 890.874 155.224C896.15 149.886 904.324 149.057 911.409 146.518C922.961 142.369 933.113 132.942 945.385 133.252C949.125 133.371 952.779 134.405 956.027 136.262C959.276 138.12 962.021 140.745 964.021 143.908C965.59 146.438 966.729 149.377 969.137 151.126C974.463 155.014 982.068 150.766 988.483 152.255C992.42 153.165 995.478 156.124 999.016 158.093C1005.4 161.672 1012.87 161.862 1020.29 161.142C1024.86 160.751 1029.43 161.963 1033.21 164.571C1035.14 165.986 1037.39 166.903 1039.76 167.24C1050.63 168.346 1061.61 166.689 1071.67 162.422C1077.97 159.743 1083.93 156.034 1090.66 154.795C1101.58 152.795 1113.9 157.354 1123.44 151.636C1127.53 149.167 1130.43 145.148 1133.81 141.809C1138.48 137.181 1145.47 133.512 1151.79 139.31C1154.11 141.494 1155.68 144.351 1156.28 147.477C1158.23 156.936 1158.51 166.664 1157.09 176.217C1163.65 178.006 1170.67 173.128 1173.08 166.77C1175.49 160.413 1174.23 153.225 1171.7 146.917C1169.7 141.919 1166.88 137.111 1166.76 131.543C1166.67 129.316 1167.2 127.108 1168.29 125.165C1173.75 115.959 1187.93 122.686 1193.99 115.399C1195.99 113 1196.48 109.621 1198.47 107.212C1201.47 103.533 1206.86 103.213 1211.53 102.214C1229.52 98.7648 1243.68 83.7602 1261.7 80.4014C1274.09 78.0922 1289.67 86.5092 1299.96 79.2618C1305.04 75.6831 1310.7 71.9544 1316.89 72.4643C1321.34 72.8341 1325.28 75.3532 1329.6 76.4628C1336.12 78.2222 1343.28 76.7827 1349.45 80.3314C1350.66 80.9933 1351.71 81.8983 1352.55 82.9893C1353.39 84.0802 1353.99 85.3333 1354.32 86.6691C1356.12 94.8662 1344.83 97.2053 1344.89 103.993C1344.89 109.171 1351.69 111.5 1356.79 110.581C1361.88 109.661 1366.87 106.972 1371.95 107.941C1379.8 109.441 1385.47 119.267 1393.27 117.528C1397.54 116.528 1400.18 112.44 1403.68 109.811C1410.46 104.723 1421.22 106.182 1426.39 112.89C1429.55 116.978 1430.6 122.336 1433.25 126.775C1435.9 131.213 1441.61 134.852 1446.13 132.303C1447.46 131.553 1448.49 130.363 1449.82 129.604C1455.13 126.605 1461.62 131.853 1467.69 131.063C1471.87 130.513 1475.08 127.205 1478.84 125.285C1481.7 123.984 1484.73 123.073 1487.83 122.576C1497.91 120.507 1508.92 118.578 1518.06 123.266C1525.45 127.115 1530.71 135.332 1538.69 137.721L1549.53 136.641C1554.25 136.171 1559.15 135.711 1563.67 137.161C1568.86 138.91 1572.86 142.819 1577.86 144.908C1583.99 147.447 1590.93 146.967 1597.49 145.908C1604.89 144.758 1613.66 143.429 1618.78 148.907C1619.91 150.106 1620.77 151.556 1621.91 152.695C1622.9 153.638 1624.08 154.343 1625.38 154.757C1626.68 155.171 1628.05 155.283 1629.4 155.084C1629.83 155.05 1630.25 154.894 1630.6 154.635C1631.6 153.735 1630.8 152.076 1630.67 150.726C1630.34 147.567 1634.11 145.628 1637.26 145.308C1644.7 144.548 1651.98 147.427 1658.79 150.506C1674.03 157.394 1688.89 165.571 1705.2 169.269C1709.57 170.269 1714.29 171.049 1717.54 174.118C1720.8 177.186 1721.35 183.514 1717.4 185.603C1715.77 186.473 1713.41 186.693 1712.87 188.442L1712.83 188.452ZM541.377 1020.15C536.522 1017.04 530.963 1015.19 525.209 1014.78C522.499 1014.8 519.835 1015.49 517.455 1016.78C513.458 1018.78 513.088 1020.58 517.455 1022.68C518.807 1023.23 520.237 1023.57 521.692 1023.68L532.444 1025.17C534.123 1025.51 535.853 1025.54 537.54 1025.23C538.455 1024.99 539.309 1024.57 540.048 1023.98C540.786 1023.39 541.393 1022.65 541.827 1021.81C542.022 1021.52 542.094 1021.16 542.027 1020.81C541.899 1020.5 541.666 1020.24 541.367 1020.07L541.377 1020.15ZM442.679 546.513C440.68 545.314 438.892 543.414 436.503 542.924C432.646 542.135 425.092 547.763 430.957 550.282C434.685 551.881 438.952 552.031 442.579 553.841C443.373 554.307 444.206 554.705 445.067 555.03C445.501 555.192 445.965 555.256 446.426 555.218C446.887 555.18 447.334 555.041 447.735 554.81C448.237 554.39 448.698 553.925 449.114 553.421C449.604 552.941 450.273 552.531 450.423 551.851C450.573 551.172 449.904 550.282 449.214 549.772C447.216 548.302 444.787 547.773 442.669 546.513H442.679ZM487.516 551.761C487.712 552.037 487.967 552.264 488.263 552.427C488.559 552.59 488.888 552.683 489.225 552.701C490.79 552.934 492.388 552.622 493.75 551.817C495.112 551.012 496.156 549.763 496.706 548.279C497.257 546.796 497.281 545.168 496.774 543.668C496.267 542.169 495.26 540.89 493.922 540.046C491.524 538.536 488.466 538.626 485.838 537.576C481.261 535.737 478.663 530.729 474.276 528.47C471.358 526.97 467.971 526.83 464.713 526.54C450.844 525.276 437.479 520.703 425.741 513.205C423.433 511.716 421.135 510.096 418.496 509.337C410.502 506.997 402.508 509.726 400.18 518.093C400.014 518.582 399.959 519.101 400.02 519.613C400.211 520.193 400.595 520.69 401.107 521.021C401.62 521.352 402.231 521.497 402.838 521.432C404.047 521.276 405.226 520.939 406.335 520.433C412.781 518.183 419.806 520.822 426.121 523.431C427.127 523.777 428.065 524.298 428.889 524.971C430.588 526.51 430.888 528.969 431.977 531.039C433.174 533.022 435.107 534.451 437.354 535.013C439.601 535.575 441.979 535.224 443.968 534.038C444.644 533.514 445.359 533.043 446.106 532.628C447.08 532.255 448.125 532.105 449.164 532.188C450.682 532.225 452.193 532.42 453.671 532.768C455.04 533.088 456.599 533.768 456.829 535.157C457.228 537.596 453.361 538.526 452.592 540.875C452.437 541.533 452.475 542.222 452.702 542.858C452.929 543.495 453.335 544.052 453.871 544.464C454.956 545.271 456.188 545.858 457.498 546.193L468.84 549.872C470.187 550.415 471.636 550.661 473.087 550.592C473.813 550.54 474.503 550.258 475.059 549.787C475.614 549.316 476.005 548.681 476.175 547.973C476.285 547.173 476.015 546.293 476.434 545.604C476.854 544.914 478.083 544.714 479.053 544.754C480.851 544.705 482.643 545.003 484.329 545.633C485.168 545.957 485.899 546.51 486.44 547.23C486.981 547.949 487.308 548.806 487.387 549.702C487.26 550.393 487.308 551.104 487.526 551.771L487.516 551.761ZM357.081 114.679C359.479 115.129 362.017 115.119 364.216 116.188C365.945 117.028 367.523 118.528 369.432 118.388C371.121 118.268 372.43 116.858 373.269 115.389C373.807 114.503 374.129 113.503 374.209 112.47C374.478 103.143 361.668 105.762 356.751 108.111C355.852 108.489 355.042 109.051 354.373 109.761C354.048 110.123 353.817 110.559 353.699 111.031C353.58 111.503 353.579 111.997 353.693 112.47C354.133 113.819 355.692 114.419 357.081 114.679ZM357.251 91.0176C354.253 89.4381 345.07 92.7669 347.258 97.0154C347.878 98.235 349.496 98.4949 350.866 98.5848L355.222 98.8947C360.219 99.2346 361.598 93.2468 357.291 91.0176H357.251ZM313.672 84.9298C313.093 86.2793 313.832 87.8087 314.672 89.0183C315.511 90.2279 316.49 91.4874 316.47 92.9569C316.419 93.4216 316.392 93.8888 316.391 94.3564C316.519 94.9376 316.811 95.4698 317.232 95.8897C317.654 96.3097 318.187 96.5998 318.769 96.7255C321.767 97.6652 325.074 96.4956 328.022 97.4552C328.648 97.7105 329.289 97.9275 329.941 98.105C330.901 98.2063 331.87 98.0223 332.727 97.5761C333.583 97.1298 334.289 96.4411 334.757 95.5959C336.606 92.597 337.275 89.2382 334.298 87.2989C331.909 85.7295 329.851 84.1001 327.612 82.3007C324.045 79.4817 315.761 80.1215 313.722 84.9298H313.672ZM340.883 67.676C343.191 69.9752 345.22 73.184 344.15 76.5628C343.821 77.5624 343.221 78.5621 343.451 79.6517C343.801 81.2311 345.739 81.7909 347.348 81.9308C350.476 82.2207 353.643 82.0708 356.711 82.7505C359.946 83.516 362.909 85.1534 365.278 87.485C367.648 89.8166 369.333 92.7532 370.152 95.9758C370.329 97.3601 370.762 98.6992 371.431 99.9244C373.049 102.234 376.427 102.323 379.205 102.164C386.806 101.757 394.411 101.347 402.018 100.934C405.896 100.724 409.933 100.464 413.38 98.6648C413.91 98.4544 414.385 98.125 414.768 97.7022C415.151 97.2793 415.432 96.7742 415.589 96.2257C415.798 94.8762 414.689 93.6966 413.59 92.9269C408.814 89.5781 402.508 89.4281 396.712 90.1079C390.916 90.7877 385.101 92.1072 379.305 91.3974C376.752 91.1749 374.32 90.2088 372.31 88.6184C368.063 84.9298 367.883 77.9223 363.426 74.5135C359.379 71.4046 353.434 72.4443 349.496 69.2154C346.009 66.3265 347.928 61.9181 342.781 60.9684C341.103 60.6585 335.677 60.6985 335.637 63.2576C335.637 64.817 339.794 66.7063 340.843 67.736L340.883 67.676ZM633.93 686.153C623.938 681.005 612.456 679.665 601.734 676.256C591.011 672.848 580.119 666.35 576.642 655.644C575.323 651.565 575.533 645.867 572.855 642.518C569.857 638.8 564.071 638.38 561.073 634.681C558.505 631.512 558.635 626.684 555.767 623.755C551.77 619.677 544.965 621.866 539.239 621.516C534.824 621.229 530.687 619.262 527.677 616.018C526.108 614.329 524.869 612.299 523.031 610.9C520.762 609.17 517.635 608.441 516.096 606.032C512.648 600.614 520.503 592.726 515.906 587.538C514.982 586.537 513.758 585.863 512.418 585.619C506.423 584.459 501.496 589.358 495.75 589.258C488.076 589.118 482.86 580.351 475.225 579.591C471.228 579.191 467.301 581.131 464.083 583.59C460.866 586.049 458.028 588.978 454.6 591.117C447.605 595.485 438.902 595.985 430.618 595.925C425.621 595.925 420.455 595.745 415.988 597.925C414.627 595.442 413.919 592.655 413.932 589.823C413.944 586.992 414.676 584.211 416.058 581.74C418.916 576.742 416.578 568.845 412.151 565.186C405.416 559.618 393.165 563.457 388.808 555.03C388.055 553.529 387.672 551.871 387.689 550.192C387.689 544.964 390.357 540.575 392.555 536.097C392.907 535.425 393.02 534.653 392.875 533.908C392.375 531.698 389.737 531.908 388.138 530.789C385.64 529.009 386.739 525.171 386.46 522.112C386.31 520.551 385.728 519.062 384.779 517.813C383.83 516.565 382.551 515.606 381.087 515.045C379.623 514.484 378.031 514.343 376.491 514.638C374.951 514.933 373.524 515.652 372.37 516.714C368.812 520.003 368.703 525.591 366.074 529.709C362.587 535.107 354.303 536.627 349.087 532.798C341.542 527.23 338.734 516.954 338.844 507.557C339.049 496.303 342.306 485.315 348.267 475.769C351.265 470.9 356.012 465.972 361.698 466.602C365.625 467.032 368.992 470.111 372.949 470.141C377.696 470.191 381.243 465.982 385.43 463.733C390.617 460.944 397.012 461.234 402.608 463.053C404.741 463.609 406.674 464.756 408.184 466.362C410.182 468.741 410.282 472.13 409.953 475.189C409.293 481.357 407.105 487.504 409.253 493.642C409.723 495.107 410.531 496.441 411.61 497.536C412.69 498.632 414.011 499.459 415.469 499.95C421.704 501.839 424.712 495.242 430.188 494.862C431.324 494.754 432.46 495.063 433.386 495.732C437.023 498.461 433.106 504.009 435.834 506.728C436.462 507.285 437.262 507.612 438.1 507.655C438.939 507.699 439.768 507.456 440.451 506.967C442.379 505.718 443.179 503.509 443.778 501.379C445.298 495.986 445.939 490.383 445.677 484.785C445.643 483.966 445.485 483.157 445.207 482.386C443.408 477.788 438.482 478.598 434.635 479.677C430.957 480.677 426.281 481.457 424.362 477.488C423.636 475.9 423.518 474.099 424.032 472.43L428.399 457.105C429.616 452.742 431.936 448.766 435.134 445.56C438.742 442.001 442.779 438.562 444.677 433.904C445.41 431.919 445.929 429.861 446.226 427.766C447.339 421.615 448.445 415.46 449.544 409.303C450.333 404.884 451.143 400.416 453.131 396.397C455.12 392.379 458.467 388.81 462.784 387.611C467.941 386.201 474.776 387.78 476.365 380.913C476.745 379.007 476.673 377.038 476.155 375.165C474.276 367.448 479.602 360.29 486.227 356.762C488.766 355.412 491.733 354.452 494.501 355.702C495.216 356.004 495.842 356.485 496.32 357.097C496.797 357.709 497.11 358.433 497.229 359.201C497.559 361.83 495.351 363.469 493.692 365.199C492.253 366.718 491.134 369.147 492.433 370.777C493.177 371.546 494.175 372.019 495.241 372.106C497.576 372.471 499.967 372.141 502.116 371.156C508.831 368.158 512.378 361.73 517.745 357.281C521.322 354.283 526.178 351.214 525.619 346.615C525.329 344.186 523.46 341.847 524.28 339.538C525.199 336.969 528.857 336.389 531.015 335.779C532.918 335.211 534.909 334.99 536.891 335.129C540.438 335.449 542.407 336.849 543.556 338.718C546.164 342.967 551.91 344.126 555.547 340.717C556.31 340.013 556.949 339.185 557.436 338.268C558.399 336.333 558.846 334.181 558.734 332.022C558.622 329.862 557.955 327.768 556.796 325.943C554.958 323.114 552.08 321.174 549.272 319.315L542.037 314.527C540.508 313.527 538.869 312.348 538.43 310.528C538.234 309.314 538.361 308.069 538.799 306.92C540.077 302.578 541.865 298.404 544.125 294.484C544.919 293.397 545.374 292.1 545.434 290.755C545.325 289.136 544.005 287.757 543.436 286.477C543.057 285.525 542.481 284.663 541.747 283.948C540.318 282.698 539.149 280.369 537.13 279.46C535.112 278.55 533.003 279.21 530.965 279.739C526.128 280.999 521.062 281.739 516.116 281.019C514.696 280.89 513.343 280.356 512.219 279.48C510.22 277.68 510.37 274.401 511.649 272.042C512.928 269.683 515.066 267.934 516.895 265.974C518.724 264.015 520.343 261.536 520.143 258.857C519.743 253.379 512.149 250.32 512.219 244.862C512.219 243.373 512.838 241.933 512.808 240.444C512.738 236.805 509.341 234.136 505.683 233.346C504.486 233.072 503.236 233.133 502.07 233.522C500.905 233.912 499.87 234.616 499.078 235.555C496.61 238.604 496.34 243.073 493.692 245.982C492.333 247.483 490.461 248.421 488.445 248.611C486.429 248.801 484.415 248.229 482.799 247.008C481.184 245.787 480.084 244.005 479.716 242.013C479.348 240.021 479.739 237.963 480.811 236.245C481.377 235.488 481.862 234.674 482.26 233.816C483.26 230.967 480.322 228.128 477.374 227.498C474.426 226.869 471.378 227.498 468.38 227.068C459.936 225.649 455.07 215.683 446.676 213.883C440.68 212.604 434.445 216.002 429.369 218.971C428.454 219.484 427.734 220.284 427.318 221.246C426.903 222.209 426.816 223.282 427.07 224.299C428.199 228.298 433.396 226.789 435.794 229.298C438.852 232.487 434.545 237.915 431.577 240.214C430.583 240.936 429.804 241.914 429.322 243.044C428.84 244.174 428.673 245.414 428.839 246.631C429.359 249.72 431.887 250.08 434.015 250.93C440.7 253.589 443.728 262.816 439.921 268.923C436.923 273.772 430.268 277.61 431.647 283.148C432.386 286.097 435.234 287.936 437.023 290.396C441.86 297.073 436.603 308.839 427.34 307.669C425.698 307.496 424.114 306.963 422.7 306.11C421.286 305.257 420.077 304.104 419.157 302.732C418.238 301.36 417.63 299.803 417.378 298.171C417.126 296.538 417.234 294.87 417.697 293.285C419.336 287.737 424.032 282.948 423.533 276.671C423.465 275.382 423.038 274.138 422.302 273.079C421.566 272.019 420.549 271.186 419.366 270.673C415.788 269.233 413.54 272.022 410.642 272.982C403.647 275.301 398.271 266.984 391.846 263.455C388.089 261.386 383.672 260.956 379.645 259.527C375.618 258.097 371.57 255.018 371.301 250.74C371.346 249.62 371.316 248.497 371.211 247.381C370.132 242.203 361.957 242.873 358.53 238.844C355.472 235.275 357.431 229.787 359.789 225.719C365.018 216.695 371.619 208.541 379.355 201.548C381.124 199.958 383.062 198.379 385.4 197.969C386.161 197.84 386.941 197.877 387.686 198.077C388.431 198.277 389.124 198.636 389.717 199.129C393.405 202.187 387.459 205.806 395.183 208.755C396.267 209.174 397.468 209.174 398.551 208.755C402.318 207.216 401.139 201.688 404.676 200.378C405.634 200.075 406.669 200.143 407.579 200.569C408.488 200.995 409.203 201.748 409.583 202.677C411.102 206.226 409.183 209.535 407.355 212.494C411.152 213.603 414.989 210.894 417.677 207.985C420.675 204.707 423.313 200.758 423.203 196.11C423.168 194.105 422.464 192.17 421.205 190.612C417.947 186.663 413.04 187.703 408.594 187.473C404.976 187.283 400.689 185.244 400.679 181.615C400.679 178.266 404.317 176.157 407.584 175.437C410.852 174.717 414.529 174.497 416.878 172.118C420.275 168.66 418.876 162.982 419.336 158.123C420.065 150.356 427.33 143.059 435.724 145.558C437.168 145.993 438.503 146.732 439.638 147.725C440.774 148.718 441.685 149.942 442.309 151.316C445.557 158.513 438.712 162.982 438.962 169.489C438.964 170.509 439.25 171.507 439.789 172.372C440.327 173.238 441.096 173.936 442.009 174.387C448.005 177.117 453.291 165.181 460.606 168.66C462.227 169.492 463.482 170.896 464.13 172.6C464.777 174.303 464.771 176.187 464.113 177.886C461.385 185.274 453.671 186.883 446.766 188.123C443.269 188.722 439.471 189.502 437.563 192.771C437.078 193.557 436.837 194.469 436.869 195.392C436.901 196.315 437.205 197.208 437.743 197.959C439.122 199.778 441.05 199.598 442.829 199.269C446.576 198.589 450.243 197.329 454.051 197.149C457.858 196.969 462.045 198.149 464.183 201.298C465.492 203.217 465.882 205.596 466.741 207.745C468.59 212.354 473.257 216.062 478.203 215.593C485.098 214.933 488.905 207.396 490.914 200.768C492.923 194.14 495.181 186.453 501.576 183.774C505.383 182.205 510.23 182.694 512.468 178.566C513.137 177.253 513.423 175.779 513.292 174.311C513.161 172.844 512.619 171.443 511.729 170.269C507.732 164.661 500.977 163.891 495.171 161.432C490.584 159.493 486.057 155.584 486.287 150.616C486.357 149.097 486.877 147.617 486.867 146.088C486.867 141.669 482.56 138.56 478.553 136.681C466.652 131.103 453.181 129.464 441.5 123.406C440.711 123.01 440.027 122.435 439.501 121.726C437.932 119.587 439.421 118.068 440.051 116.358C441.65 112.02 437.173 107.462 432.586 106.862C428 106.262 423.523 108.211 419.076 109.511C412.801 111.374 406.22 111.978 399.71 111.29C394.164 110.66 388.488 109.111 383.272 113.659C381.325 115.327 379.806 117.438 378.841 119.813C377.876 122.189 377.494 124.761 377.726 127.314C378.416 134.572 383.722 140.86 390.167 144.198C393.345 145.838 397.112 147.127 398.721 150.326C401.629 156.074 395.273 162.932 391.066 166.23C390.411 166.772 389.642 167.158 388.816 167.358C387.991 167.559 387.13 167.57 386.3 167.39C382.632 166.48 382.892 162.532 381.164 159.973C378.166 155.494 370.172 156.424 367.733 151.626C364.576 145.468 374.318 137.861 366.194 131.583C363.71 129.703 360.675 128.698 357.561 128.724C351.765 128.724 342.412 126.185 342.641 119.727C342.751 116.548 345.35 113.419 343.641 110.511C343.061 109.61 342.2 108.926 341.192 108.565C340.184 108.203 339.085 108.184 338.065 108.511C332.799 110.021 330.95 115.749 326.483 118.068C323.216 119.767 318.669 119.627 317.01 123.136C316.545 124.225 316.43 125.433 316.683 126.59C316.935 127.747 317.542 128.797 318.419 129.594C321.737 132.753 326.273 132.523 330.47 132.123C334.667 131.723 339.144 131.213 342.701 134.122C343.619 134.829 344.302 135.798 344.658 136.901C345.015 138.004 345.03 139.189 344.7 140.3C343.291 144.548 337.705 144.478 334.108 146.787C328.802 150.206 329.461 159.943 335.886 161.952C336.391 162.086 336.851 162.349 337.223 162.715C337.594 163.082 337.864 163.539 338.005 164.041C338.554 166.25 336.936 166.87 335.547 167.29C331.33 168.6 327.003 169.909 322.556 169.759C318.109 169.609 313.563 167.69 311.294 163.881C310.712 162.554 309.956 161.31 309.046 160.183C306.508 157.684 302.201 158.983 299.233 160.952C296.265 162.922 293.287 165.551 289.73 165.331C287.891 165.221 286.202 164.331 284.404 163.921C279.947 162.922 275.47 164.981 271.103 166.32C266.736 167.66 261.3 168.02 258.293 164.571C259.692 160.153 264.668 157.933 269.285 157.204C273.901 156.474 278.718 156.644 282.895 154.635C284.743 153.755 286.392 152.465 288.281 151.636C293.497 149.446 299.393 151.336 304.989 152.116C310.585 152.895 317.58 151.666 319.538 146.368C320.807 142.939 319.308 138.96 316.7 136.371C314.092 133.782 309.775 132.912 306.777 130.913C304.179 129.114 302.92 125.865 302.72 122.706C302.69 119.545 303.086 116.394 303.9 113.34C304.329 111.27 304.729 109.021 302.441 107.342C301.544 106.718 300.499 106.343 299.411 106.253C298.323 106.164 297.231 106.363 296.245 106.832C294.966 107.269 293.809 108.002 292.868 108.971C290.669 111.81 293.317 116.638 290.329 119.117C289.724 119.579 289.016 119.887 288.266 120.014C287.516 120.141 286.746 120.084 286.023 119.847C282.355 118.848 280.297 115.289 276.969 113.849C273.642 112.41 270.114 113.18 266.647 113.33C264.301 113.357 262.02 112.558 260.204 111.072C258.388 109.586 257.152 107.508 256.714 105.202C256.632 104.55 256.488 103.908 256.284 103.283C254.765 98.9147 249.359 97.2053 244.732 97.4752C240.106 97.7451 235.569 99.3346 230.952 98.9347C227.045 98.5848 223.268 96.8055 219.351 97.0754C212.686 97.5552 207 103.073 203.972 108.991C202.197 112.474 201.137 116.278 200.854 120.177C200.612 121.812 200.918 123.482 201.724 124.925C202.412 125.803 203.272 126.531 204.252 127.065C208.638 129.829 213.236 132.242 218.002 134.282C222.349 136.141 228.055 137.441 231.282 133.992C232.941 132.213 233.441 129.614 234.979 127.734C236.03 126.489 237.501 125.673 239.113 125.443C240.726 125.212 242.366 125.583 243.723 126.485C246.611 128.654 246.721 133.892 243.253 135.611C242.38 135.992 241.671 136.673 241.255 137.531C240.036 140.39 244.153 141.529 245.472 143.928C246.901 146.498 244.343 149.796 241.475 150.306C238.607 150.816 235.719 149.476 233.031 148.307C230.343 147.137 227.355 145.948 224.537 146.787C220.28 148.057 214.904 146.847 211.047 144.648C207.19 142.449 203.612 139.56 199.325 138.43C193.42 136.881 187.234 138.9 181.468 140.9L160.663 148.097C156.237 149.636 151.67 151.186 147.023 151.186C134.532 151.186 124.13 140.42 111.659 139.74C103.165 139.28 94.7811 143.599 86.3972 142.199C77.8334 140.77 70.9184 133.632 62.2747 132.842C48.3848 131.593 38.6418 146.647 25.3015 150.836C20.9447 152.215 16.1182 152.445 12.4208 155.354C11.5461 156.03 10.8209 156.88 10.2912 157.851C9.76145 158.821 9.43861 159.891 9.34308 160.992C8.82346 168.18 18.5164 166.87 19.0261 172.348C19.0841 173.12 18.9466 173.893 18.6264 174.597C15.1888 182.595 0.63939 181.975 -0.0101387 190.642C-0.0877679 192.412 0.424603 194.158 1.44651 195.605C2.46842 197.053 3.94197 198.12 5.63577 198.639C13.3502 201.248 20.2352 196.769 27.6198 196.639C30.194 196.6 32.7492 197.085 35.1301 198.065C37.5111 199.044 39.668 200.498 41.4698 202.337C38.1622 206.076 32.9759 207.466 28.0795 208.415C22.1538 209.565 15.8284 210.484 11.6514 215.323C10.6281 216.444 9.89607 217.801 9.51969 219.272C9.14332 220.743 9.13414 222.284 9.49297 223.76C11.4216 230.807 20.485 229.758 24.1024 234.866C26.2508 237.865 25.8311 242.203 28.0995 245.162C33.1558 251.85 46.1864 245.892 51.1528 252.629C52.0287 253.902 52.5313 255.395 52.6037 256.939C52.6761 258.483 52.3154 260.016 51.5625 261.366C48.8944 266.434 43.7282 268.573 38.9516 271.023C32.2756 274.439 26.0464 278.666 20.4051 283.608C19.156 284.708 17.8369 286.077 17.9468 287.737C18.0607 288.731 18.5637 289.641 19.3458 290.266C22.5335 293.055 27.6898 291.445 30.8175 288.586C33.9452 285.727 36.0937 281.869 39.5112 279.36C45.8366 274.711 55.4996 275.471 60.5859 269.483C61.2819 268.428 62.162 267.507 63.184 266.764C66.1219 265.085 69.4995 267.904 72.7671 268.763C78.9726 270.403 85.258 262.566 82.3302 256.868C80.4615 253.259 76.1846 251.3 74.6058 247.551C72.6072 242.923 76.7542 236.945 81.7806 237.085C84.0589 237.155 86.5071 238.634 86.7769 240.903C86.9868 242.903 85.5378 244.832 86.4872 246.731C86.7628 247.198 87.1335 247.602 87.5752 247.917C88.017 248.231 88.5199 248.449 89.0514 248.557C89.5828 248.664 90.131 248.659 90.6601 248.541C91.1893 248.423 91.6878 248.194 92.1231 247.871C95.8803 245.442 95.9803 240.814 98.3186 237.515C102.246 231.967 110.72 232.287 116.925 235.026C129.126 240.404 137.43 252.179 149.192 258.447C154.818 261.446 161.183 263.145 166.339 266.894C171.496 270.643 175.333 277.53 172.805 283.398C171.376 286.757 167.988 289.906 169.607 293.395C169.945 294.071 170.422 294.669 171.008 295.148C171.594 295.627 172.274 295.977 173.004 296.174C176.682 297.283 180.309 295.744 183.996 296.054C186.19 296.274 188.268 297.145 189.964 298.553C191.661 299.962 192.898 301.845 193.52 303.961C194.429 307.25 192.36 310.508 190.652 313.457C190.284 313.945 190.081 314.536 190.072 315.147C190.187 315.654 190.447 316.116 190.822 316.476L207.34 335.649C209.547 337.949 211.366 340.592 212.726 343.476C213.965 346.475 214.145 349.854 214.324 353.123C214.734 361.2 215.154 369.307 214.324 377.354C213.975 380.903 213.375 384.442 213.195 388.01C213.09 392.501 213.331 396.992 213.915 401.446C214.055 403.792 214.499 406.11 215.234 408.343C216.423 411.512 218.711 414.101 220.79 416.76C225.832 423.202 229.849 430.384 232.701 438.052C235.109 444.53 243.693 445.51 246.781 451.697C248.919 455.986 247.86 461.154 248.999 465.812C250.558 472.15 255.914 476.718 259.562 482.146C266.906 493.082 267.636 508.207 277.389 517.054C278.798 518.343 280.556 519.523 282.645 518.733C283.344 518.444 283.96 517.985 284.437 517.399C284.915 516.813 285.24 516.117 285.383 515.374C285.993 512.525 284.464 509.866 282.575 507.827C280.926 506.048 278.988 504.568 277.449 502.709C274.723 499.13 273.289 494.732 273.382 490.233C273.382 488.234 273.741 485.905 275.47 484.885C276.414 484.409 277.479 484.224 278.528 484.356C280.258 484.484 281.918 485.089 283.324 486.105C287.491 489.104 289.17 493.792 290.789 498.331C292.788 503.939 294.786 509.596 295.456 515.514C295.965 520.103 295.656 524.801 296.655 529.309C298.124 535.937 302.99 541.625 307.647 546.363C313.043 551.891 322.286 551.361 329.071 554.15C333.738 556.09 337.675 559.438 342.062 561.918C346.449 564.397 351.855 566.016 356.561 564.147C358.09 563.537 359.479 562.587 361.058 562.148C365.055 561.008 369.122 563.227 372.68 565.366C375.378 566.996 378.246 568.805 379.445 571.724C380.244 573.663 380.194 575.893 381.164 577.722C382.612 580.521 385.93 581.78 389.008 582.39C392.086 583 395.393 583.29 398.001 585.059C401.509 587.438 402.908 591.887 403.657 596.055C404.407 600.224 404.796 604.642 407.145 608.171C408.806 610.528 411.205 612.265 413.962 613.108C416.719 613.952 419.678 613.853 422.374 612.829C424.952 611.76 427.1 609.83 429.528 608.511C431.957 607.191 435.004 606.312 437.523 607.511C440.61 609.041 438.912 614.928 437.353 618.017C435.794 621.106 433.356 623.735 432.436 627.074C432.076 628.9 431.866 630.752 431.807 632.612C430.658 644.548 421.204 654.244 419.006 666.04C418.571 667.891 418.571 669.817 419.006 671.668C419.586 673.667 420.935 675.347 421.714 677.276C425.042 685.653 416.578 694.63 417.937 703.536C419.046 710.804 426.081 715.362 430.927 720.93C434.185 724.699 436.523 729.167 438.832 733.596C441.5 738.694 444.178 743.842 445.737 749.39C447.685 756.327 447.885 763.925 451.622 770.082C454.95 775.51 460.566 779.079 466.002 782.368C473.497 786.966 469.819 800.182 468.29 808.848L463.494 836.159C462.355 842.696 461.196 849.334 461.835 855.932C462.325 860.93 463.834 865.828 464.693 870.806C466.851 883.222 464.913 896.007 462.015 908.283C457.618 926.986 451.023 945.169 447.336 964.032C443.648 982.896 443.089 1003.02 450.503 1020.77C452.042 1024.45 451.892 1028.21 453.361 1031.92C455.729 1037.92 461.485 1041.72 466.921 1045.16C471.718 1048.16 476.664 1051.3 482.23 1052.39C489.395 1053.79 496.73 1051.72 503.725 1049.67C504.724 1049.36 505.893 1049 506.043 1047.54C506.087 1047.03 506.003 1046.52 505.799 1046.05C505.595 1045.59 505.277 1045.18 504.874 1044.86C500.877 1041.66 496.23 1039.57 492.003 1036.78C488.176 1034.25 484.599 1030.95 483.07 1026.63C481.691 1022.75 482.07 1018.45 483.21 1014.48C484.567 1009.55 486.909 1004.94 490.095 1000.94C492.543 997.87 495.491 995.131 497.269 991.652C499.048 988.174 499.368 983.495 496.69 980.656C495.743 979.864 494.873 978.984 494.092 978.027C492.543 975.588 493.922 972.419 495.311 969.88C496.383 967.763 497.658 965.754 499.118 963.883C501.636 960.884 505.114 958.694 507.262 955.416C509.64 951.807 509.77 946.239 506.263 943.72C504.884 942.72 502.985 942.19 502.745 940.211C502.702 939.745 502.756 939.275 502.904 938.831C503.052 938.387 503.291 937.979 503.605 937.632C505.673 935.213 509.281 935.383 511.509 933.334C513.737 931.284 513.837 927.776 515.506 925.256C516.381 924.1 517.502 923.152 518.788 922.481C520.073 921.81 521.492 921.433 522.941 921.378C524.798 921.259 526.663 921.387 528.487 921.758C529.462 921.939 530.463 921.92 531.431 921.702C532.398 921.484 533.312 921.072 534.115 920.49C534.919 919.909 535.596 919.171 536.106 918.32C536.615 917.469 536.947 916.523 537.08 915.54C537.49 912.331 536.661 909.112 536.411 905.883C536.161 902.655 536.651 898.996 539.119 896.887C540.614 895.786 542.312 894.995 544.115 894.557C549.861 892.718 555.897 890.009 558.775 884.691C560.124 882.182 560.653 879.303 561.493 876.574C563.375 870.507 566.908 865.083 571.695 860.91C574.923 858.091 578.78 855.792 581.019 852.143C586.285 843.576 580.639 831.38 585.905 822.813C587.368 820.62 589.233 818.724 591.401 817.225C596.783 813.221 602.892 810.301 609.388 808.629C610.96 808.305 612.499 807.837 613.985 807.229C619.131 804.85 621.449 798.922 623.278 793.554C625.736 786.357 623.818 778.959 623.208 771.372C622.798 766.224 622.019 760.956 623.348 755.958C624.827 750.37 628.844 745.561 629.523 739.823C629.903 736.685 629.264 733.376 630.453 730.457C631.264 728.701 632.452 727.145 633.93 725.898C639.796 720.48 647.331 716.902 652.357 710.724C653.266 709.769 653.841 708.545 653.996 707.235C653.926 706.047 653.528 704.902 652.847 703.926C648.365 696.342 641.836 690.175 634.01 686.133L633.93 686.153ZM246.571 92.1771C246.325 92.4417 246.144 92.7605 246.043 93.1077C245.943 93.455 245.925 93.8211 245.992 94.1764C246.102 94.4262 246.265 94.6497 246.468 94.8323C246.671 95.0149 246.911 95.1525 247.171 95.236C251.048 96.8555 255.784 93.2368 259.532 95.1061C261.84 96.2857 262.729 99.1046 264.528 100.984C265.465 101.961 266.637 102.682 267.931 103.077C269.226 103.472 270.6 103.53 271.923 103.243C274.771 102.583 277.009 100.424 279.647 99.1746C283.824 97.1753 288.721 97.6152 293.167 96.3956C296.435 95.506 299.942 92.617 298.953 89.3982C297.864 85.8494 292.678 85.6195 290.369 82.7106C289.64 81.8009 289.25 80.7113 288.561 79.7116C287.581 78.4658 286.157 77.6487 284.588 77.4324C283.018 77.2161 281.426 77.6175 280.147 78.5521C277.539 80.5513 277.489 84.39 279.147 86.999C273.562 90.3578 269.405 87.049 264.158 85.2796C257.663 83.0604 250.408 86.7891 246.571 92.1771ZM222.099 88.9283C224.606 88.3338 227.015 87.3846 229.254 86.1093C233.366 84.0797 237.646 82.4075 242.044 81.1111C246.121 79.9316 249.619 82.0008 251.747 77.1126C252.391 75.7224 252.589 74.1669 252.313 72.6598C252.038 71.1526 251.303 69.7678 250.208 68.6956C244.033 62.3979 234.83 65.7967 229.224 70.6949L216.053 82.4107C215.164 83.1804 214.205 84.16 214.314 85.3196C214.396 85.8842 214.647 86.4107 215.034 86.8291C216.693 88.8284 219.571 89.3482 222.109 88.8983L222.099 88.9283ZM266.357 67.3061C270.714 67.5061 275.08 67.526 279.417 67.3661C285.653 67.1162 280.746 55.2405 277.009 53.4211C272.013 50.982 263.839 57.3397 261.6 61.5782C261.254 62.1641 261.068 62.8304 261.059 63.5108C261.05 64.1913 261.219 64.8622 261.55 65.4568C262.55 66.9563 264.548 67.2162 266.357 67.3061ZM302.87 56.54C304.449 57.0598 306.138 57.1298 307.747 57.5396C312.034 58.6293 315.331 62.008 318.219 65.3468C319.174 66.5886 320.329 67.6629 321.637 68.5257C326.683 71.4446 329.201 65.3468 327.462 61.3083C325.814 57.4997 320.418 55.2505 317.17 53.0813C313.453 50.6021 309.406 48.0831 304.939 48.223C302.131 48.343 298.943 50.4522 299.443 53.2212C299.674 54.0242 300.111 54.7528 300.711 55.3349C301.31 55.917 302.051 56.3324 302.86 56.54H302.87ZM907.172 64.757C906.173 65.4268 905.174 66.3565 905.264 67.5161C905.373 69.3354 907.762 69.8952 909.58 69.9352L919.503 70.1651C920.548 70.1404 921.589 70.2787 922.591 70.5749C923.461 70.9746 924.306 71.4286 925.119 71.9345C926.326 72.5492 927.657 72.8805 929.011 72.903C930.365 72.9255 931.707 72.6387 932.934 72.0644C933.669 71.7714 934.324 71.3077 934.846 70.7115C935.367 70.1154 935.739 69.4039 935.931 68.6356C936.761 63.6374 928.217 59.4889 924.23 59.1291C918.554 58.6193 911.709 61.5882 907.242 64.757H907.172ZM897.419 37.6268C901.646 38.4865 906.513 37.7768 909.84 40.5058C911.729 42.0552 912.758 44.5044 914.717 45.9238C917.135 47.7232 920.423 47.6632 923.45 47.5333L943.846 46.6236C944.414 46.6435 944.98 46.527 945.494 46.2837C946.002 45.9091 946.347 45.3545 946.458 44.7336C946.57 44.1127 946.439 43.4727 946.094 42.9449C943.646 38.8064 934.672 37.9467 930.545 36.0274C927.098 34.458 924.07 32.0289 920.622 30.4994C917.261 29.0347 913.558 28.5396 909.93 29.0699C906.373 29.4198 896.37 29.8396 893.862 32.4787C893.478 32.986 893.287 33.6128 893.322 34.2479C893.356 34.8829 893.615 35.4851 894.052 35.9474C894.961 36.8565 896.145 37.4398 897.419 37.6068V37.6268ZM860.176 49.7525C862.694 51.2919 865.632 51.9617 868.36 53.0813C871.088 54.2009 873.816 55.9302 874.896 58.6792C876.474 62.6778 874.166 67.726 876.564 71.2947C877.299 72.2595 878.264 73.0241 879.371 73.5184C880.478 74.0127 881.691 74.2209 882.9 74.1237C885.313 73.9127 887.648 73.1647 889.735 71.9345C890.533 71.5533 891.249 71.0202 891.843 70.365C893.942 67.746 891.843 63.4575 893.662 60.6685C895.381 58.1394 899.798 57.9095 900.517 54.9306C900.689 53.8653 900.506 52.7732 899.997 51.8217C896.14 43.3148 885.498 43.2148 877.524 41.7254C874.066 41.0756 871.788 40.8457 868.4 42.0652C866.402 42.765 856.409 47.5333 860.156 49.8024L860.176 49.7525ZM740.653 197.629C743.911 196.24 747.068 193.98 748.247 190.632C749.906 185.873 747.088 180.815 744.25 176.637C742.522 174.078 739.923 171.229 736.956 172.038C735.037 172.558 733.888 174.427 732.619 175.957C722.476 188.232 706.488 179.895 693.847 184.814C682.555 189.232 705.518 198.019 706.668 205.106C706.717 206.077 706.937 207.031 707.317 207.925C707.64 208.401 708.055 208.808 708.537 209.122C709.019 209.436 709.559 209.651 710.125 209.755C713.822 210.684 717.72 209.295 720.997 207.366C724.275 205.436 727.223 202.927 730.65 201.288C733.848 199.748 737.375 199.019 740.643 197.619L740.653 197.629ZM679.927 156.114C672.802 156.777 666.149 159.969 661.171 165.111C657.693 168.71 655.065 173.248 650.868 175.997C646.671 178.746 641.365 179.326 636.508 180.825C622.029 185.284 611.027 199.338 610.188 214.483C609.978 218.302 610.357 222.16 609.748 225.939C609.138 229.718 607.33 233.566 603.952 235.355C596.957 239.064 589.293 232.357 581.738 230.007C578.111 228.888 574.094 228.778 570.906 226.729C563.911 222.19 565.04 211.914 564.391 203.577C563.652 194.421 559.768 185.802 553.399 179.186C550.91 176.637 547.843 173.848 548.142 170.299C548.322 168.17 549.731 166.36 551.07 164.701L563.062 149.846C559.564 141.979 545.285 147.937 540.028 141.109C533.763 133.002 549.022 120.537 543.026 112.2C541.744 110.681 540.188 109.416 538.44 108.471C531.045 103.693 526.448 95.476 520.333 89.2082C515.416 84.21 507.122 86.2093 500.207 87.5988C492.754 89.0701 485.106 89.2762 477.584 88.2086C476.328 88.1068 475.109 87.7388 474.006 87.129C469.959 84.5599 471.818 78.4321 471.438 73.6538C471.222 71.3364 470.37 69.1237 468.977 67.2594C467.584 65.3951 465.704 63.9515 463.544 63.0876C462.055 62.5179 460.296 62.088 459.547 60.7185C458.128 58.1894 461.156 55.5204 463.824 54.3608C472.247 50.6921 482.27 48.293 486.997 40.3658C487.906 38.8364 488.586 36.9871 487.996 35.2877C486.757 31.489 480.861 32.0389 478.003 34.8378C475.145 37.6368 473.666 41.7154 470.459 44.0945C467.521 46.2837 463.644 46.6436 460.226 48.0031C455.23 50.0024 451.393 54.0009 447.715 57.9395C445.597 60.1887 443.398 62.5978 442.719 65.6067C442.259 67.606 442.499 69.6853 442.389 71.7245C441.85 81.0512 432.396 88.8783 423.163 87.7188C414.869 86.6491 407.844 79.6217 399.48 80.0615C395.133 80.2914 391.166 82.5606 386.929 83.6102C382.692 84.6599 377.356 84.0101 375.318 80.1515C379.052 73.6 383.748 67.6459 389.248 62.4879C392.385 59.4889 396.133 55.7303 394.774 51.6418C392.946 50.6578 390.929 50.0782 388.858 49.9424C386.779 49.9424 384.571 51.132 384.021 53.1312C383.622 54.5407 384.111 56.0402 384.021 57.4997C383.842 62.4179 377.966 65.027 373.029 65.0969C369.434 65.2831 365.871 64.3317 362.847 62.3779C359.939 60.3086 357.97 56.68 358.55 53.1512C358.827 52.177 358.945 51.1643 358.9 50.1523C358.43 47.2434 354.413 46.7435 351.555 47.4733C348.697 48.203 345.29 49.2826 343.101 47.2933C340.683 45.0841 341.992 40.9856 344.1 38.4765C347.506 34.4851 352.344 31.9934 357.571 31.539C363.826 31.0392 369.902 33.5383 375.558 36.3173C381.214 39.0963 386.789 42.2352 392.995 43.2048C399.2 44.1745 406.315 42.4051 409.753 37.147C408.084 34.0081 403.957 33.1485 400.4 33.3284C396.842 33.5083 393.145 34.2381 389.837 32.9385C387.439 31.9389 385.55 30.0596 383.232 28.94C381.233 27.9403 378.855 27.5405 376.987 26.2509C375.118 24.9614 373.919 22.1924 375.328 20.433C377.236 18.0439 381.034 19.9532 384.051 19.5933C387.319 19.2135 389.577 16.1046 392.655 14.975C397.122 13.3356 402.328 16.1646 406.795 14.4952C409.203 13.5955 410.982 11.4963 413.25 10.2967C415.988 8.82723 419.246 8.68728 422.364 8.59731C450.393 7.76761 477.993 8.39738 506.043 8.85722C509.73 8.0675 512.398 13.1957 510.86 16.6344C509.321 20.0732 505.473 21.8125 501.866 22.9921C500.187 23.5519 498.299 24.2217 497.629 25.8511C496.42 28.85 500.727 31.4291 503.725 30.3295C506.723 29.2299 508.571 26.3309 510.82 24.0317C518.234 16.5644 530.305 16.3945 540.538 18.8736C543.886 19.6833 547.263 20.7329 550.701 20.483C554.997 20.1631 558.995 17.834 563.311 17.714C566.649 17.6341 570.017 18.8936 573.304 18.1739C575.532 17.5256 577.608 16.4379 579.41 14.975C586.405 10.1068 594.289 5.42846 602.773 6.03824C606.091 6.27815 609.328 7.31777 612.646 7.42774C617.472 7.56768 622.119 5.73835 626.736 4.27887C639.637 0.287723 653.236 -0.930342 666.641 0.704546C680.046 2.33943 692.954 6.79035 704.519 13.7654C705.199 14.1853 705.948 14.7051 706.068 15.4948C706.062 16.1749 705.884 16.8424 705.548 17.4341C704.549 20.2831 706.688 23.4819 709.466 24.6715C712.243 25.8611 715.401 25.6012 718.459 25.3513C727.233 24.5915 736.023 24.0451 744.83 23.7119C747.918 23.6019 751.935 24.2017 752.534 27.2306C753.244 30.8293 748.377 32.6486 744.73 32.9985L731.47 34.2081C732.969 34.8078 732.179 38.6765 731.27 40.026C730.36 41.3755 728.851 42.1852 727.702 43.3448C725.704 45.3441 724.944 48.0931 724.385 50.8021C722.216 61.3283 722.816 72.2044 721.877 82.9005C720.937 93.5966 718.109 104.763 710.525 112.37C707.527 115.429 703.36 119.067 704.799 123.136C705.678 125.605 708.426 127.075 709.176 129.584C710.175 132.982 707.097 136.191 704 137.931C700.902 139.67 697.234 141.119 695.785 144.358C694.786 146.518 695.086 149.067 694.037 151.196C691.728 155.904 685.143 155.664 679.917 156.134L679.927 156.114Z" fill="#C5C1BE"/>
</svg>
