<svg width="59" height="64" viewBox="0 0 59 64" fill="none" xmlns="http://www.w3.org/2000/svg">
<g clip-path="url(#clip0_22760_3477)">
<path d="M37.3634 17.9498H41.1785C41.2766 17.9498 41.3738 17.9693 41.4644 18.0072C41.5551 18.0451 41.6375 18.1007 41.7069 18.1708C41.7763 18.2408 41.8313 18.324 41.8689 18.4155C41.9064 18.5071 41.9257 18.6052 41.9257 18.7043C41.9257 18.8034 41.9064 18.9015 41.8689 18.993C41.8313 19.0846 41.7763 19.1678 41.7069 19.2378C41.6375 19.3079 41.5551 19.3635 41.4644 19.4014C41.3738 19.4393 41.2766 19.4588 41.1785 19.4588H37.3634C37.2653 19.4588 37.1681 19.4393 37.0775 19.4014C36.9868 19.3635 36.9044 19.3079 36.835 19.2378C36.7657 19.1678 36.7106 19.0846 36.6731 18.993C36.6355 18.9015 36.6162 18.8034 36.6162 18.7043C36.6162 18.6052 36.6355 18.5071 36.6731 18.4155C36.7106 18.324 36.7657 18.2408 36.835 18.1708C36.9044 18.1007 36.9868 18.0451 37.0775 18.0072C37.1681 17.9693 37.2653 17.9498 37.3634 17.9498ZM34.807 12.0426C34.7096 11.8668 34.6839 11.6597 34.7353 11.465C34.7867 11.2704 34.9112 11.1037 35.0823 11.0002L38.3959 9.07416C38.568 8.9741 38.7724 8.94718 38.9642 8.99931C39.1559 9.05144 39.3194 9.17836 39.4184 9.35214C39.5175 9.52593 39.5442 9.73234 39.4926 9.92597C39.4409 10.1196 39.3152 10.2846 39.1431 10.3847L35.8394 12.3206C35.7206 12.3825 35.5895 12.4165 35.4559 12.4199C35.3247 12.4192 35.1958 12.3841 35.082 12.3179C34.9683 12.2518 34.8735 12.1569 34.807 12.0426ZM29.7039 6.08584L31.6114 2.77982C31.7118 2.60604 31.8765 2.47965 32.0692 2.42845C32.2619 2.37725 32.4668 2.40543 32.6389 2.50681C32.811 2.60818 32.9362 2.77443 32.9869 2.969C33.0376 3.16356 33.0097 3.3705 32.9093 3.54428L31.0018 6.88008C30.9527 6.96613 30.8874 7.04157 30.8094 7.10211C30.7315 7.16265 30.6425 7.2071 30.5475 7.23291C30.4526 7.25872 30.3535 7.2654 30.256 7.25256C30.1585 7.23971 30.0644 7.2076 29.9792 7.15806C29.894 7.10852 29.8193 7.04251 29.7593 6.96381C29.6994 6.88511 29.6553 6.79526 29.6298 6.69938C29.6042 6.6035 29.5976 6.50348 29.6103 6.40502C29.623 6.30656 29.6548 6.2116 29.7039 6.12555V6.08584ZM4.84728 18.7043C4.84728 18.5042 4.92601 18.3123 5.06615 18.1708C5.20629 18.0293 5.39636 17.9498 5.59455 17.9498H9.4194C9.61759 17.9498 9.80766 18.0293 9.9478 18.1708C10.0879 18.3123 10.1667 18.5042 10.1667 18.7043C10.1667 18.9053 10.0883 19.0983 9.94841 19.2414C9.80855 19.3844 9.61849 19.4661 9.4194 19.4687H5.59455C5.39546 19.4661 5.2054 19.3844 5.06554 19.2414C4.92567 19.0983 4.84726 18.9053 4.84728 18.7043ZM7.32507 9.35214C7.42659 9.19201 7.5829 9.07518 7.76422 9.02392C7.94555 8.97266 8.13922 8.99054 8.30833 9.07416L11.6121 11.0002C11.7528 11.0855 11.8623 11.2147 11.924 11.3684C11.9857 11.522 11.9962 11.6917 11.9541 11.8519C11.9119 12.0122 11.8193 12.1542 11.6902 12.2566C11.5611 12.3591 11.4026 12.4164 11.2384 12.4199C11.108 12.4164 10.9801 12.3824 10.8648 12.3206L7.60038 10.3847C7.44001 10.2837 7.32346 10.1252 7.2742 9.94099C7.22494 9.75678 7.24663 9.56057 7.33491 9.39186L7.32507 9.35214ZM13.8342 3.54428C13.7514 3.37353 13.7337 3.17798 13.7844 2.9949C13.8352 2.81181 13.9509 2.65398 14.1095 2.55148C14.2778 2.46323 14.4729 2.44285 14.6555 2.49447C14.8381 2.54608 14.9944 2.66583 15.0928 2.82946L17.0101 6.17519C17.0465 6.33736 17.0295 6.50709 16.9618 6.65864C16.894 6.81019 16.7791 6.9353 16.6346 7.015C16.4901 7.0947 16.3238 7.12465 16.1609 7.1003C15.9979 7.07595 15.8473 6.99864 15.7319 6.88008L13.8342 3.54428ZM22.6147 4.6165V0.754518C22.6147 0.554406 22.6934 0.362489 22.8335 0.220988C22.9737 0.0794868 23.1637 -7.62939e-06 23.3619 -7.62939e-06C23.5601 -7.62939e-06 23.7502 0.0794868 23.8903 0.220988C24.0305 0.362489 24.1092 0.554406 24.1092 0.754518V4.6165C24.1092 4.81661 24.0305 5.00853 23.8903 5.15003C23.7502 5.29153 23.5601 5.37103 23.3619 5.37103C23.1637 5.37103 22.9737 5.29153 22.8335 5.15003C22.6934 5.00853 22.6147 4.81661 22.6147 4.6165ZM24.1092 11.715C24.1092 11.9151 24.0305 12.107 23.8903 12.2485C23.7502 12.39 23.5601 12.4695 23.3619 12.4695C22.0415 12.4722 20.776 13.0036 19.8433 13.9473C18.9105 14.891 18.3867 16.1698 18.3867 17.503C18.3841 17.704 18.3032 17.8959 18.1615 18.0372C18.0198 18.1784 17.8287 18.2576 17.6296 18.2575C17.4314 18.2575 17.2413 18.178 17.1012 18.0365C16.961 17.895 16.8823 17.7031 16.8823 17.503C16.8784 16.64 17.0434 15.7848 17.3678 14.9863C17.6922 14.1879 18.1696 13.4621 18.7726 12.8505C19.3755 12.2388 20.0922 11.7535 20.8815 11.4224C21.6708 11.0912 22.5171 10.9208 23.3718 10.9208C23.5699 10.9208 23.76 11.0003 23.9002 11.1418C24.0403 11.2833 24.119 11.4752 24.119 11.6753L24.1092 11.715ZM55.5733 19.6574L52.9283 16.9868L56.8614 15.6564L55.5733 19.6574ZM44.0987 31.978C43.8619 31.4748 43.5993 30.9844 43.3121 30.5087L53.7543 19.9651L54.8752 21.0969L44.0987 31.978ZM46.3307 46.4133L44.7575 48.2499C44.6767 48.3457 44.6208 48.4604 44.5951 48.5835C44.5693 48.7066 44.5744 48.8342 44.61 48.9548L45.0328 50.4639L43.1155 51.6255C43.0173 51.6859 42.9343 51.7684 42.8729 51.8666C42.8116 51.9648 42.7734 52.0759 42.7615 52.1913C42.7473 52.3086 42.7614 52.4276 42.8025 52.5382C42.8436 52.6488 42.9105 52.7478 42.9975 52.8267L44.4035 54.1372L43.6366 55.686C43.5976 55.7598 43.5742 55.8409 43.5678 55.9243L43.4891 56.5001C43.4557 56.736 43.3758 56.9628 43.2543 57.1671C43.1327 57.3713 42.9719 57.549 42.7814 57.6896C42.5908 57.8302 42.3743 57.9309 42.1446 57.9858C41.9149 58.0407 41.6767 58.0486 41.4439 58.0091L38.4942 57.5227C37.3961 57.33 36.2657 57.5198 35.2885 58.061C34.3113 58.6022 33.5452 59.4625 33.1158 60.5011L32.2505 62.5959L15.7909 62.5462L20.9136 53.611C20.9674 53.5134 20.9997 53.4052 21.0082 53.2938C21.0167 53.1824 21.0012 53.0705 20.9628 52.9657L20.4023 51.4468C20.3539 51.3183 20.2724 51.2053 20.1664 51.1191C18.2777 49.5866 16.8002 47.5999 15.8695 45.341V45.2616C15.1307 43.4821 14.7497 41.572 14.7486 39.6424C14.7492 36.8597 15.4603 34.1242 16.8135 31.7H17.5214C17.5302 32.335 17.7205 32.9539 18.0693 33.4822C18.4182 34.0106 18.9108 34.426 19.4879 34.6784C19.6137 35.6324 20.0784 36.5078 20.7955 37.1419C21.5126 37.7759 22.4333 38.1254 23.3865 38.1254C24.3397 38.1254 25.2604 37.7759 25.9775 37.1419C26.6946 36.5078 27.1593 35.6324 27.2851 34.6784C27.8622 34.426 28.3548 34.0106 28.7037 33.4822C29.0525 32.9539 29.2428 32.335 29.2516 31.7H29.7334C30.3853 31.7 31.0106 31.4385 31.4716 30.9731C31.9326 30.5076 32.1915 29.8763 32.1915 29.218C32.1915 28.5598 31.9326 27.9284 31.4716 27.463C31.0106 26.9975 30.3853 26.736 29.7334 26.736H29.3598C29.5028 26.2332 29.7944 25.7864 30.1955 25.4553C30.6012 25.1085 30.9793 24.7301 31.3263 24.3235C34.5133 24.6985 37.4871 26.1301 39.7822 28.394L39.8904 28.5429L40.0379 28.6521C40.6493 29.2814 41.2022 29.966 41.6898 30.6973C41.7263 30.7974 41.7833 30.8888 41.8569 30.9653C42.3604 31.7601 42.7883 32.6011 43.1351 33.4771C43.1481 33.551 43.1748 33.6217 43.2138 33.6856C44.1014 36.0485 44.3821 38.5998 44.0299 41.1018C44.0003 41.2157 44.0003 41.3354 44.0299 41.4493C44.0924 41.6494 44.1679 41.845 44.256 42.035L46.3209 46.4331L46.3307 46.4133ZM17.3149 50.7319L17.1183 50.6327C16.7701 50.4515 16.3841 50.357 15.9924 50.357C15.6008 50.357 15.2148 50.4515 14.8666 50.6327C14.5468 50.7899 14.2185 50.9291 13.8834 51.0496C13.5122 51.1641 13.1733 51.3661 12.8947 51.6388C12.616 51.9115 12.4056 52.2472 12.2807 52.6183L12.2217 52.8267C12.2075 52.8651 12.1819 52.898 12.1485 52.9211C12.1151 52.9442 12.0754 52.9563 12.0349 52.9558H10.4223C10.3812 52.9597 10.3399 52.9489 10.3058 52.9254C10.2717 52.9018 10.2468 52.8669 10.2355 52.8267L10.1765 52.6183C10.0593 52.2392 9.85329 51.8942 9.57603 51.6125C9.29876 51.3308 8.95836 51.1207 8.58364 51C8.24851 50.8795 7.92025 50.7402 7.60038 50.583C7.25221 50.4019 6.86622 50.3074 6.47456 50.3074C6.0829 50.3074 5.6969 50.4019 5.34873 50.583L5.15208 50.6823C5.11957 50.7073 5.07985 50.7208 5.03901 50.7208C4.99817 50.7208 4.95845 50.7073 4.92594 50.6823L3.77553 49.5406C3.75081 49.5078 3.73742 49.4676 3.73742 49.4264C3.73742 49.3852 3.75081 49.3451 3.77553 49.3122L3.87386 49.1236C4.05324 48.7721 4.14683 48.3823 4.14683 47.9869C4.14683 47.5914 4.05324 47.2016 3.87386 46.8501C3.71677 46.5277 3.57887 46.1962 3.46089 45.8573C3.33643 45.4827 3.12655 45.1429 2.84816 44.8653C2.56977 44.5876 2.23067 44.3799 1.85819 44.2589L1.6517 44.1993C1.61193 44.1879 1.57737 44.1628 1.55402 44.1283C1.53067 44.0939 1.52001 44.0523 1.52388 44.0107V42.3627C1.52001 42.3211 1.53067 42.2795 1.55402 42.245C1.57737 42.2105 1.61193 42.1854 1.6517 42.174L1.85819 42.1045C2.22854 41.9837 2.56517 41.7757 2.84038 41.4979C3.1156 41.22 3.32153 40.8801 3.44122 40.5061C3.5606 40.1677 3.69847 39.8363 3.85419 39.5133C4.03365 39.16 4.12724 38.7687 4.12724 38.3716C4.12724 37.9746 4.03365 37.5832 3.85419 37.2299L3.75587 37.0413C3.73259 37.0078 3.72011 36.968 3.72011 36.9271C3.72011 36.8862 3.73259 36.8464 3.75587 36.8129L4.9161 35.6513C4.94862 35.6264 4.98833 35.6129 5.02918 35.6129C5.07002 35.6129 5.10974 35.6264 5.14225 35.6513L5.3389 35.7506C5.68707 35.9317 6.07306 36.0262 6.46473 36.0262C6.85639 36.0262 7.24238 35.9317 7.59055 35.7506C7.90668 35.5852 8.23549 35.4457 8.5738 35.3336C8.94844 35.2098 9.2884 34.9974 9.56543 34.7142C9.84247 34.4311 10.0486 34.0852 10.1667 33.7055L10.2257 33.5069C10.2367 33.4659 10.2612 33.4298 10.2951 33.4046C10.329 33.3793 10.3704 33.3664 10.4125 33.3679H12.025C12.0671 33.3664 12.1085 33.3793 12.1424 33.4046C12.1763 33.4298 12.2008 33.4659 12.2118 33.5069L12.2708 33.7055C12.3856 34.0655 12.5797 34.3947 12.8385 34.6681C13.0974 34.9415 13.4143 35.1521 13.7654 35.284C13.5165 36.2598 13.3584 37.2569 13.2934 38.2624C12.6317 37.9767 11.9188 37.8314 11.1991 37.8355C10.324 37.8354 9.4623 38.0532 8.69051 38.4698C7.91872 38.8864 7.26064 39.4888 6.77461 40.2236C6.28858 40.9584 5.98961 41.803 5.90421 42.6824C5.81881 43.5618 5.94961 44.4489 6.28502 45.2651C6.62043 46.0812 7.15008 46.8012 7.82703 47.3612C8.50398 47.9212 9.30731 48.3039 10.1658 48.4754C11.0243 48.6469 11.9114 48.6019 12.7486 48.3444C13.5857 48.0868 14.347 47.6247 14.9649 46.999C15.6611 48.3247 16.5345 49.5474 17.5607 50.6327C17.5282 50.6576 17.4885 50.6711 17.4477 50.6711C17.4068 50.6711 17.3671 50.6576 17.3346 50.6327L17.3149 50.7319ZM13.2639 39.9104C13.292 41.7984 13.6481 43.6668 14.316 45.4304C13.8791 46.0384 13.2756 46.5042 12.5798 46.7704C11.8841 47.0366 11.1264 47.0915 10.4001 46.9285C9.67387 46.7654 9.01065 46.3915 8.49214 45.8527C7.97364 45.314 7.62247 44.6339 7.48187 43.8962C7.34126 43.1585 7.41736 42.3954 7.7008 41.7008C7.98423 41.0062 8.46263 40.4104 9.07711 39.9869C9.69158 39.5633 10.4153 39.3304 11.1592 39.3168C11.9031 39.3032 12.6347 39.5096 13.2639 39.9104ZM25.6824 34.9465C25.5272 35.441 25.22 35.8727 24.8054 36.1791C24.3909 36.4856 23.8904 36.6507 23.3767 36.6507C22.8629 36.6507 22.3625 36.4856 21.9479 36.1791C21.5334 35.8727 21.2262 35.441 21.0709 34.9465H25.6824ZM25.9577 33.4374H20.7858C20.3207 33.4348 19.8756 33.2464 19.5476 32.9134C19.2197 32.5804 19.0356 32.1299 19.0356 31.6603H27.7177C27.7177 32.1316 27.5323 32.5836 27.2022 32.9169C26.8722 33.2502 26.4245 33.4374 25.9577 33.4374ZM17.0494 28.2252H29.7039C29.9122 28.2824 30.0961 28.4072 30.2272 28.5803C30.3583 28.7534 30.4293 28.9653 30.4293 29.1833C30.4293 29.4012 30.3583 29.6131 30.2272 29.7862C30.0961 29.9594 29.9122 30.0842 29.7039 30.1413H17.0494C16.9036 30.1813 16.7506 30.1869 16.6023 30.1575C16.454 30.1281 16.3145 30.0647 16.1944 29.972C16.0744 29.8793 15.9771 29.7599 15.9101 29.6232C15.8432 29.4864 15.8083 29.3358 15.8083 29.1833C15.8083 29.0307 15.8432 28.8802 15.9101 28.7434C15.9771 28.6066 16.0744 28.4872 16.1944 28.3946C16.3145 28.3019 16.454 28.2384 16.6023 28.209C16.7506 28.1797 16.9036 28.1852 17.0494 28.2252ZM17.5607 24.254C16.1612 23.0522 15.1606 21.4458 14.694 19.6516C14.2273 17.8574 14.3171 15.9619 14.9512 14.2209C15.5853 12.4798 16.7332 10.9771 18.2398 9.91568C19.7465 8.8542 21.5395 8.28505 23.3767 8.28505C25.2139 8.28505 27.0068 8.8542 28.5135 9.91568C30.0202 10.9771 31.1681 12.4798 31.8021 14.2209C32.4362 15.9619 32.526 17.8574 32.0594 19.6516C31.5927 21.4458 30.5921 23.0522 29.1926 24.254C28.4529 24.8706 27.9545 25.7328 27.7866 26.6864H18.9373C18.7687 25.7354 18.2745 24.8745 17.5411 24.254H17.5607ZM41.4439 27.9671L51.5714 17.7413L52.6924 18.8631L42.4567 29.2279C42.1508 28.7971 41.8226 28.3829 41.4734 27.9869L41.4439 27.9671ZM58.641 13.9686C58.5434 13.8681 58.4198 13.7971 58.2842 13.7637C58.1487 13.7304 58.0066 13.736 57.8741 13.78L51.3355 15.9741H51.2863L51.1683 16.0337L51.0602 16.123L40.382 26.9147C38.1158 24.8434 35.3125 23.466 32.2997 22.9435C33.3441 21.2203 33.8776 19.231 33.8372 17.2112C33.7968 15.1913 33.1842 13.2254 32.0717 11.5461C30.9593 9.86687 29.3937 8.54457 27.5602 7.73573C25.7267 6.92688 23.702 6.66536 21.7259 6.98212C19.7498 7.29887 17.9049 8.18064 16.4097 9.52305C14.9144 10.8655 13.8313 12.6123 13.2886 14.5569C12.7459 16.5014 12.7664 18.5623 13.3475 20.4955C13.9286 22.4287 15.0461 24.1533 16.5676 25.4652C16.9681 25.7929 17.2597 26.2363 17.4034 26.736H17.0298C16.5313 26.7396 16.0458 26.8961 15.6375 27.1848C15.2291 27.4734 14.9174 27.8806 14.7435 28.3523C14.5697 28.824 14.542 29.3379 14.664 29.8258C14.7861 30.3138 15.0522 30.7527 15.4271 31.0845C14.938 31.9697 14.5267 32.8966 14.198 33.8544C14.0779 33.7934 13.9714 33.7082 13.8851 33.6041C13.7989 33.4999 13.7347 33.379 13.6966 33.2488L13.6277 33.0502C13.5174 32.7063 13.3018 32.4066 13.012 32.1943C12.7223 31.982 12.3732 31.868 12.0152 31.8688H10.4223C10.0746 31.8742 9.73707 31.9876 9.45556 32.1937C9.17404 32.3998 8.96228 32.6885 8.84912 33.0204L8.79012 33.219C8.74383 33.3722 8.66152 33.5117 8.55024 33.6258C8.43895 33.7399 8.30198 33.8252 8.15101 33.8742C7.74724 34.0131 7.35306 34.1789 6.9711 34.3706C6.83008 34.4454 6.67318 34.4845 6.51389 34.4845C6.3546 34.4845 6.1977 34.4454 6.05668 34.3706L5.86986 34.2813C5.55231 34.1146 5.19036 34.0545 4.83667 34.1099C4.48298 34.1652 4.15602 34.3331 3.90335 34.5891L2.72345 35.7407C2.47101 35.9963 2.30474 36.3257 2.24826 36.6821C2.19178 37.0386 2.24795 37.4039 2.40881 37.7263L2.50713 37.9149C2.57954 38.056 2.61734 38.2127 2.61734 38.3716C2.61734 38.5306 2.57954 38.6872 2.50713 38.8283C2.31804 39.213 2.15701 39.6112 2.02534 40.0197C1.98232 40.1794 1.90041 40.3258 1.78707 40.4454C1.67373 40.5651 1.53255 40.6542 1.37639 40.7047H1.16991C0.824442 40.8176 0.524138 41.0398 0.313417 41.3384C0.102696 41.6369 -0.00725081 41.9961 -0.000160153 42.3627V43.9908C-0.0115452 44.3608 0.0964045 44.7244 0.307434 45.027C0.518463 45.3296 0.821148 45.5548 1.16991 45.6687H1.37639C1.52627 45.7168 1.66253 45.8005 1.77374 45.9128C1.88495 46.0251 1.96786 46.1627 2.01551 46.314C2.15478 46.721 2.31898 47.1189 2.50713 47.5053C2.57954 47.6465 2.61734 47.8031 2.61734 47.962C2.61734 48.121 2.57954 48.2776 2.50713 48.4187L2.40881 48.6073C2.24795 48.9297 2.19178 49.2951 2.24826 49.6515C2.30474 50.0079 2.47101 50.3373 2.72345 50.5929L3.86402 51.7446C4.11669 52.0005 4.44365 52.1684 4.79734 52.2238C5.15103 52.2791 5.51298 52.2191 5.83053 52.0524L6.01735 51.9531C6.15837 51.8783 6.31527 51.8392 6.47456 51.8392C6.63385 51.8392 6.79075 51.8783 6.93177 51.9531C7.31115 52.143 7.70194 52.3088 8.10184 52.4495C8.25281 52.4986 8.38978 52.5838 8.50107 52.6979C8.61236 52.812 8.69466 52.9516 8.74096 53.1047L8.80978 53.3033C8.92011 53.6472 9.13568 53.9469 9.42547 54.1592C9.71525 54.3715 10.0643 54.4855 10.4223 54.4847H12.0349C12.3929 54.4855 12.7419 54.3715 13.0317 54.1592C13.3215 53.9469 13.5371 53.6472 13.6474 53.3033L13.7162 53.1047C13.7625 52.9516 13.8448 52.812 13.9561 52.6979C14.0674 52.5838 14.2044 52.4986 14.3553 52.4495C14.7584 52.3088 15.1525 52.1431 15.5352 51.9531C15.675 51.88 15.8301 51.8418 15.9875 51.8418C16.1449 51.8418 16.3001 51.88 16.4398 51.9531L16.6266 52.0424C16.9449 52.2061 17.3062 52.2644 17.6591 52.2092C18.0121 52.154 18.3389 51.9879 18.5931 51.7347L19.0159 52.102L19.3896 53.0948L13.7949 62.8738C13.732 62.9895 13.6991 63.1192 13.6991 63.2511C13.6991 63.383 13.732 63.5127 13.7949 63.6284C13.8621 63.742 13.957 63.8364 14.0707 63.9024C14.1843 63.9685 14.3127 64.004 14.4438 64.0056L32.7422 64.1546C32.8908 64.1535 33.0359 64.1088 33.1598 64.0259C33.2838 63.9431 33.3812 63.8257 33.4403 63.6879L34.4924 61.1265C34.78 60.3934 35.3107 59.7838 35.9939 59.4017C36.6771 59.0197 37.4705 58.8889 38.2385 59.0317L41.1883 59.5182C41.6181 59.5967 42.0594 59.5843 42.4842 59.4818C42.909 59.3793 43.3081 59.1888 43.6563 58.9225C44.0106 58.6658 44.3093 58.3389 44.5342 57.9616C44.759 57.5844 44.9053 57.1647 44.964 56.7284L45.023 56.2618L46.0062 54.2762C46.0812 54.1306 46.1064 53.9641 46.078 53.8025C46.0495 53.6409 45.969 53.4933 45.8489 53.3827L44.7575 52.3899L46.311 51.3971C46.4508 51.3105 46.559 51.1805 46.6193 51.0265C46.6796 50.8726 46.6887 50.703 46.6454 50.5433L46.2127 48.935L47.8449 47.0387C47.9387 46.926 47.9986 46.7886 48.0178 46.6426C48.0369 46.4967 48.0145 46.3482 47.9531 46.2147L45.6818 41.3699C45.6818 41.2805 45.6129 41.1912 45.5736 41.1117C45.6687 40.4043 45.7147 39.6911 45.7113 38.9772C45.7097 37.107 45.3939 35.2506 44.7772 33.487L56.4582 21.643L56.5369 21.5536C56.5387 21.5272 56.5387 21.5006 56.5369 21.4742C56.5393 21.4577 56.5393 21.441 56.5369 21.4246L58.7099 14.8324C58.7546 14.6987 58.7608 14.5549 58.7277 14.4178C58.6946 14.2807 58.6237 14.1559 58.523 14.058L58.641 13.9686Z" fill="white"/>
</g>
<defs>
<clipPath id="clip0_22760_3477">
<rect width="59" height="64" fill="white"/>
</clipPath>
</defs>
</svg>
