<svg width="134" height="129" viewBox="0 0 134 129" fill="none" xmlns="http://www.w3.org/2000/svg">
<path d="M33.5 0C28.8937 0 25.125 3.62812 25.125 8.0625V120.938C25.125 125.372 28.8937 129 33.5 129H117.25C121.856 129 125.625 125.372 125.625 120.938V32.25L92.125 0H33.5Z" fill="#E2E5E7"/>
<path d="M100.5 32.25H125.625L92.125 0V24.1875C92.125 28.6219 95.8937 32.25 100.5 32.25Z" fill="#B0B7BD"/>
<path d="M125.625 56.4375L100.5 32.25H125.625V56.4375Z" fill="#CAD1D8"/>
<path d="M108.875 104.812C108.875 107.03 106.991 108.844 104.688 108.844H12.5625C10.2594 108.844 8.375 107.03 8.375 104.812V64.5C8.375 62.2828 10.2594 60.4688 12.5625 60.4688H104.688C106.991 60.4688 108.875 62.2828 108.875 64.5V104.812Z" fill="#F15642"/>
<path d="M26.6279 76.38C26.6279 75.3158 27.4989 74.1548 28.9017 74.1548H36.6361C40.9911 74.1548 44.9106 76.9605 44.9106 82.3382C44.9106 87.4337 40.9911 90.2717 36.6361 90.2717H31.0457V94.5287C31.0457 95.9477 30.1077 96.7499 28.9017 96.7499C27.7962 96.7499 26.6279 95.9477 26.6279 94.5287V76.38ZM31.0457 78.2143V86.2445H36.6361C38.8806 86.2445 40.6561 84.3377 40.6561 82.3382C40.6561 80.0847 38.8806 78.2143 36.6361 78.2143H31.0457ZM51.4682 96.7499C50.3627 96.7499 49.1567 96.1694 49.1567 94.7545V76.4445C49.1567 75.2876 50.3627 74.445 51.4682 74.445H59.1355C74.4366 74.445 74.1016 96.7499 59.437 96.7499H51.4682ZM53.5787 78.3795V92.8195H59.1355C68.1763 92.8195 68.5783 78.3795 59.1355 78.3795H53.5787ZM79.5286 78.6375V83.7613H88.0669C89.2729 83.7613 90.4789 84.9222 90.4789 86.047C90.4789 87.1112 89.2729 87.982 88.0669 87.982H79.5286V94.7504C79.5286 95.8792 78.6953 96.7459 77.5228 96.7459C76.0488 96.7459 75.1485 95.8792 75.1485 94.7504V76.4405C75.1485 75.2835 76.053 74.441 77.5228 74.441H89.2771C90.7511 74.441 91.6221 75.2835 91.6221 76.4405C91.6221 77.4725 90.7511 78.6335 89.2771 78.6335H79.5286V78.6375Z" fill="white"/>
<path d="M104.688 108.844H25.125V112.875H104.688C106.991 112.875 108.875 111.061 108.875 108.844V104.812C108.875 107.03 106.991 108.844 104.688 108.844Z" fill="#CAD1D8"/>
</svg>
